<?xml version="1.0" encoding="utf-8"?>
<!-- Generator: Adobe Illustrator 24.0.1, SVG Export Plug-In . SVG Version: 6.00 Build 0)  -->
<svg version="1.1" id="レイヤー_1" xmlns="http://www.w3.org/2000/svg" xmlns:xlink="http://www.w3.org/1999/xlink" x="0px"
	 y="0px" viewBox="0 0 995 199" style="enable-background:new 0 0 995 199;" xml:space="preserve">
<style type="text/css">
	.st0{fill:#F3F4F6;}
	.st1{fill:#C8C8C8;}
</style>
<path class="st0" d="M988.7,199H6.3c-3.5,0-6.3-2.8-6.3-6.3V6.3C0,2.8,2.8,0,6.3,0h982.3c3.5,0,6.3,2.8,6.3,6.3v186.3
	C995,196.2,992.2,199,988.7,199z"/>
<circle class="st1" cx="17" cy="24" r="5"/>
<circle class="st1" cx="35" cy="24" r="5"/>
<circle class="st1" cx="53" cy="24" r="5"/>
<g>
	<path class="st1" d="M11.7,78.2h3.9v5.9h-1.4v-4.8h-2.6V78.2z M14.9,77.1c-0.3,0-0.5-0.1-0.7-0.3c-0.2-0.2-0.3-0.4-0.3-0.7
		c0-0.3,0.1-0.5,0.3-0.7c0.2-0.2,0.4-0.3,0.7-0.3c0.3,0,0.5,0.1,0.7,0.3s0.3,0.4,0.3,0.7c0,0.3-0.1,0.5-0.3,0.7
		C15.4,77,15.2,77.1,14.9,77.1z"/>
	<path class="st1" d="M18.5,78.2h1l0.1,0.8h0c0.1-0.3,0.3-0.5,0.5-0.6c0.2-0.2,0.5-0.3,0.8-0.3c0.6,0,0.9,0.3,1.1,1
		c0.1-0.3,0.3-0.5,0.5-0.7c0.2-0.2,0.5-0.3,0.8-0.3c0.4,0,0.7,0.2,1,0.5c0.2,0.3,0.3,0.8,0.3,1.4v4.2h-1.3V80c0-0.5-0.2-0.8-0.5-0.8
		c-0.2,0-0.3,0.1-0.4,0.2s-0.2,0.3-0.3,0.6v4.1h-1.1V80c0-0.5-0.2-0.8-0.5-0.8c-0.2,0-0.3,0.1-0.4,0.2c-0.1,0.1-0.2,0.3-0.3,0.6v4.1
		h-1.3V78.2z"/>
	<path class="st1" d="M27.5,84.5v1.8h-1.4v-8.2h1.1l0.1,0.7h0c0.3-0.2,0.5-0.4,0.9-0.6c0.3-0.2,0.7-0.2,1-0.2c0.4,0,0.7,0.1,1,0.2
		c0.3,0.1,0.6,0.3,0.8,0.6c0.2,0.3,0.4,0.6,0.5,0.9c0.1,0.4,0.2,0.8,0.2,1.2c0,0.5-0.1,1-0.2,1.4s-0.3,0.7-0.6,1
		c-0.2,0.3-0.5,0.5-0.8,0.6c-0.3,0.1-0.6,0.2-1,0.2c-0.3,0-0.6-0.1-0.8-0.2c-0.3-0.1-0.5-0.3-0.8-0.5L27.5,84.5z M27.5,82.5
		c0.2,0.2,0.4,0.3,0.7,0.4c0.2,0.1,0.4,0.1,0.6,0.1c0.4,0,0.8-0.2,1.1-0.5c0.3-0.3,0.4-0.8,0.4-1.5c0-0.6-0.1-1.1-0.3-1.4
		s-0.6-0.5-1-0.5c-0.2,0-0.5,0.1-0.7,0.2c-0.2,0.1-0.5,0.3-0.7,0.5V82.5z"/>
	<path class="st1" d="M33,81.1c0-0.5,0.1-0.9,0.2-1.3c0.2-0.4,0.4-0.7,0.7-1c0.3-0.3,0.6-0.5,0.9-0.6c0.4-0.1,0.7-0.2,1.1-0.2
		c0.4,0,0.8,0.1,1.1,0.2c0.4,0.1,0.7,0.3,0.9,0.6c0.3,0.3,0.5,0.6,0.7,1c0.2,0.4,0.2,0.8,0.2,1.3s-0.1,0.9-0.2,1.3
		c-0.2,0.4-0.4,0.7-0.7,1c-0.3,0.3-0.6,0.5-0.9,0.6c-0.4,0.1-0.7,0.2-1.1,0.2c-0.4,0-0.8-0.1-1.1-0.2c-0.4-0.1-0.7-0.3-0.9-0.6
		c-0.3-0.3-0.5-0.6-0.7-1C33,82,33,81.6,33,81.1z M34.4,81.1c0,0.6,0.1,1.1,0.4,1.4c0.3,0.4,0.6,0.5,1.1,0.5s0.9-0.2,1.1-0.5
		s0.4-0.8,0.4-1.4c0-0.6-0.1-1.1-0.4-1.4s-0.6-0.5-1.1-0.5s-0.9,0.2-1.1,0.5C34.5,80,34.4,80.5,34.4,81.1z"/>
	<path class="st1" d="M41.1,78.2h1.1l0.1,1.3h0c0.3-0.5,0.7-0.8,1.1-1.1c0.4-0.3,0.9-0.4,1.4-0.4c0.2,0,0.4,0,0.6,0.1
		s0.3,0.1,0.5,0.2l-0.3,1.2c-0.2-0.1-0.4-0.1-0.5-0.1c-0.1,0-0.3,0-0.6,0c-0.4,0-0.8,0.1-1.2,0.3c-0.4,0.2-0.7,0.6-1,1.2v3.3h-1.4
		V78.2z"/>
	<path class="st1" d="M49,79.3h-1.6v-1l1.6-0.1l0.2-1.6h1.1v1.6h2.7v1.1h-2.7v2.4c0,0.5,0.1,0.8,0.3,1.1c0.2,0.2,0.6,0.3,1.1,0.3
		c0.3,0,0.5,0,0.7-0.1s0.4-0.1,0.6-0.2l0.3,1C53,84,52.8,84,52.4,84.1c-0.3,0.1-0.7,0.1-1,0.1c-0.4,0-0.8-0.1-1.1-0.2
		c-0.3-0.1-0.5-0.3-0.7-0.5s-0.3-0.5-0.4-0.8c-0.1-0.3-0.1-0.7-0.1-1V79.3z"/>
	<path class="st1" d="M62.9,80l1-1.7l-1.6-0.7l0.2-0.7l1.7,0.4l0.1-1.9h0.8l0.1,1.8l1.7-0.4l0.2,0.7l-1.6,0.7l1,1.7L66,80.5L64.7,79
		l-1.2,1.5L62.9,80z"/>
	<path class="st1" d="M76.4,82.5c0-0.3,0.1-0.6,0.2-0.9c0.2-0.3,0.4-0.5,0.7-0.6c0.3-0.2,0.7-0.3,1.3-0.4c0.5-0.1,1.1-0.2,1.9-0.2
		c0-0.3-0.1-0.6-0.4-0.8c-0.2-0.2-0.6-0.3-1-0.3c-0.3,0-0.7,0.1-1,0.2c-0.3,0.1-0.6,0.3-0.9,0.4l-0.5-0.9c0.4-0.2,0.8-0.4,1.2-0.6
		s0.9-0.3,1.5-0.3c0.8,0,1.5,0.2,1.9,0.7c0.4,0.4,0.6,1.1,0.6,1.9v3.5h-1.1l-0.1-0.7h0c-0.3,0.2-0.7,0.4-1,0.6
		c-0.4,0.2-0.8,0.3-1.2,0.3c-0.3,0-0.6,0-0.8-0.1c-0.2-0.1-0.4-0.2-0.6-0.4c-0.2-0.2-0.3-0.3-0.4-0.5C76.4,83,76.4,82.7,76.4,82.5z
		 M77.7,82.4c0,0.3,0.1,0.5,0.3,0.6c0.2,0.1,0.5,0.2,0.8,0.2c0.3,0,0.6-0.1,0.9-0.2c0.3-0.1,0.5-0.3,0.8-0.5v-1.2
		c-0.5,0-1,0.1-1.3,0.2c-0.4,0.1-0.6,0.2-0.8,0.3s-0.4,0.2-0.4,0.4C77.8,82.1,77.7,82.2,77.7,82.4z"/>
	<path class="st1" d="M84.1,82.4c0.3,0.2,0.7,0.4,1,0.5c0.4,0.1,0.8,0.2,1.2,0.2c0.5,0,0.8-0.1,1-0.2c0.2-0.1,0.3-0.3,0.3-0.5
		s-0.1-0.4-0.4-0.5c-0.3-0.1-0.7-0.3-1.3-0.5c-0.3-0.1-0.6-0.2-0.8-0.3c-0.3-0.1-0.5-0.2-0.7-0.4c-0.2-0.1-0.4-0.3-0.5-0.5
		c-0.1-0.2-0.2-0.4-0.2-0.6c0-0.5,0.2-0.9,0.7-1.3s1.1-0.5,1.9-0.5c0.5,0,0.9,0.1,1.4,0.2c0.4,0.2,0.8,0.3,1.1,0.5l-0.6,0.9
		c-0.3-0.2-0.5-0.3-0.8-0.4c-0.3-0.1-0.6-0.2-1-0.2c-0.5,0-0.8,0.1-1,0.2c-0.2,0.1-0.3,0.3-0.3,0.5c0,0.1,0,0.2,0.1,0.3
		s0.2,0.2,0.3,0.2s0.3,0.1,0.5,0.2c0.2,0.1,0.4,0.1,0.7,0.2c0.3,0.1,0.7,0.2,0.9,0.3c0.3,0.1,0.5,0.2,0.7,0.4
		c0.2,0.1,0.3,0.3,0.5,0.5s0.2,0.4,0.2,0.6c0,0.3-0.1,0.5-0.2,0.7c-0.1,0.2-0.3,0.4-0.5,0.6c-0.2,0.2-0.5,0.3-0.9,0.4
		c-0.3,0.1-0.7,0.1-1.2,0.1c-0.6,0-1.1-0.1-1.6-0.3c-0.5-0.2-0.9-0.4-1.3-0.6L84.1,82.4z"/>
	<path class="st1" d="M98,82.5c0-0.3,0.1-0.6,0.2-0.9c0.2-0.3,0.4-0.5,0.7-0.6c0.3-0.2,0.7-0.3,1.3-0.4c0.5-0.1,1.1-0.2,1.9-0.2
		c0-0.3-0.1-0.6-0.4-0.8c-0.2-0.2-0.6-0.3-1-0.3c-0.3,0-0.7,0.1-1,0.2c-0.3,0.1-0.6,0.3-0.9,0.4l-0.5-0.9c0.4-0.2,0.8-0.4,1.2-0.6
		s0.9-0.3,1.5-0.3c0.8,0,1.5,0.2,1.9,0.7c0.4,0.4,0.6,1.1,0.6,1.9v3.5h-1.1l-0.1-0.7h0c-0.3,0.2-0.7,0.4-1,0.6
		c-0.4,0.2-0.8,0.3-1.2,0.3c-0.3,0-0.6,0-0.8-0.1c-0.2-0.1-0.4-0.2-0.6-0.4c-0.2-0.2-0.3-0.3-0.4-0.5C98,83,98,82.7,98,82.5z
		 M99.3,82.4c0,0.3,0.1,0.5,0.3,0.6c0.2,0.1,0.5,0.2,0.8,0.2c0.3,0,0.6-0.1,0.9-0.2c0.3-0.1,0.5-0.3,0.8-0.5v-1.2
		c-0.5,0-1,0.1-1.3,0.2c-0.4,0.1-0.6,0.2-0.8,0.3s-0.4,0.2-0.4,0.4C99.4,82.1,99.3,82.2,99.3,82.4z"/>
	<path class="st1" d="M105.4,75.6h1.4v5.3l0,0l2.7-2.7h1.5l-2.3,2.4l2.5,3.5h-1.5l-1.8-2.6l-1.1,1.1v1.5h-1.4V75.6z"/>
	<path class="st1" d="M112.6,75.6h1.4v5.3l0,0l2.7-2.7h1.5l-2.3,2.4l2.5,3.5H117l-1.8-2.6l-1.1,1.1v1.5h-1.4V75.6z"/>
	<path class="st1" d="M119.5,81.1c0-0.5,0.1-0.9,0.3-1.3c0.2-0.4,0.4-0.7,0.7-1c0.3-0.3,0.6-0.5,1-0.6c0.4-0.1,0.7-0.2,1.1-0.2
		c0.4,0,0.8,0.1,1.2,0.2c0.3,0.1,0.6,0.3,0.9,0.6s0.4,0.5,0.5,0.9c0.1,0.3,0.2,0.7,0.2,1.1c0,0.1,0,0.3,0,0.4c0,0.1,0,0.2,0,0.3
		h-4.3c0.1,0.5,0.3,0.9,0.6,1.2s0.8,0.4,1.3,0.4c0.3,0,0.6,0,0.9-0.1c0.3-0.1,0.5-0.2,0.8-0.4l0.5,0.9c-0.3,0.2-0.7,0.4-1.1,0.5
		s-0.8,0.2-1.2,0.2c-0.4,0-0.9-0.1-1.3-0.2c-0.4-0.1-0.7-0.3-1-0.6c-0.3-0.3-0.5-0.6-0.7-1C119.6,82,119.5,81.6,119.5,81.1z
		 M124,80.6c0-0.5-0.1-0.8-0.4-1.1c-0.2-0.3-0.6-0.4-1.1-0.4c-0.2,0-0.4,0-0.6,0.1s-0.4,0.2-0.5,0.3s-0.3,0.3-0.4,0.5
		c-0.1,0.2-0.2,0.4-0.2,0.6H124z"/>
	<path class="st1" d="M127.2,85.3c0.1,0,0.2,0,0.3,0c0.4,0,0.7-0.1,0.9-0.3s0.4-0.4,0.5-0.7L129,84l-2.6-5.8h1.4l1.2,2.9
		c0.1,0.3,0.2,0.5,0.3,0.8c0.1,0.3,0.2,0.6,0.3,0.9h0c0.1-0.3,0.2-0.6,0.3-0.9c0.1-0.3,0.2-0.6,0.3-0.9l1.1-2.9h1.3l-2.5,6.2
		c-0.1,0.3-0.3,0.6-0.4,0.9c-0.2,0.3-0.3,0.5-0.5,0.7s-0.4,0.3-0.7,0.4s-0.6,0.1-0.9,0.1c-0.2,0-0.3,0-0.5,0s-0.3-0.1-0.4-0.1
		l0.3-1.1C127.1,85.3,127.2,85.3,127.2,85.3z"/>
	<path class="st1" d="M147,76.8c-0.2-0.1-0.4-0.2-0.6-0.2s-0.4-0.1-0.7-0.1c-0.5,0-0.8,0.1-1,0.3c-0.2,0.2-0.3,0.5-0.3,1v0.3h2.2
		v1.1h-2.2v4.8h-1.4v-4.8h-1.6v-1l1.6-0.1v-0.3c0-0.3,0-0.7,0.1-1c0.1-0.3,0.2-0.6,0.5-0.8s0.5-0.4,0.8-0.5s0.7-0.2,1.1-0.2
		c0.3,0,0.6,0,0.9,0.1c0.3,0.1,0.6,0.1,0.8,0.2L147,76.8z"/>
	<path class="st1" d="M149.1,78.2h1.1l0.1,1.3h0c0.3-0.5,0.7-0.8,1.1-1.1c0.4-0.3,0.9-0.4,1.4-0.4c0.2,0,0.4,0,0.6,0.1
		s0.3,0.1,0.5,0.2l-0.3,1.2c-0.2-0.1-0.4-0.1-0.5-0.1c-0.1,0-0.3,0-0.6,0c-0.4,0-0.8,0.1-1.2,0.3c-0.4,0.2-0.7,0.6-1,1.2v3.3h-1.4
		V78.2z"/>
	<path class="st1" d="M155.4,81.1c0-0.5,0.1-0.9,0.2-1.3c0.2-0.4,0.4-0.7,0.7-1c0.3-0.3,0.6-0.5,0.9-0.6c0.4-0.1,0.7-0.2,1.1-0.2
		c0.4,0,0.8,0.1,1.1,0.2c0.4,0.1,0.7,0.3,0.9,0.6c0.3,0.3,0.5,0.6,0.7,1c0.2,0.4,0.2,0.8,0.2,1.3s-0.1,0.9-0.2,1.3
		c-0.2,0.4-0.4,0.7-0.7,1c-0.3,0.3-0.6,0.5-0.9,0.6c-0.4,0.1-0.7,0.2-1.1,0.2c-0.4,0-0.8-0.1-1.1-0.2c-0.4-0.1-0.7-0.3-0.9-0.6
		c-0.3-0.3-0.5-0.6-0.7-1C155.4,82,155.4,81.6,155.4,81.1z M156.8,81.1c0,0.6,0.1,1.1,0.4,1.4c0.3,0.4,0.6,0.5,1.1,0.5
		s0.9-0.2,1.1-0.5s0.4-0.8,0.4-1.4c0-0.6-0.1-1.1-0.4-1.4s-0.6-0.5-1.1-0.5s-0.9,0.2-1.1,0.5C156.9,80,156.8,80.5,156.8,81.1z"/>
	<path class="st1" d="M162.5,78.2h1l0.1,0.8h0c0.1-0.3,0.3-0.5,0.5-0.6c0.2-0.2,0.5-0.3,0.8-0.3c0.6,0,0.9,0.3,1.1,1
		c0.1-0.3,0.3-0.5,0.5-0.7c0.2-0.2,0.5-0.3,0.8-0.3c0.4,0,0.7,0.2,1,0.5c0.2,0.3,0.3,0.8,0.3,1.4v4.2h-1.3V80c0-0.5-0.2-0.8-0.5-0.8
		c-0.2,0-0.3,0.1-0.4,0.2s-0.2,0.3-0.3,0.6v4.1h-1.1V80c0-0.5-0.2-0.8-0.5-0.8c-0.2,0-0.3,0.1-0.4,0.2c-0.1,0.1-0.2,0.3-0.3,0.6v4.1
		h-1.3V78.2z"/>
	<path class="st1" d="M181,76.4c-0.4,0.2-0.7,0.5-0.9,0.8c-0.2,0.3-0.3,0.6-0.4,1c0.1,0,0.2,0,0.3,0c0.3,0,0.5,0.1,0.7,0.3
		c0.2,0.2,0.3,0.4,0.3,0.7c0,0.3-0.1,0.6-0.3,0.8c-0.2,0.2-0.4,0.3-0.7,0.3c-0.4,0-0.7-0.1-0.9-0.4c-0.2-0.3-0.3-0.7-0.3-1.2
		c0-0.6,0.2-1.2,0.5-1.7c0.3-0.5,0.8-0.9,1.4-1.2L181,76.4z"/>
	<path class="st1" d="M184.4,82.5c0-0.3,0.1-0.6,0.2-0.9c0.2-0.3,0.4-0.5,0.7-0.6c0.3-0.2,0.7-0.3,1.3-0.4c0.5-0.1,1.1-0.2,1.9-0.2
		c0-0.3-0.1-0.6-0.4-0.8c-0.2-0.2-0.6-0.3-1-0.3c-0.3,0-0.7,0.1-1,0.2c-0.3,0.1-0.6,0.3-0.9,0.4l-0.5-0.9c0.4-0.2,0.8-0.4,1.2-0.6
		s0.9-0.3,1.5-0.3c0.8,0,1.5,0.2,1.9,0.7c0.4,0.4,0.6,1.1,0.6,1.9v3.5h-1.1l-0.1-0.7h0c-0.3,0.2-0.7,0.4-1,0.6
		c-0.4,0.2-0.8,0.3-1.2,0.3c-0.3,0-0.6,0-0.8-0.1c-0.2-0.1-0.4-0.2-0.6-0.4c-0.2-0.2-0.3-0.3-0.4-0.5
		C184.4,83,184.4,82.7,184.4,82.5z M185.7,82.4c0,0.3,0.1,0.5,0.3,0.6c0.2,0.1,0.5,0.2,0.8,0.2c0.3,0,0.6-0.1,0.9-0.2
		c0.3-0.1,0.5-0.3,0.8-0.5v-1.2c-0.5,0-1,0.1-1.3,0.2c-0.4,0.1-0.6,0.2-0.8,0.3s-0.4,0.2-0.4,0.4C185.8,82.1,185.7,82.2,185.7,82.4z
		"/>
	<path class="st1" d="M191.8,75.6h1.4v5.3l0,0l2.7-2.7h1.5l-2.3,2.4l2.5,3.5h-1.5l-1.8-2.6l-1.1,1.1v1.5h-1.4V75.6z"/>
	<path class="st1" d="M199,75.6h1.4v5.3l0,0l2.7-2.7h1.5l-2.3,2.4l2.5,3.5h-1.5l-1.8-2.6l-1.1,1.1v1.5H199V75.6z"/>
	<path class="st1" d="M205.9,81.1c0-0.5,0.1-0.9,0.3-1.3c0.2-0.4,0.4-0.7,0.7-1c0.3-0.3,0.6-0.5,1-0.6c0.4-0.1,0.7-0.2,1.1-0.2
		c0.4,0,0.8,0.1,1.2,0.2c0.3,0.1,0.6,0.3,0.9,0.6s0.4,0.5,0.5,0.9c0.1,0.3,0.2,0.7,0.2,1.1c0,0.1,0,0.3,0,0.4c0,0.1,0,0.2,0,0.3
		h-4.3c0.1,0.5,0.3,0.9,0.6,1.2s0.8,0.4,1.3,0.4c0.3,0,0.6,0,0.9-0.1c0.3-0.1,0.5-0.2,0.8-0.4l0.5,0.9c-0.3,0.2-0.7,0.4-1.1,0.5
		s-0.8,0.2-1.2,0.2c-0.4,0-0.9-0.1-1.3-0.2c-0.4-0.1-0.7-0.3-1-0.6c-0.3-0.3-0.5-0.6-0.7-1C205.9,82,205.9,81.6,205.9,81.1z
		 M210.4,80.6c0-0.5-0.1-0.8-0.4-1.1c-0.2-0.3-0.6-0.4-1.1-0.4c-0.2,0-0.4,0-0.6,0.1s-0.4,0.2-0.5,0.3s-0.3,0.3-0.4,0.5
		c-0.1,0.2-0.2,0.4-0.2,0.6H210.4z"/>
	<path class="st1" d="M213.6,85.3c0.1,0,0.2,0,0.3,0c0.4,0,0.7-0.1,0.9-0.3s0.4-0.4,0.5-0.7l0.1-0.4l-2.6-5.8h1.4l1.2,2.9
		c0.1,0.3,0.2,0.5,0.3,0.8c0.1,0.3,0.2,0.6,0.3,0.9h0c0.1-0.3,0.2-0.6,0.3-0.9c0.1-0.3,0.2-0.6,0.3-0.9l1.1-2.9h1.3l-2.5,6.2
		c-0.1,0.3-0.3,0.6-0.4,0.9c-0.2,0.3-0.3,0.5-0.5,0.7s-0.4,0.3-0.7,0.4s-0.6,0.1-0.9,0.1c-0.2,0-0.3,0-0.5,0s-0.3-0.1-0.4-0.1
		l0.3-1.1C213.5,85.3,213.5,85.3,213.6,85.3z"/>
	<path class="st1" d="M221.9,83c0-0.4,0.1-0.6,0.3-0.9c0.2-0.2,0.5-0.3,0.9-0.3c0.3,0,0.6,0.1,0.9,0.3c0.2,0.2,0.3,0.5,0.3,0.9
		s-0.1,0.6-0.3,0.9c-0.2,0.2-0.5,0.3-0.9,0.3c-0.3,0-0.6-0.1-0.9-0.3C222,83.6,221.9,83.3,221.9,83z"/>
	<path class="st1" d="M227.7,78.2h3.9v5.8c0,0.4,0,0.7-0.1,1s-0.2,0.6-0.4,0.8c-0.2,0.2-0.5,0.4-0.8,0.6s-0.8,0.2-1.3,0.2
		c-0.3,0-0.7,0-1-0.1c-0.3-0.1-0.6-0.2-0.8-0.3l0.4-1c0.2,0.1,0.4,0.2,0.7,0.2c0.2,0,0.4,0.1,0.6,0.1c0.5,0,0.8-0.1,1-0.4
		c0.2-0.2,0.3-0.6,0.3-1.1v-4.8h-2.6V78.2z M230.9,77.1c-0.3,0-0.5-0.1-0.7-0.3c-0.2-0.2-0.3-0.4-0.3-0.7c0-0.3,0.1-0.5,0.3-0.7
		c0.2-0.2,0.4-0.3,0.7-0.3c0.3,0,0.5,0.1,0.7,0.3s0.3,0.4,0.3,0.7c0,0.3-0.1,0.5-0.3,0.7C231.4,77,231.2,77.1,230.9,77.1z"/>
	<path class="st1" d="M235.3,82.4c0.3,0.2,0.7,0.4,1,0.5c0.4,0.1,0.8,0.2,1.2,0.2c0.5,0,0.8-0.1,1-0.2c0.2-0.1,0.3-0.3,0.3-0.5
		s-0.1-0.4-0.4-0.5c-0.3-0.1-0.7-0.3-1.3-0.5c-0.3-0.1-0.6-0.2-0.8-0.3c-0.3-0.1-0.5-0.2-0.7-0.4c-0.2-0.1-0.4-0.3-0.5-0.5
		c-0.1-0.2-0.2-0.4-0.2-0.6c0-0.5,0.2-0.9,0.7-1.3s1.1-0.5,1.9-0.5c0.5,0,0.9,0.1,1.4,0.2c0.4,0.2,0.8,0.3,1.1,0.5l-0.6,0.9
		c-0.3-0.2-0.5-0.3-0.8-0.4c-0.3-0.1-0.6-0.2-1-0.2c-0.5,0-0.8,0.1-1,0.2c-0.2,0.1-0.3,0.3-0.3,0.5c0,0.1,0,0.2,0.1,0.3
		s0.2,0.2,0.3,0.2s0.3,0.1,0.5,0.2c0.2,0.1,0.4,0.1,0.7,0.2c0.3,0.1,0.7,0.2,0.9,0.3c0.3,0.1,0.5,0.2,0.7,0.4
		c0.2,0.1,0.3,0.3,0.5,0.5s0.2,0.4,0.2,0.6c0,0.3-0.1,0.5-0.2,0.7c-0.1,0.2-0.3,0.4-0.5,0.6c-0.2,0.2-0.5,0.3-0.9,0.4
		c-0.3,0.1-0.7,0.1-1.2,0.1c-0.6,0-1.1-0.1-1.6-0.3c-0.5-0.2-0.9-0.4-1.3-0.6L235.3,82.4z"/>
	<path class="st1" d="M243.6,79.5c0.4-0.2,0.7-0.5,0.9-0.8c0.2-0.3,0.3-0.6,0.4-1c-0.1,0-0.2,0-0.3,0c-0.3,0-0.5-0.1-0.7-0.3
		c-0.2-0.2-0.3-0.4-0.3-0.7c0-0.3,0.1-0.6,0.3-0.8c0.2-0.2,0.4-0.3,0.7-0.3c0.4,0,0.7,0.1,0.9,0.5c0.2,0.3,0.3,0.7,0.3,1.2
		c0,0.6-0.2,1.2-0.5,1.7c-0.3,0.5-0.8,0.9-1.4,1.2L243.6,79.5z"/>
	<path class="st1" d="M11.6,107.1c0-0.5,0.1-0.9,0.3-1.3c0.2-0.4,0.4-0.7,0.7-1c0.3-0.3,0.7-0.5,1.1-0.6c0.4-0.1,0.8-0.2,1.3-0.2
		c0.5,0,0.9,0.1,1.3,0.2c0.4,0.2,0.7,0.4,0.9,0.6l-0.7,0.9c-0.2-0.2-0.5-0.3-0.7-0.4s-0.5-0.1-0.8-0.1c-0.6,0-1.1,0.2-1.4,0.5
		c-0.4,0.4-0.6,0.8-0.6,1.4c0,0.3,0,0.6,0.1,0.8c0.1,0.2,0.2,0.4,0.4,0.6c0.2,0.2,0.4,0.3,0.6,0.4c0.2,0.1,0.5,0.1,0.8,0.1
		c0.3,0,0.6-0.1,0.9-0.2c0.3-0.1,0.5-0.3,0.8-0.5l0.6,0.9c-0.3,0.3-0.7,0.5-1.1,0.7c-0.4,0.1-0.8,0.2-1.3,0.2
		c-0.5,0-0.9-0.1-1.3-0.2c-0.4-0.1-0.7-0.3-1-0.6c-0.3-0.3-0.5-0.6-0.7-1C11.7,108,11.6,107.6,11.6,107.1z"/>
	<path class="st1" d="M18.6,107.1c0-0.5,0.1-0.9,0.2-1.3c0.2-0.4,0.4-0.7,0.7-1c0.3-0.3,0.6-0.5,0.9-0.6c0.4-0.1,0.7-0.2,1.1-0.2
		c0.4,0,0.8,0.1,1.1,0.2c0.4,0.1,0.7,0.3,0.9,0.6c0.3,0.3,0.5,0.6,0.7,1c0.2,0.4,0.2,0.8,0.2,1.3c0,0.5-0.1,0.9-0.2,1.3
		s-0.4,0.7-0.7,1s-0.6,0.5-0.9,0.6c-0.4,0.1-0.7,0.2-1.1,0.2c-0.4,0-0.8-0.1-1.1-0.2c-0.4-0.1-0.7-0.3-0.9-0.6s-0.5-0.6-0.7-1
		S18.6,107.6,18.6,107.1z M20,107.1c0,0.6,0.1,1.1,0.4,1.4c0.3,0.4,0.6,0.5,1.1,0.5s0.9-0.2,1.1-0.5c0.3-0.4,0.4-0.8,0.4-1.4
		c0-0.6-0.1-1.1-0.4-1.4s-0.6-0.5-1.1-0.5s-0.9,0.2-1.1,0.5C20.1,106,20,106.5,20,107.1z"/>
	<path class="st1" d="M26.1,104.2h1.1l0.1,0.9h0c0.3-0.3,0.6-0.5,0.9-0.7c0.3-0.2,0.7-0.3,1.2-0.3c0.7,0,1.2,0.2,1.5,0.6
		s0.5,1,0.5,1.8v3.6h-1.4v-3.5c0-0.5-0.1-0.8-0.2-1c-0.2-0.2-0.5-0.3-0.9-0.3c-0.3,0-0.5,0.1-0.8,0.2c-0.2,0.1-0.5,0.3-0.7,0.6v4
		h-1.4V104.2z"/>
	<path class="st1" d="M33.7,108.4c0.3,0.2,0.7,0.4,1,0.5c0.4,0.1,0.8,0.2,1.2,0.2c0.5,0,0.8-0.1,1-0.2c0.2-0.1,0.3-0.3,0.3-0.5
		c0-0.2-0.1-0.4-0.4-0.5c-0.3-0.1-0.7-0.3-1.3-0.5c-0.3-0.1-0.6-0.2-0.8-0.3s-0.5-0.2-0.7-0.4c-0.2-0.1-0.4-0.3-0.5-0.5
		c-0.1-0.2-0.2-0.4-0.2-0.6c0-0.5,0.2-0.9,0.7-1.3s1.1-0.5,1.9-0.5c0.5,0,0.9,0.1,1.4,0.2c0.4,0.2,0.8,0.3,1.1,0.5l-0.6,0.9
		c-0.3-0.2-0.5-0.3-0.8-0.4c-0.3-0.1-0.6-0.2-1-0.2c-0.5,0-0.8,0.1-1,0.2c-0.2,0.1-0.3,0.3-0.3,0.5c0,0.1,0,0.2,0.1,0.3
		s0.2,0.2,0.3,0.2s0.3,0.1,0.5,0.2c0.2,0.1,0.4,0.1,0.7,0.2c0.3,0.1,0.7,0.2,0.9,0.3c0.3,0.1,0.5,0.2,0.7,0.4
		c0.2,0.1,0.3,0.3,0.5,0.5c0.1,0.2,0.2,0.4,0.2,0.6c0,0.3-0.1,0.5-0.2,0.7c-0.1,0.2-0.3,0.4-0.5,0.6c-0.2,0.2-0.5,0.3-0.9,0.4
		c-0.3,0.1-0.7,0.1-1.2,0.1c-0.6,0-1.1-0.1-1.6-0.3c-0.5-0.2-0.9-0.4-1.3-0.6L33.7,108.4z"/>
	<path class="st1" d="M41.8,105.3h-1.6v-1l1.6-0.1l0.2-1.6h1.1v1.6h2.7v1.1h-2.7v2.4c0,0.5,0.1,0.8,0.3,1.1c0.2,0.2,0.6,0.3,1.1,0.3
		c0.3,0,0.5,0,0.7-0.1c0.2,0,0.4-0.1,0.6-0.2l0.3,1c-0.3,0.1-0.5,0.2-0.9,0.2c-0.3,0.1-0.7,0.1-1,0.1c-0.4,0-0.8-0.1-1.1-0.2
		c-0.3-0.1-0.5-0.3-0.7-0.5s-0.3-0.5-0.4-0.8c-0.1-0.3-0.1-0.7-0.1-1V105.3z"/>
	<path class="st1" d="M54.7,111.1c0-0.2,0.1-0.5,0.2-0.7c0.2-0.2,0.4-0.4,0.7-0.6v0c-0.2-0.1-0.3-0.2-0.4-0.4
		c-0.1-0.2-0.2-0.4-0.2-0.6c0-0.2,0.1-0.4,0.2-0.6c0.1-0.2,0.3-0.4,0.5-0.5v0c-0.2-0.1-0.4-0.3-0.5-0.6s-0.2-0.6-0.2-0.9
		c0-0.3,0.1-0.6,0.2-0.9c0.1-0.3,0.3-0.5,0.5-0.7c0.2-0.2,0.5-0.3,0.8-0.4c0.3-0.1,0.6-0.1,0.9-0.1c0.4,0,0.7,0,0.9,0.1h2.4v1h-1.4
		c0.1,0.1,0.2,0.3,0.3,0.4s0.1,0.4,0.1,0.6c0,0.3-0.1,0.6-0.2,0.9s-0.3,0.5-0.5,0.6s-0.5,0.3-0.8,0.4s-0.6,0.1-0.9,0.1
		c-0.3,0-0.6-0.1-0.9-0.2c-0.2,0.2-0.4,0.3-0.4,0.5c0,0.4,0.4,0.6,1.1,0.6h1.2c0.8,0,1.3,0.1,1.7,0.3c0.4,0.2,0.6,0.6,0.6,1.1
		c0,0.3-0.1,0.6-0.2,0.8s-0.4,0.5-0.7,0.7c-0.3,0.2-0.6,0.3-1.1,0.4c-0.4,0.1-0.9,0.2-1.4,0.2c-0.4,0-0.8,0-1.1-0.1
		c-0.3-0.1-0.6-0.2-0.8-0.3s-0.4-0.3-0.5-0.5C54.7,111.6,54.7,111.4,54.7,111.1z M55.8,110.9c0,0.3,0.1,0.5,0.4,0.6
		c0.3,0.2,0.7,0.2,1.3,0.2c0.3,0,0.5,0,0.8-0.1s0.4-0.1,0.6-0.2s0.3-0.2,0.4-0.3c0.1-0.1,0.1-0.2,0.1-0.4c0-0.2-0.1-0.4-0.3-0.5
		c-0.2-0.1-0.5-0.1-0.9-0.1h-0.9c-0.2,0-0.4,0-0.5,0s-0.3,0-0.4-0.1c-0.2,0.1-0.4,0.3-0.4,0.4S55.8,110.8,55.8,110.9z M57.4,107.3
		c0.3,0,0.6-0.1,0.8-0.3c0.2-0.2,0.3-0.5,0.3-0.9c0-0.4-0.1-0.6-0.3-0.9c-0.2-0.2-0.5-0.3-0.8-0.3c-0.3,0-0.6,0.1-0.8,0.3
		c-0.2,0.2-0.3,0.5-0.3,0.9c0,0.4,0.1,0.7,0.3,0.9S57.1,107.3,57.4,107.3z"/>
	<path class="st1" d="M61.8,107.1c0-0.5,0.1-0.9,0.2-1.3c0.2-0.4,0.4-0.7,0.7-1c0.3-0.3,0.6-0.5,0.9-0.6c0.4-0.1,0.7-0.2,1.1-0.2
		c0.4,0,0.8,0.1,1.1,0.2c0.4,0.1,0.7,0.3,0.9,0.6c0.3,0.3,0.5,0.6,0.7,1c0.2,0.4,0.2,0.8,0.2,1.3c0,0.5-0.1,0.9-0.2,1.3
		s-0.4,0.7-0.7,1s-0.6,0.5-0.9,0.6c-0.4,0.1-0.7,0.2-1.1,0.2c-0.4,0-0.8-0.1-1.1-0.2c-0.4-0.1-0.7-0.3-0.9-0.6s-0.5-0.6-0.7-1
		S61.8,107.6,61.8,107.1z M63.2,107.1c0,0.6,0.1,1.1,0.4,1.4c0.3,0.4,0.6,0.5,1.1,0.5s0.9-0.2,1.1-0.5c0.3-0.4,0.4-0.8,0.4-1.4
		c0-0.6-0.1-1.1-0.4-1.4s-0.6-0.5-1.1-0.5s-0.9,0.2-1.1,0.5C63.3,106,63.2,106.5,63.2,107.1z"/>
	<path class="st1" d="M69.2,101.6h3.2v6.4c0,0.4,0.1,0.7,0.3,0.8c0.2,0.2,0.5,0.2,0.8,0.2c0.3,0,0.6-0.1,1-0.2l0.3,1
		c-0.3,0.1-0.5,0.2-0.8,0.2s-0.5,0.1-0.9,0.1c-0.7,0-1.2-0.2-1.6-0.6c-0.4-0.4-0.5-1-0.5-1.7v-5.2h-1.9V101.6z"/>
	<path class="st1" d="M76.2,107.1c0-0.5,0.1-0.9,0.2-1.3c0.1-0.4,0.3-0.7,0.6-1c0.2-0.3,0.5-0.5,0.8-0.6c0.3-0.1,0.6-0.2,1-0.2
		c0.4,0,0.7,0.1,0.9,0.2c0.3,0.1,0.5,0.3,0.7,0.5l-0.1-1v-2.1h1.4v8.5h-1.1l-0.1-0.7h0c-0.2,0.2-0.5,0.4-0.8,0.6
		c-0.3,0.2-0.6,0.2-1,0.2c-0.4,0-0.7-0.1-1-0.2c-0.3-0.1-0.6-0.3-0.8-0.6c-0.2-0.3-0.4-0.6-0.5-1C76.2,108,76.2,107.6,76.2,107.1z
		 M77.6,107.1c0,0.6,0.1,1.1,0.4,1.5s0.6,0.5,1.1,0.5c0.5,0,0.9-0.2,1.3-0.7v-2.7c-0.2-0.2-0.4-0.3-0.6-0.4
		c-0.2-0.1-0.4-0.1-0.6-0.1c-0.2,0-0.4,0-0.6,0.1s-0.3,0.2-0.5,0.4c-0.1,0.2-0.2,0.4-0.3,0.6C77.6,106.5,77.6,106.8,77.6,107.1z"/>
	<path class="st1" d="M90.9,104.5h5.3v1h-5.3V104.5z M90.9,107.2h5.3v1h-5.3V107.2z"/>
	<path class="st1" d="M109,102.4c-0.4,0.2-0.7,0.5-0.9,0.8c-0.2,0.3-0.3,0.6-0.4,1c0.1,0,0.2,0,0.3,0c0.3,0,0.5,0.1,0.7,0.3
		c0.2,0.2,0.3,0.4,0.3,0.7c0,0.3-0.1,0.6-0.3,0.8s-0.4,0.3-0.7,0.3c-0.4,0-0.7-0.2-0.9-0.4c-0.2-0.3-0.3-0.7-0.3-1.2
		c0-0.6,0.2-1.2,0.5-1.7c0.3-0.5,0.8-0.9,1.4-1.2L109,102.4z"/>
	<path class="st1" d="M113.4,107.7h-0.9v-0.9h1l0.2-1.5h-1v-0.9h1.1l0.3-2.1h0.8l-0.3,2.1h1.4l0.3-2.1h0.8l-0.3,2.1h0.9v0.9h-1.1
		l-0.2,1.5h1v0.9h-1.1l-0.3,2.3h-0.8l0.3-2.3h-1.4l-0.3,2.3h-0.8L113.4,107.7z M115.7,106.8l0.2-1.5h-1.4l-0.2,1.5H115.7z"/>
	<path class="st1" d="M125.4,102.8c-0.2-0.1-0.4-0.2-0.6-0.2s-0.4-0.1-0.7-0.1c-0.5,0-0.8,0.1-1,0.3c-0.2,0.2-0.3,0.5-0.3,1v0.3h2.2
		v1.1h-2.2v4.8h-1.4v-4.8h-1.6v-1l1.6-0.1v-0.3c0-0.3,0-0.7,0.1-1c0.1-0.3,0.2-0.6,0.5-0.8c0.2-0.2,0.5-0.4,0.8-0.5
		c0.3-0.1,0.7-0.2,1.1-0.2c0.3,0,0.6,0,0.9,0.1s0.6,0.1,0.8,0.2L125.4,102.8z"/>
	<path class="st1" d="M132.6,102.8c-0.2-0.1-0.4-0.2-0.6-0.2s-0.4-0.1-0.7-0.1c-0.5,0-0.8,0.1-1,0.3c-0.2,0.2-0.3,0.5-0.3,1v0.3h2.2
		v1.1H130v4.8h-1.4v-4.8H127v-1l1.6-0.1v-0.3c0-0.3,0-0.7,0.1-1c0.1-0.3,0.2-0.6,0.5-0.8c0.2-0.2,0.5-0.4,0.8-0.5
		c0.3-0.1,0.7-0.2,1.1-0.2c0.3,0,0.6,0,0.9,0.1s0.6,0.1,0.8,0.2L132.6,102.8z"/>
	<path class="st1" d="M133.8,107.1c0-0.5,0.1-0.9,0.2-1.3c0.1-0.4,0.3-0.7,0.6-1c0.2-0.3,0.5-0.5,0.8-0.6c0.3-0.1,0.6-0.2,1-0.2
		c0.4,0,0.7,0.1,0.9,0.2c0.3,0.1,0.5,0.3,0.7,0.5l-0.1-1v-2.1h1.4v8.5h-1.1l-0.1-0.7h0c-0.2,0.2-0.5,0.4-0.8,0.6
		c-0.3,0.2-0.6,0.2-1,0.2c-0.4,0-0.7-0.1-1-0.2c-0.3-0.1-0.6-0.3-0.8-0.6c-0.2-0.3-0.4-0.6-0.5-1C133.8,108,133.8,107.6,133.8,107.1
		z M135.2,107.1c0,0.6,0.1,1.1,0.4,1.5s0.6,0.5,1.1,0.5c0.5,0,0.9-0.2,1.3-0.7v-2.7c-0.2-0.2-0.4-0.3-0.6-0.4
		c-0.2-0.1-0.4-0.1-0.6-0.1c-0.2,0-0.4,0-0.6,0.1s-0.3,0.2-0.5,0.4c-0.1,0.2-0.2,0.4-0.3,0.6C135.2,106.5,135.2,106.8,135.2,107.1z"
		/>
	<path class="st1" d="M143,108.2c0.1-0.6,0.2-1.1,0.4-1.6c0.2-0.5,0.4-1,0.7-1.5s0.6-1,1.1-1.5h-4.1v-1.2h5.6v0.8
		c-0.5,0.6-0.9,1.1-1.2,1.6s-0.6,1-0.7,1.5c-0.2,0.5-0.3,1.1-0.4,1.7c-0.1,0.6-0.1,1.3-0.2,2h-1.4
		C142.9,109.4,142.9,108.8,143,108.2z"/>
	<path class="st1" d="M151.1,110.2c-0.9,0-1.6-0.3-2.1-1c-0.5-0.7-0.8-1.7-0.8-3c0-1.3,0.3-2.3,0.8-2.9c0.5-0.7,1.2-1,2.1-1
		c0.9,0,1.6,0.3,2.1,1c0.5,0.7,0.8,1.6,0.8,2.9c0,1.3-0.3,2.3-0.8,3C152.7,109.9,152,110.2,151.1,110.2z M151.1,103.4
		c-0.2,0-0.4,0-0.6,0.1s-0.4,0.3-0.5,0.5c-0.1,0.2-0.2,0.5-0.3,0.9c-0.1,0.4-0.1,0.8-0.1,1.3c0,0.5,0,1,0.1,1.3
		c0.1,0.4,0.2,0.7,0.3,0.9c0.1,0.2,0.3,0.4,0.5,0.5c0.2,0.1,0.4,0.2,0.6,0.2c0.2,0,0.4-0.1,0.6-0.2c0.2-0.1,0.4-0.3,0.5-0.5
		c0.1-0.2,0.2-0.5,0.3-0.9c0.1-0.4,0.1-0.8,0.1-1.3c0-0.5,0-1-0.1-1.3c-0.1-0.4-0.2-0.7-0.3-0.9c-0.1-0.2-0.3-0.4-0.5-0.5
		C151.6,103.4,151.3,103.4,151.1,103.4z M151.1,107c-0.2,0-0.4-0.1-0.6-0.2c-0.2-0.2-0.2-0.4-0.2-0.6s0.1-0.5,0.2-0.6
		c0.2-0.2,0.4-0.2,0.6-0.2c0.2,0,0.4,0.1,0.6,0.2c0.2,0.2,0.2,0.4,0.2,0.6s-0.1,0.5-0.2,0.6C151.6,106.9,151.4,107,151.1,107z"/>
	<path class="st1" d="M158.3,110.2c-0.9,0-1.6-0.3-2.1-1c-0.5-0.7-0.8-1.7-0.8-3c0-1.3,0.3-2.3,0.8-2.9c0.5-0.7,1.2-1,2.1-1
		c0.9,0,1.6,0.3,2.1,1c0.5,0.7,0.8,1.6,0.8,2.9c0,1.3-0.3,2.3-0.8,3C159.9,109.9,159.2,110.2,158.3,110.2z M158.3,103.4
		c-0.2,0-0.4,0-0.6,0.1s-0.4,0.3-0.5,0.5c-0.1,0.2-0.2,0.5-0.3,0.9c-0.1,0.4-0.1,0.8-0.1,1.3c0,0.5,0,1,0.1,1.3
		c0.1,0.4,0.2,0.7,0.3,0.9c0.1,0.2,0.3,0.4,0.5,0.5c0.2,0.1,0.4,0.2,0.6,0.2c0.2,0,0.4-0.1,0.6-0.2c0.2-0.1,0.4-0.3,0.5-0.5
		c0.1-0.2,0.2-0.5,0.3-0.9c0.1-0.4,0.1-0.8,0.1-1.3c0-0.5,0-1-0.1-1.3c-0.1-0.4-0.2-0.7-0.3-0.9c-0.1-0.2-0.3-0.4-0.5-0.5
		C158.8,103.4,158.5,103.4,158.3,103.4z M158.3,107c-0.2,0-0.4-0.1-0.6-0.2c-0.2-0.2-0.2-0.4-0.2-0.6s0.1-0.5,0.2-0.6
		c0.2-0.2,0.4-0.2,0.6-0.2c0.2,0,0.4,0.1,0.6,0.2c0.2,0.2,0.2,0.4,0.2,0.6s-0.1,0.5-0.2,0.6C158.8,106.9,158.6,107,158.3,107z"/>
	<path class="st1" d="M164.4,105.5c0.4-0.2,0.7-0.5,0.9-0.8c0.2-0.3,0.3-0.6,0.4-1c-0.1,0-0.2,0-0.3,0c-0.3,0-0.5-0.1-0.7-0.3
		s-0.3-0.4-0.3-0.7c0-0.3,0.1-0.6,0.3-0.8c0.2-0.2,0.4-0.3,0.7-0.3c0.4,0,0.7,0.1,0.9,0.5c0.2,0.3,0.3,0.7,0.3,1.2
		c0,0.6-0.2,1.2-0.5,1.7c-0.3,0.5-0.8,0.9-1.4,1.2L164.4,105.5z"/>
	<path class="st1" d="M11.6,120.1c0-0.5,0.1-0.9,0.3-1.3c0.2-0.4,0.4-0.7,0.7-1c0.3-0.3,0.7-0.5,1.1-0.6c0.4-0.1,0.8-0.2,1.3-0.2
		c0.5,0,0.9,0.1,1.3,0.2c0.4,0.2,0.7,0.4,0.9,0.6l-0.7,0.9c-0.2-0.2-0.5-0.3-0.7-0.4s-0.5-0.1-0.8-0.1c-0.6,0-1.1,0.2-1.4,0.5
		c-0.4,0.4-0.6,0.8-0.6,1.4c0,0.3,0,0.6,0.1,0.8c0.1,0.2,0.2,0.4,0.4,0.6c0.2,0.2,0.4,0.3,0.6,0.4c0.2,0.1,0.5,0.1,0.8,0.1
		c0.3,0,0.6-0.1,0.9-0.2c0.3-0.1,0.5-0.3,0.8-0.5l0.6,0.9c-0.3,0.3-0.7,0.5-1.1,0.7c-0.4,0.1-0.8,0.2-1.3,0.2
		c-0.5,0-0.9-0.1-1.3-0.2c-0.4-0.1-0.7-0.3-1-0.6c-0.3-0.3-0.5-0.6-0.7-1C11.7,121,11.6,120.6,11.6,120.1z"/>
	<path class="st1" d="M18.6,120.1c0-0.5,0.1-0.9,0.2-1.3c0.2-0.4,0.4-0.7,0.7-1c0.3-0.3,0.6-0.5,0.9-0.6c0.4-0.1,0.7-0.2,1.1-0.2
		c0.4,0,0.8,0.1,1.1,0.2c0.4,0.1,0.7,0.3,0.9,0.6c0.3,0.3,0.5,0.6,0.7,1c0.2,0.4,0.2,0.8,0.2,1.3c0,0.5-0.1,0.9-0.2,1.3
		s-0.4,0.7-0.7,1s-0.6,0.5-0.9,0.6c-0.4,0.1-0.7,0.2-1.1,0.2c-0.4,0-0.8-0.1-1.1-0.2c-0.4-0.1-0.7-0.3-0.9-0.6s-0.5-0.6-0.7-1
		S18.6,120.6,18.6,120.1z M20,120.1c0,0.6,0.1,1.1,0.4,1.4c0.3,0.4,0.6,0.5,1.1,0.5s0.9-0.2,1.1-0.5c0.3-0.4,0.4-0.8,0.4-1.4
		c0-0.6-0.1-1.1-0.4-1.4s-0.6-0.5-1.1-0.5s-0.9,0.2-1.1,0.5C20.1,119,20,119.5,20,120.1z"/>
	<path class="st1" d="M26.1,117.2h1.1l0.1,0.9h0c0.3-0.3,0.6-0.5,0.9-0.7c0.3-0.2,0.7-0.3,1.2-0.3c0.7,0,1.2,0.2,1.5,0.6
		s0.5,1,0.5,1.8v3.6h-1.4v-3.5c0-0.5-0.1-0.8-0.2-1c-0.2-0.2-0.5-0.3-0.9-0.3c-0.3,0-0.5,0.1-0.8,0.2c-0.2,0.1-0.5,0.3-0.7,0.6v4
		h-1.4V117.2z"/>
	<path class="st1" d="M33.7,121.4c0.3,0.2,0.7,0.4,1,0.5c0.4,0.1,0.8,0.2,1.2,0.2c0.5,0,0.8-0.1,1-0.2c0.2-0.1,0.3-0.3,0.3-0.5
		c0-0.2-0.1-0.4-0.4-0.5c-0.3-0.1-0.7-0.3-1.3-0.5c-0.3-0.1-0.6-0.2-0.8-0.3s-0.5-0.2-0.7-0.4c-0.2-0.1-0.4-0.3-0.5-0.5
		c-0.1-0.2-0.2-0.4-0.2-0.6c0-0.5,0.2-0.9,0.7-1.3s1.1-0.5,1.9-0.5c0.5,0,0.9,0.1,1.4,0.2c0.4,0.2,0.8,0.3,1.1,0.5l-0.6,0.9
		c-0.3-0.2-0.5-0.3-0.8-0.4c-0.3-0.1-0.6-0.2-1-0.2c-0.5,0-0.8,0.1-1,0.2c-0.2,0.1-0.3,0.3-0.3,0.5c0,0.1,0,0.2,0.1,0.3
		s0.2,0.2,0.3,0.2s0.3,0.1,0.5,0.2c0.2,0.1,0.4,0.1,0.7,0.2c0.3,0.1,0.7,0.2,0.9,0.3c0.3,0.1,0.5,0.2,0.7,0.4
		c0.2,0.1,0.3,0.3,0.5,0.5c0.1,0.2,0.2,0.4,0.2,0.6c0,0.3-0.1,0.5-0.2,0.7c-0.1,0.2-0.3,0.4-0.5,0.6c-0.2,0.2-0.5,0.3-0.9,0.4
		c-0.3,0.1-0.7,0.1-1.2,0.1c-0.6,0-1.1-0.1-1.6-0.3c-0.5-0.2-0.9-0.4-1.3-0.6L33.7,121.4z"/>
	<path class="st1" d="M41.8,118.3h-1.6v-1l1.6-0.1l0.2-1.6h1.1v1.6h2.7v1.1h-2.7v2.4c0,0.5,0.1,0.8,0.3,1.1c0.2,0.2,0.6,0.3,1.1,0.3
		c0.3,0,0.5,0,0.7-0.1c0.2,0,0.4-0.1,0.6-0.2l0.3,1c-0.3,0.1-0.5,0.2-0.9,0.2c-0.3,0.1-0.7,0.1-1,0.1c-0.4,0-0.8-0.1-1.1-0.2
		c-0.3-0.1-0.5-0.3-0.7-0.5s-0.3-0.5-0.4-0.8c-0.1-0.3-0.1-0.7-0.1-1V118.3z"/>
	<path class="st1" d="M60.1,123.1H59l-0.1-0.9h0c-0.3,0.3-0.6,0.6-0.9,0.8c-0.3,0.2-0.7,0.3-1.2,0.3c-0.7,0-1.2-0.2-1.5-0.6
		c-0.3-0.4-0.5-1-0.5-1.8v-3.6h1.4v3.5c0,0.5,0.1,0.8,0.2,1s0.5,0.3,0.9,0.3c0.3,0,0.5-0.1,0.8-0.2c0.2-0.1,0.5-0.4,0.7-0.7v-4h1.4
		V123.1z"/>
	<path class="st1" d="M62.5,121.4c0.3,0.2,0.7,0.4,1,0.5c0.4,0.1,0.8,0.2,1.2,0.2c0.5,0,0.8-0.1,1-0.2c0.2-0.1,0.3-0.3,0.3-0.5
		c0-0.2-0.1-0.4-0.4-0.5c-0.3-0.1-0.7-0.3-1.3-0.5c-0.3-0.1-0.6-0.2-0.8-0.3s-0.5-0.2-0.7-0.4c-0.2-0.1-0.4-0.3-0.5-0.5
		c-0.1-0.2-0.2-0.4-0.2-0.6c0-0.5,0.2-0.9,0.7-1.3s1.1-0.5,1.9-0.5c0.5,0,0.9,0.1,1.4,0.2c0.4,0.2,0.8,0.3,1.1,0.5l-0.6,0.9
		c-0.3-0.2-0.5-0.3-0.8-0.4c-0.3-0.1-0.6-0.2-1-0.2c-0.5,0-0.8,0.1-1,0.2c-0.2,0.1-0.3,0.3-0.3,0.5c0,0.1,0,0.2,0.1,0.3
		s0.2,0.2,0.3,0.2s0.3,0.1,0.5,0.2c0.2,0.1,0.4,0.1,0.7,0.2c0.3,0.1,0.7,0.2,0.9,0.3c0.3,0.1,0.5,0.2,0.7,0.4
		c0.2,0.1,0.3,0.3,0.5,0.5c0.1,0.2,0.2,0.4,0.2,0.6c0,0.3-0.1,0.5-0.2,0.7c-0.1,0.2-0.3,0.4-0.5,0.6c-0.2,0.2-0.5,0.3-0.9,0.4
		c-0.3,0.1-0.7,0.1-1.2,0.1c-0.6,0-1.1-0.1-1.6-0.3c-0.5-0.2-0.9-0.4-1.3-0.6L62.5,121.4z"/>
	<path class="st1" d="M69.1,120.1c0-0.5,0.1-0.9,0.3-1.3c0.2-0.4,0.4-0.7,0.7-1c0.3-0.3,0.6-0.5,1-0.6c0.4-0.1,0.7-0.2,1.1-0.2
		c0.4,0,0.8,0.1,1.2,0.2c0.3,0.1,0.6,0.3,0.9,0.6s0.4,0.5,0.5,0.9c0.1,0.3,0.2,0.7,0.2,1.1c0,0.1,0,0.3,0,0.4c0,0.1,0,0.2,0,0.3
		h-4.3c0.1,0.5,0.3,0.9,0.6,1.2c0.4,0.3,0.8,0.4,1.3,0.4c0.3,0,0.6,0,0.9-0.1c0.3-0.1,0.5-0.2,0.8-0.4l0.5,0.9
		c-0.3,0.2-0.7,0.4-1.1,0.5s-0.8,0.2-1.2,0.2c-0.4,0-0.9-0.1-1.3-0.2c-0.4-0.1-0.7-0.3-1-0.6c-0.3-0.3-0.5-0.6-0.7-1
		C69.2,121,69.1,120.6,69.1,120.1z M73.6,119.6c0-0.5-0.1-0.8-0.4-1.1c-0.2-0.3-0.6-0.4-1.1-0.4c-0.2,0-0.4,0-0.6,0.1
		s-0.4,0.2-0.5,0.3s-0.3,0.3-0.4,0.5c-0.1,0.2-0.2,0.4-0.2,0.6H73.6z"/>
	<path class="st1" d="M77.1,117.2h1.1l0.1,1.3h0c0.3-0.5,0.7-0.8,1.1-1.1c0.4-0.3,0.9-0.4,1.4-0.4c0.2,0,0.4,0,0.6,0.1
		c0.2,0,0.3,0.1,0.5,0.2l-0.3,1.2c-0.2-0.1-0.4-0.1-0.5-0.1c-0.1,0-0.3,0-0.6,0c-0.4,0-0.8,0.1-1.2,0.3c-0.4,0.2-0.7,0.6-1,1.2v3.3
		h-1.4V117.2z"/>
	<path class="st1" d="M90.9,117.5h5.3v1h-5.3V117.5z M90.9,120.2h5.3v1h-5.3V120.2z"/>
	<path class="st1" d="M105.2,121.5c0-0.3,0.1-0.6,0.2-0.9c0.2-0.3,0.4-0.5,0.7-0.6s0.7-0.3,1.3-0.4c0.5-0.1,1.1-0.2,1.9-0.2
		c0-0.3-0.1-0.6-0.4-0.8c-0.2-0.2-0.6-0.3-1-0.3c-0.3,0-0.7,0.1-1,0.2c-0.3,0.1-0.6,0.3-0.9,0.4l-0.5-0.9c0.4-0.2,0.8-0.4,1.2-0.6
		s0.9-0.3,1.5-0.3c0.8,0,1.5,0.2,1.9,0.7c0.4,0.4,0.6,1.1,0.6,1.9v3.5h-1.1l-0.1-0.7h0c-0.3,0.2-0.7,0.4-1,0.6
		c-0.4,0.2-0.8,0.3-1.2,0.3c-0.3,0-0.6,0-0.8-0.1c-0.2-0.1-0.4-0.2-0.6-0.4c-0.2-0.2-0.3-0.3-0.4-0.5
		C105.2,122,105.2,121.7,105.2,121.5z M106.5,121.4c0,0.3,0.1,0.5,0.3,0.6c0.2,0.1,0.5,0.2,0.8,0.2c0.3,0,0.6-0.1,0.9-0.2
		c0.3-0.1,0.5-0.3,0.8-0.5v-1.2c-0.5,0-1,0.1-1.3,0.2s-0.6,0.2-0.8,0.3c-0.2,0.1-0.4,0.2-0.4,0.4S106.5,121.2,106.5,121.4z"/>
	<path class="st1" d="M112.6,114.6h1.4v5.3l0,0l2.7-2.7h1.5l-2.3,2.4l2.5,3.5H117l-1.8-2.6l-1.1,1.1v1.5h-1.4V114.6z"/>
	<path class="st1" d="M119.8,114.6h1.4v5.3l0,0l2.7-2.7h1.5l-2.3,2.4l2.5,3.5h-1.5l-1.8-2.6l-1.1,1.1v1.5h-1.4V114.6z"/>
	<path class="st1" d="M126.7,120.1c0-0.5,0.1-0.9,0.3-1.3c0.2-0.4,0.4-0.7,0.7-1c0.3-0.3,0.6-0.5,1-0.6c0.4-0.1,0.7-0.2,1.1-0.2
		c0.4,0,0.8,0.1,1.2,0.2c0.3,0.1,0.6,0.3,0.9,0.6s0.4,0.5,0.5,0.9c0.1,0.3,0.2,0.7,0.2,1.1c0,0.1,0,0.3,0,0.4c0,0.1,0,0.2,0,0.3
		h-4.3c0.1,0.5,0.3,0.9,0.6,1.2c0.4,0.3,0.8,0.4,1.3,0.4c0.3,0,0.6,0,0.9-0.1c0.3-0.1,0.5-0.2,0.8-0.4l0.5,0.9
		c-0.3,0.2-0.7,0.4-1.1,0.5s-0.8,0.2-1.2,0.2c-0.4,0-0.9-0.1-1.3-0.2c-0.4-0.1-0.7-0.3-1-0.6c-0.3-0.3-0.5-0.6-0.7-1
		C126.8,121,126.7,120.6,126.7,120.1z M131.2,119.6c0-0.5-0.1-0.8-0.4-1.1c-0.2-0.3-0.6-0.4-1.1-0.4c-0.2,0-0.4,0-0.6,0.1
		s-0.4,0.2-0.5,0.3s-0.3,0.3-0.4,0.5c-0.1,0.2-0.2,0.4-0.2,0.6H131.2z"/>
	<path class="st1" d="M134.4,124.3c0.1,0,0.2,0,0.3,0c0.4,0,0.7-0.1,0.9-0.3c0.2-0.2,0.4-0.4,0.5-0.7l0.1-0.4l-2.6-5.8h1.4l1.2,2.9
		c0.1,0.3,0.2,0.5,0.3,0.8c0.1,0.3,0.2,0.6,0.3,0.9h0c0.1-0.3,0.2-0.6,0.3-0.9c0.1-0.3,0.2-0.6,0.3-0.9l1.1-2.9h1.3l-2.5,6.2
		c-0.1,0.3-0.3,0.6-0.4,0.9c-0.2,0.3-0.3,0.5-0.5,0.7s-0.4,0.3-0.7,0.4c-0.3,0.1-0.6,0.2-0.9,0.2c-0.2,0-0.3,0-0.5,0
		c-0.1,0-0.3-0.1-0.4-0.1l0.3-1.1C134.3,124.3,134.4,124.3,134.4,124.3z"/>
	<path class="st1" d="M142.7,122c0-0.4,0.1-0.6,0.3-0.9c0.2-0.2,0.5-0.3,0.9-0.3c0.3,0,0.6,0.1,0.9,0.3c0.2,0.2,0.3,0.5,0.3,0.9
		c0,0.4-0.1,0.6-0.3,0.9c-0.2,0.2-0.5,0.3-0.9,0.3c-0.3,0-0.6-0.1-0.9-0.3C142.8,122.6,142.7,122.3,142.7,122z"/>
	<path class="st1" d="M148.2,120.1c0-0.5,0.1-0.9,0.2-1.3c0.1-0.4,0.3-0.7,0.6-1c0.2-0.3,0.5-0.5,0.8-0.6c0.3-0.1,0.6-0.2,1-0.2
		c0.4,0,0.7,0.1,0.9,0.2c0.3,0.1,0.5,0.3,0.7,0.5l-0.1-1v-2.1h1.4v8.5h-1.1l-0.1-0.7h0c-0.2,0.2-0.5,0.4-0.8,0.6
		c-0.3,0.2-0.6,0.2-1,0.2c-0.4,0-0.7-0.1-1-0.2c-0.3-0.1-0.6-0.3-0.8-0.6c-0.2-0.3-0.4-0.6-0.5-1C148.2,121,148.2,120.6,148.2,120.1
		z M149.6,120.1c0,0.6,0.1,1.1,0.4,1.5s0.6,0.5,1.1,0.5c0.5,0,0.9-0.2,1.3-0.7v-2.7c-0.2-0.2-0.4-0.3-0.6-0.4
		c-0.2-0.1-0.4-0.1-0.6-0.1c-0.2,0-0.4,0-0.6,0.1s-0.3,0.2-0.5,0.4c-0.1,0.2-0.2,0.4-0.3,0.6C149.6,119.5,149.6,119.8,149.6,120.1z"
		/>
	<path class="st1" d="M155.6,121.5c0-0.3,0.1-0.6,0.2-0.9c0.2-0.3,0.4-0.5,0.7-0.6s0.7-0.3,1.3-0.4c0.5-0.1,1.1-0.2,1.9-0.2
		c0-0.3-0.1-0.6-0.4-0.8c-0.2-0.2-0.6-0.3-1-0.3c-0.3,0-0.7,0.1-1,0.2c-0.3,0.1-0.6,0.3-0.9,0.4l-0.5-0.9c0.4-0.2,0.8-0.4,1.2-0.6
		s0.9-0.3,1.5-0.3c0.8,0,1.5,0.2,1.9,0.7c0.4,0.4,0.6,1.1,0.6,1.9v3.5h-1.1l-0.1-0.7h0c-0.3,0.2-0.7,0.4-1,0.6
		c-0.4,0.2-0.8,0.3-1.2,0.3c-0.3,0-0.6,0-0.8-0.1c-0.2-0.1-0.4-0.2-0.6-0.4c-0.2-0.2-0.3-0.3-0.4-0.5
		C155.6,122,155.6,121.7,155.6,121.5z M156.9,121.4c0,0.3,0.1,0.5,0.3,0.6c0.2,0.1,0.5,0.2,0.8,0.2c0.3,0,0.6-0.1,0.9-0.2
		c0.3-0.1,0.5-0.3,0.8-0.5v-1.2c-0.5,0-1,0.1-1.3,0.2s-0.6,0.2-0.8,0.3c-0.2,0.1-0.4,0.2-0.4,0.4S156.9,121.2,156.9,121.4z"/>
	<path class="st1" d="M164.2,118.3h-1.6v-1l1.6-0.1l0.2-1.6h1.1v1.6h2.7v1.1h-2.7v2.4c0,0.5,0.1,0.8,0.3,1.1
		c0.2,0.2,0.6,0.3,1.1,0.3c0.3,0,0.5,0,0.7-0.1c0.2,0,0.4-0.1,0.6-0.2l0.3,1c-0.3,0.1-0.5,0.2-0.9,0.2c-0.3,0.1-0.7,0.1-1,0.1
		c-0.4,0-0.8-0.1-1.1-0.2c-0.3-0.1-0.5-0.3-0.7-0.5s-0.3-0.5-0.4-0.8c-0.1-0.3-0.1-0.7-0.1-1V118.3z"/>
	<path class="st1" d="M170,121.5c0-0.3,0.1-0.6,0.2-0.9c0.2-0.3,0.4-0.5,0.7-0.6s0.7-0.3,1.3-0.4c0.5-0.1,1.1-0.2,1.9-0.2
		c0-0.3-0.1-0.6-0.4-0.8c-0.2-0.2-0.6-0.3-1-0.3c-0.3,0-0.7,0.1-1,0.2c-0.3,0.1-0.6,0.3-0.9,0.4l-0.5-0.9c0.4-0.2,0.8-0.4,1.2-0.6
		s0.9-0.3,1.5-0.3c0.8,0,1.5,0.2,1.9,0.7c0.4,0.4,0.6,1.1,0.6,1.9v3.5h-1.1l-0.1-0.7h0c-0.3,0.2-0.7,0.4-1,0.6
		c-0.4,0.2-0.8,0.3-1.2,0.3c-0.3,0-0.6,0-0.8-0.1c-0.2-0.1-0.4-0.2-0.6-0.4c-0.2-0.2-0.3-0.3-0.4-0.5C170,122,170,121.7,170,121.5z
		 M171.3,121.4c0,0.3,0.1,0.5,0.3,0.6c0.2,0.1,0.5,0.2,0.8,0.2c0.3,0,0.6-0.1,0.9-0.2c0.3-0.1,0.5-0.3,0.8-0.5v-1.2
		c-0.5,0-1,0.1-1.3,0.2s-0.6,0.2-0.8,0.3c-0.2,0.1-0.4,0.2-0.4,0.4S171.3,121.2,171.3,121.4z"/>
	<path class="st1" d="M11.6,146.1c0-0.5,0.1-0.9,0.3-1.3c0.2-0.4,0.4-0.7,0.7-1c0.3-0.3,0.7-0.5,1.1-0.6c0.4-0.1,0.8-0.2,1.3-0.2
		c0.5,0,0.9,0.1,1.3,0.2c0.4,0.2,0.7,0.4,0.9,0.6l-0.7,0.9c-0.2-0.2-0.5-0.3-0.7-0.4s-0.5-0.1-0.8-0.1c-0.6,0-1.1,0.2-1.4,0.5
		c-0.4,0.4-0.6,0.8-0.6,1.4c0,0.3,0,0.6,0.1,0.8c0.1,0.2,0.2,0.4,0.4,0.6c0.2,0.2,0.4,0.3,0.6,0.4c0.2,0.1,0.5,0.1,0.8,0.1
		c0.3,0,0.6-0.1,0.9-0.2c0.3-0.1,0.5-0.3,0.8-0.5l0.6,0.9c-0.3,0.3-0.7,0.5-1.1,0.7c-0.4,0.1-0.8,0.2-1.3,0.2
		c-0.5,0-0.9-0.1-1.3-0.2c-0.4-0.1-0.7-0.3-1-0.6c-0.3-0.3-0.5-0.6-0.7-1C11.7,147,11.6,146.6,11.6,146.1z"/>
	<path class="st1" d="M18.6,146.1c0-0.5,0.1-0.9,0.2-1.3c0.2-0.4,0.4-0.7,0.7-1c0.3-0.3,0.6-0.5,0.9-0.6c0.4-0.1,0.7-0.2,1.1-0.2
		c0.4,0,0.8,0.1,1.1,0.2c0.4,0.1,0.7,0.3,0.9,0.6c0.3,0.3,0.5,0.6,0.7,1c0.2,0.4,0.2,0.8,0.2,1.3c0,0.5-0.1,0.9-0.2,1.3
		s-0.4,0.7-0.7,1s-0.6,0.5-0.9,0.6c-0.4,0.1-0.7,0.2-1.1,0.2c-0.4,0-0.8-0.1-1.1-0.2c-0.4-0.1-0.7-0.3-0.9-0.6s-0.5-0.6-0.7-1
		S18.6,146.6,18.6,146.1z M20,146.1c0,0.6,0.1,1.1,0.4,1.4c0.3,0.4,0.6,0.5,1.1,0.5s0.9-0.2,1.1-0.5c0.3-0.4,0.4-0.8,0.4-1.4
		c0-0.6-0.1-1.1-0.4-1.4s-0.6-0.5-1.1-0.5s-0.9,0.2-1.1,0.5C20.1,145,20,145.5,20,146.1z"/>
	<path class="st1" d="M26.1,143.2h1.1l0.1,0.9h0c0.3-0.3,0.6-0.5,0.9-0.7c0.3-0.2,0.7-0.3,1.2-0.3c0.7,0,1.2,0.2,1.5,0.6
		s0.5,1,0.5,1.8v3.6h-1.4v-3.5c0-0.5-0.1-0.8-0.2-1c-0.2-0.2-0.5-0.3-0.9-0.3c-0.3,0-0.5,0.1-0.8,0.2c-0.2,0.1-0.5,0.3-0.7,0.6v4
		h-1.4V143.2z"/>
	<path class="st1" d="M33.7,147.4c0.3,0.2,0.7,0.4,1,0.5c0.4,0.1,0.8,0.2,1.2,0.2c0.5,0,0.8-0.1,1-0.2c0.2-0.1,0.3-0.3,0.3-0.5
		c0-0.2-0.1-0.4-0.4-0.5c-0.3-0.1-0.7-0.3-1.3-0.5c-0.3-0.1-0.6-0.2-0.8-0.3s-0.5-0.2-0.7-0.4c-0.2-0.1-0.4-0.3-0.5-0.5
		c-0.1-0.2-0.2-0.4-0.2-0.6c0-0.5,0.2-0.9,0.7-1.3s1.1-0.5,1.9-0.5c0.5,0,0.9,0.1,1.4,0.2c0.4,0.2,0.8,0.3,1.1,0.5l-0.6,0.9
		c-0.3-0.2-0.5-0.3-0.8-0.4c-0.3-0.1-0.6-0.2-1-0.2c-0.5,0-0.8,0.1-1,0.2c-0.2,0.1-0.3,0.3-0.3,0.5c0,0.1,0,0.2,0.1,0.3
		s0.2,0.2,0.3,0.2s0.3,0.1,0.5,0.2c0.2,0.1,0.4,0.1,0.7,0.2c0.3,0.1,0.7,0.2,0.9,0.3c0.3,0.1,0.5,0.2,0.7,0.4
		c0.2,0.1,0.3,0.3,0.5,0.5c0.1,0.2,0.2,0.4,0.2,0.6c0,0.3-0.1,0.5-0.2,0.7c-0.1,0.2-0.3,0.4-0.5,0.6c-0.2,0.2-0.5,0.3-0.9,0.4
		c-0.3,0.1-0.7,0.1-1.2,0.1c-0.6,0-1.1-0.1-1.6-0.3c-0.5-0.2-0.9-0.4-1.3-0.6L33.7,147.4z"/>
	<path class="st1" d="M41.8,144.3h-1.6v-1l1.6-0.1l0.2-1.6h1.1v1.6h2.7v1.1h-2.7v2.4c0,0.5,0.1,0.8,0.3,1.1c0.2,0.2,0.6,0.3,1.1,0.3
		c0.3,0,0.5,0,0.7-0.1c0.2,0,0.4-0.1,0.6-0.2l0.3,1c-0.3,0.1-0.5,0.2-0.9,0.2c-0.3,0.1-0.7,0.1-1,0.1c-0.4,0-0.8-0.1-1.1-0.2
		c-0.3-0.1-0.5-0.3-0.7-0.5s-0.3-0.5-0.4-0.8c-0.1-0.3-0.1-0.7-0.1-1V144.3z"/>
	<path class="st1" d="M55,141.2h2.3c0.4,0,0.8,0,1.1,0.1c0.3,0.1,0.6,0.2,0.9,0.3s0.4,0.3,0.6,0.6s0.2,0.6,0.2,0.9
		c0,0.4-0.1,0.7-0.3,1c-0.2,0.3-0.6,0.5-1,0.7v0c0.6,0.1,1,0.3,1.3,0.6c0.3,0.3,0.4,0.7,0.4,1.3c0,0.4-0.1,0.7-0.2,1
		c-0.1,0.3-0.4,0.5-0.6,0.7c-0.3,0.2-0.6,0.3-0.9,0.4c-0.4,0.1-0.8,0.1-1.2,0.1H55V141.2z M57.2,144.5c0.6,0,0.9-0.1,1.2-0.3
		c0.2-0.2,0.4-0.5,0.4-0.9c0-0.4-0.1-0.6-0.4-0.8c-0.3-0.2-0.6-0.2-1.1-0.2h-0.8v2.2H57.2z M57.4,148c0.6,0,1-0.1,1.3-0.3
		c0.3-0.2,0.5-0.5,0.5-1c0-0.8-0.6-1.2-1.8-1.2h-1v2.5H57.4z"/>
	<path class="st1" d="M69.3,143.5h5.3v1h-5.3V143.5z M69.3,146.2h5.3v1h-5.3V146.2z"/>
	<path class="st1" d="M88.9,149.1h-1.1l-0.1-0.9h0c-0.3,0.3-0.6,0.6-0.9,0.8c-0.3,0.2-0.7,0.3-1.2,0.3c-0.7,0-1.2-0.2-1.5-0.6
		c-0.3-0.4-0.5-1-0.5-1.8v-3.6h1.4v3.5c0,0.5,0.1,0.8,0.2,1s0.5,0.3,0.9,0.3c0.3,0,0.5-0.1,0.8-0.2c0.2-0.1,0.5-0.4,0.7-0.7v-4h1.4
		V149.1z"/>
	<path class="st1" d="M91.3,147.4c0.3,0.2,0.7,0.4,1,0.5c0.4,0.1,0.8,0.2,1.2,0.2c0.5,0,0.8-0.1,1-0.2c0.2-0.1,0.3-0.3,0.3-0.5
		c0-0.2-0.1-0.4-0.4-0.5c-0.3-0.1-0.7-0.3-1.3-0.5c-0.3-0.1-0.6-0.2-0.8-0.3s-0.5-0.2-0.7-0.4c-0.2-0.1-0.4-0.3-0.5-0.5
		c-0.1-0.2-0.2-0.4-0.2-0.6c0-0.5,0.2-0.9,0.7-1.3s1.1-0.5,1.9-0.5c0.5,0,0.9,0.1,1.4,0.2c0.4,0.2,0.8,0.3,1.1,0.5l-0.6,0.9
		c-0.3-0.2-0.5-0.3-0.8-0.4c-0.3-0.1-0.6-0.2-1-0.2c-0.5,0-0.8,0.1-1,0.2c-0.2,0.1-0.3,0.3-0.3,0.5c0,0.1,0,0.2,0.1,0.3
		s0.2,0.2,0.3,0.2s0.3,0.1,0.5,0.2c0.2,0.1,0.4,0.1,0.7,0.2c0.3,0.1,0.7,0.2,0.9,0.3c0.3,0.1,0.5,0.2,0.7,0.4
		c0.2,0.1,0.3,0.3,0.5,0.5c0.1,0.2,0.2,0.4,0.2,0.6c0,0.3-0.1,0.5-0.2,0.7c-0.1,0.2-0.3,0.4-0.5,0.6c-0.2,0.2-0.5,0.3-0.9,0.4
		c-0.3,0.1-0.7,0.1-1.2,0.1c-0.6,0-1.1-0.1-1.6-0.3c-0.5-0.2-0.9-0.4-1.3-0.6L91.3,147.4z"/>
	<path class="st1" d="M97.9,146.1c0-0.5,0.1-0.9,0.3-1.3c0.2-0.4,0.4-0.7,0.7-1c0.3-0.3,0.6-0.5,1-0.6c0.4-0.1,0.7-0.2,1.1-0.2
		c0.4,0,0.8,0.1,1.2,0.2c0.3,0.1,0.6,0.3,0.9,0.6s0.4,0.5,0.5,0.9c0.1,0.3,0.2,0.7,0.2,1.1c0,0.1,0,0.3,0,0.4c0,0.1,0,0.2,0,0.3
		h-4.3c0.1,0.5,0.3,0.9,0.6,1.2c0.4,0.3,0.8,0.4,1.3,0.4c0.3,0,0.6,0,0.9-0.1c0.3-0.1,0.5-0.2,0.8-0.4l0.5,0.9
		c-0.3,0.2-0.7,0.4-1.1,0.5s-0.8,0.2-1.2,0.2c-0.4,0-0.9-0.1-1.3-0.2c-0.4-0.1-0.7-0.3-1-0.6c-0.3-0.3-0.5-0.6-0.7-1
		C98,147,97.9,146.6,97.9,146.1z M102.4,145.6c0-0.5-0.1-0.8-0.4-1.1c-0.2-0.3-0.6-0.4-1.1-0.4c-0.2,0-0.4,0-0.6,0.1
		s-0.4,0.2-0.5,0.3s-0.3,0.3-0.4,0.5c-0.1,0.2-0.2,0.4-0.2,0.6H102.4z"/>
	<path class="st1" d="M105.9,143.2h1.1l0.1,1.3h0c0.3-0.5,0.7-0.8,1.1-1.1c0.4-0.3,0.9-0.4,1.4-0.4c0.2,0,0.4,0,0.6,0.1
		c0.2,0,0.3,0.1,0.5,0.2l-0.3,1.2c-0.2-0.1-0.4-0.1-0.5-0.1c-0.1,0-0.3,0-0.6,0c-0.4,0-0.8,0.1-1.2,0.3c-0.4,0.2-0.7,0.6-1,1.2v3.3
		h-1.4V143.2z"/>
	<path class="st1" d="M113.9,148c0-0.4,0.1-0.6,0.3-0.9c0.2-0.2,0.5-0.3,0.9-0.3c0.3,0,0.6,0.1,0.9,0.3c0.2,0.2,0.3,0.5,0.3,0.9
		c0,0.4-0.1,0.6-0.3,0.9c-0.2,0.2-0.5,0.3-0.9,0.3c-0.3,0-0.6-0.1-0.9-0.3C114,148.6,113.9,148.3,113.9,148z"/>
	<path class="st1" d="M121.1,149.5v1.8h-1.4v-8.2h1.1l0.1,0.7h0c0.3-0.2,0.5-0.4,0.9-0.6c0.3-0.2,0.7-0.2,1-0.2c0.4,0,0.7,0.1,1,0.2
		c0.3,0.1,0.6,0.3,0.8,0.6c0.2,0.3,0.4,0.6,0.5,0.9c0.1,0.4,0.2,0.8,0.2,1.2c0,0.5-0.1,1-0.2,1.4c-0.1,0.4-0.3,0.7-0.6,1
		c-0.2,0.3-0.5,0.5-0.8,0.6c-0.3,0.1-0.6,0.2-1,0.2c-0.3,0-0.6-0.1-0.8-0.2c-0.3-0.1-0.5-0.3-0.8-0.5L121.1,149.5z M121.1,147.5
		c0.2,0.2,0.4,0.3,0.7,0.4c0.2,0.1,0.4,0.1,0.6,0.1c0.4,0,0.8-0.2,1.1-0.5c0.3-0.3,0.4-0.8,0.4-1.5c0-0.6-0.1-1.1-0.3-1.4
		s-0.6-0.5-1-0.5c-0.2,0-0.5,0.1-0.7,0.2c-0.2,0.1-0.5,0.3-0.7,0.5V147.5z"/>
	<path class="st1" d="M132.1,149.1H131l-0.1-0.9h0c-0.3,0.3-0.6,0.6-0.9,0.8c-0.3,0.2-0.7,0.3-1.2,0.3c-0.7,0-1.2-0.2-1.5-0.6
		c-0.3-0.4-0.5-1-0.5-1.8v-3.6h1.4v3.5c0,0.5,0.1,0.8,0.2,1s0.5,0.3,0.9,0.3c0.3,0,0.5-0.1,0.8-0.2c0.2-0.1,0.5-0.4,0.7-0.7v-4h1.4
		V149.1z"/>
	<path class="st1" d="M134.5,147.4c0.3,0.2,0.7,0.4,1,0.5c0.4,0.1,0.8,0.2,1.2,0.2c0.5,0,0.8-0.1,1-0.2c0.2-0.1,0.3-0.3,0.3-0.5
		c0-0.2-0.1-0.4-0.4-0.5c-0.3-0.1-0.7-0.3-1.3-0.5c-0.3-0.1-0.6-0.2-0.8-0.3s-0.5-0.2-0.7-0.4c-0.2-0.1-0.4-0.3-0.5-0.5
		c-0.1-0.2-0.2-0.4-0.2-0.6c0-0.5,0.2-0.9,0.7-1.3s1.1-0.5,1.9-0.5c0.5,0,0.9,0.1,1.4,0.2c0.4,0.2,0.8,0.3,1.1,0.5l-0.6,0.9
		c-0.3-0.2-0.5-0.3-0.8-0.4c-0.3-0.1-0.6-0.2-1-0.2c-0.5,0-0.8,0.1-1,0.2c-0.2,0.1-0.3,0.3-0.3,0.5c0,0.1,0,0.2,0.1,0.3
		s0.2,0.2,0.3,0.2s0.3,0.1,0.5,0.2c0.2,0.1,0.4,0.1,0.7,0.2c0.3,0.1,0.7,0.2,0.9,0.3c0.3,0.1,0.5,0.2,0.7,0.4
		c0.2,0.1,0.3,0.3,0.5,0.5c0.1,0.2,0.2,0.4,0.2,0.6c0,0.3-0.1,0.5-0.2,0.7c-0.1,0.2-0.3,0.4-0.5,0.6c-0.2,0.2-0.5,0.3-0.9,0.4
		c-0.3,0.1-0.7,0.1-1.2,0.1c-0.6,0-1.1-0.1-1.6-0.3c-0.5-0.2-0.9-0.4-1.3-0.6L134.5,147.4z"/>
	<path class="st1" d="M141.3,140.6h1.4v2.2l-0.1,1.3c0.3-0.3,0.6-0.5,0.9-0.7c0.3-0.2,0.7-0.3,1.2-0.3c0.7,0,1.2,0.2,1.5,0.6
		s0.5,1,0.5,1.8v3.6h-1.4v-3.5c0-0.5-0.1-0.8-0.2-1c-0.2-0.2-0.5-0.3-0.9-0.3c-0.3,0-0.5,0.1-0.8,0.2c-0.2,0.1-0.5,0.3-0.7,0.6v4
		h-1.4V140.6z"/>
	<path class="st1" d="M150.6,148.8c-0.5-0.9-0.7-1.9-0.7-3.1s0.2-2.2,0.7-3.1c0.5-0.9,1.1-1.7,1.9-2.4l0.8,0.6
		c-0.8,0.7-1.3,1.4-1.7,2.2s-0.5,1.7-0.5,2.6s0.2,1.9,0.5,2.6s0.9,1.5,1.7,2.2l-0.8,0.6C151.7,150.5,151,149.7,150.6,148.8z"/>
	<path class="st1" d="M158.3,149.2c-0.5,0-0.9-0.1-1.3-0.3c-0.4-0.2-0.7-0.5-1-0.8s-0.5-0.8-0.6-1.3c-0.2-0.5-0.2-1.1-0.2-1.7
		c0-0.6,0.1-1.2,0.2-1.7c0.2-0.5,0.4-0.9,0.6-1.3s0.6-0.6,1-0.8c0.4-0.2,0.8-0.3,1.3-0.3s0.9,0.1,1.3,0.3s0.7,0.4,1,0.8
		c0.3,0.3,0.5,0.8,0.6,1.3c0.2,0.5,0.2,1.1,0.2,1.7c0,0.6-0.1,1.2-0.2,1.7c-0.2,0.5-0.4,0.9-0.6,1.3c-0.3,0.4-0.6,0.6-1,0.8
		C159.2,149.1,158.8,149.2,158.3,149.2z M158.3,148c0.2,0,0.5-0.1,0.7-0.2c0.2-0.1,0.4-0.3,0.5-0.6s0.3-0.6,0.3-0.9
		c0.1-0.4,0.1-0.8,0.1-1.2c0-0.9-0.1-1.6-0.4-2.1c-0.3-0.5-0.7-0.8-1.2-0.8s-0.9,0.2-1.2,0.8s-0.5,1.2-0.5,2.1c0,0.4,0,0.8,0.1,1.2
		c0.1,0.4,0.2,0.7,0.3,0.9s0.3,0.4,0.5,0.6C157.8,147.9,158.1,148,158.3,148z"/>
	<path class="st1" d="M162.9,140.6h1.4v2.2l0,1c0.3-0.2,0.5-0.4,0.9-0.6c0.3-0.1,0.6-0.2,1-0.2c0.4,0,0.7,0.1,1,0.2
		c0.3,0.1,0.5,0.3,0.8,0.6c0.2,0.3,0.4,0.6,0.5,0.9s0.2,0.8,0.2,1.2c0,0.5-0.1,1-0.2,1.3c-0.1,0.4-0.3,0.7-0.6,1
		c-0.2,0.3-0.5,0.5-0.8,0.6c-0.3,0.1-0.6,0.2-1,0.2c-0.3,0-0.6-0.1-0.9-0.2c-0.3-0.1-0.6-0.3-0.8-0.6h0l-0.1,0.6h-1.1V140.6z
		 M164.3,147.5c0.2,0.2,0.4,0.3,0.7,0.4c0.2,0.1,0.4,0.1,0.6,0.1c0.4,0,0.8-0.2,1-0.5c0.3-0.3,0.4-0.8,0.4-1.5
		c0-0.6-0.1-1.1-0.3-1.4s-0.6-0.5-1-0.5c-0.2,0-0.5,0.1-0.7,0.2c-0.2,0.1-0.5,0.3-0.7,0.5V147.5z"/>
	<path class="st1" d="M170.1,143.2h3.9v5.8c0,0.4,0,0.7-0.1,1c-0.1,0.3-0.2,0.6-0.4,0.8c-0.2,0.2-0.5,0.4-0.8,0.6
		c-0.3,0.1-0.8,0.2-1.3,0.2c-0.3,0-0.7,0-1-0.1c-0.3-0.1-0.6-0.2-0.8-0.3l0.4-1c0.2,0.1,0.4,0.2,0.7,0.2c0.2,0,0.4,0.1,0.6,0.1
		c0.5,0,0.8-0.1,1-0.4s0.3-0.6,0.3-1.1v-4.8h-2.6V143.2z M173.3,142.1c-0.3,0-0.5-0.1-0.7-0.3c-0.2-0.2-0.3-0.4-0.3-0.7
		c0-0.3,0.1-0.5,0.3-0.7c0.2-0.2,0.4-0.3,0.7-0.3c0.3,0,0.5,0.1,0.7,0.3s0.3,0.4,0.3,0.7c0,0.3-0.1,0.5-0.3,0.7
		S173.6,142.1,173.3,142.1z"/>
	<path class="st1" d="M177.1,146.1c0-0.5,0.1-0.9,0.3-1.3c0.2-0.4,0.4-0.7,0.7-1c0.3-0.3,0.6-0.5,1-0.6c0.4-0.1,0.7-0.2,1.1-0.2
		c0.4,0,0.8,0.1,1.2,0.2c0.3,0.1,0.6,0.3,0.9,0.6s0.4,0.5,0.5,0.9c0.1,0.3,0.2,0.7,0.2,1.1c0,0.1,0,0.3,0,0.4c0,0.1,0,0.2,0,0.3
		h-4.3c0.1,0.5,0.3,0.9,0.6,1.2c0.4,0.3,0.8,0.4,1.3,0.4c0.3,0,0.6,0,0.9-0.1c0.3-0.1,0.5-0.2,0.8-0.4l0.5,0.9
		c-0.3,0.2-0.7,0.4-1.1,0.5s-0.8,0.2-1.2,0.2c-0.4,0-0.9-0.1-1.3-0.2c-0.4-0.1-0.7-0.3-1-0.6c-0.3-0.3-0.5-0.6-0.7-1
		C177.2,147,177.1,146.6,177.1,146.1z M181.6,145.6c0-0.5-0.1-0.8-0.4-1.1c-0.2-0.3-0.6-0.4-1.1-0.4c-0.2,0-0.4,0-0.6,0.1
		s-0.4,0.2-0.5,0.3s-0.3,0.3-0.4,0.5c-0.1,0.2-0.2,0.4-0.2,0.6H181.6z"/>
	<path class="st1" d="M184.4,146.1c0-0.5,0.1-0.9,0.3-1.3c0.2-0.4,0.4-0.7,0.7-1c0.3-0.3,0.7-0.5,1.1-0.6c0.4-0.1,0.8-0.2,1.3-0.2
		c0.5,0,0.9,0.1,1.3,0.2c0.4,0.2,0.7,0.4,0.9,0.6l-0.7,0.9c-0.2-0.2-0.5-0.3-0.7-0.4s-0.5-0.1-0.8-0.1c-0.6,0-1.1,0.2-1.4,0.5
		c-0.4,0.4-0.6,0.8-0.6,1.4c0,0.3,0,0.6,0.1,0.8c0.1,0.2,0.2,0.4,0.4,0.6c0.2,0.2,0.4,0.3,0.6,0.4c0.2,0.1,0.5,0.1,0.8,0.1
		c0.3,0,0.6-0.1,0.9-0.2c0.3-0.1,0.5-0.3,0.8-0.5l0.6,0.9c-0.3,0.3-0.7,0.5-1.1,0.7c-0.4,0.1-0.8,0.2-1.3,0.2
		c-0.5,0-0.9-0.1-1.3-0.2c-0.4-0.1-0.7-0.3-1-0.6c-0.3-0.3-0.5-0.6-0.7-1C184.5,147,184.4,146.6,184.4,146.1z"/>
	<path class="st1" d="M193,144.3h-1.6v-1l1.6-0.1l0.2-1.6h1.1v1.6h2.7v1.1h-2.7v2.4c0,0.5,0.1,0.8,0.3,1.1c0.2,0.2,0.6,0.3,1.1,0.3
		c0.3,0,0.5,0,0.7-0.1c0.2,0,0.4-0.1,0.6-0.2l0.3,1c-0.3,0.1-0.5,0.2-0.9,0.2c-0.3,0.1-0.7,0.1-1,0.1c-0.4,0-0.8-0.1-1.1-0.2
		c-0.3-0.1-0.5-0.3-0.7-0.5s-0.3-0.5-0.4-0.8c-0.1-0.3-0.1-0.7-0.1-1V144.3z"/>
	<path class="st1" d="M200.3,148c0-0.4,0.1-0.6,0.3-0.9c0.2-0.2,0.5-0.3,0.9-0.3c0.3,0,0.6,0.1,0.9,0.3c0.2,0.2,0.3,0.5,0.3,0.9
		c0,0.4-0.1,0.6-0.3,0.9c-0.2,0.2-0.5,0.3-0.9,0.3c-0.3,0-0.6-0.1-0.9-0.3C200.4,148.6,200.3,148.3,200.3,148z"/>
	<path class="st1" d="M206,147.5c0-0.3,0.1-0.6,0.2-0.9c0.2-0.3,0.4-0.5,0.7-0.6s0.7-0.3,1.3-0.4c0.5-0.1,1.1-0.2,1.9-0.2
		c0-0.3-0.1-0.6-0.4-0.8c-0.2-0.2-0.6-0.3-1-0.3c-0.3,0-0.7,0.1-1,0.2c-0.3,0.1-0.6,0.3-0.9,0.4l-0.5-0.9c0.4-0.2,0.8-0.4,1.2-0.6
		s0.9-0.3,1.5-0.3c0.8,0,1.5,0.2,1.9,0.7c0.4,0.4,0.6,1.1,0.6,1.9v3.5h-1.1l-0.1-0.7h0c-0.3,0.2-0.7,0.4-1,0.6
		c-0.4,0.2-0.8,0.3-1.2,0.3c-0.3,0-0.6,0-0.8-0.1c-0.2-0.1-0.4-0.2-0.6-0.4c-0.2-0.2-0.3-0.3-0.4-0.5C206,148,206,147.7,206,147.5z
		 M207.3,147.4c0,0.3,0.1,0.5,0.3,0.6c0.2,0.1,0.5,0.2,0.8,0.2c0.3,0,0.6-0.1,0.9-0.2c0.3-0.1,0.5-0.3,0.8-0.5v-1.2
		c-0.5,0-1,0.1-1.3,0.2s-0.6,0.2-0.8,0.3c-0.2,0.1-0.4,0.2-0.4,0.4S207.3,147.2,207.3,147.4z"/>
	<path class="st1" d="M213.7,147.4c0.3,0.2,0.7,0.4,1,0.5c0.4,0.1,0.8,0.2,1.2,0.2c0.5,0,0.8-0.1,1-0.2c0.2-0.1,0.3-0.3,0.3-0.5
		c0-0.2-0.1-0.4-0.4-0.5c-0.3-0.1-0.7-0.3-1.3-0.5c-0.3-0.1-0.6-0.2-0.8-0.3s-0.5-0.2-0.7-0.4c-0.2-0.1-0.4-0.3-0.5-0.5
		c-0.1-0.2-0.2-0.4-0.2-0.6c0-0.5,0.2-0.9,0.7-1.3s1.1-0.5,1.9-0.5c0.5,0,0.9,0.1,1.4,0.2c0.4,0.2,0.8,0.3,1.1,0.5l-0.6,0.9
		c-0.3-0.2-0.5-0.3-0.8-0.4c-0.3-0.1-0.6-0.2-1-0.2c-0.5,0-0.8,0.1-1,0.2c-0.2,0.1-0.3,0.3-0.3,0.5c0,0.1,0,0.2,0.1,0.3
		s0.2,0.2,0.3,0.2s0.3,0.1,0.5,0.2c0.2,0.1,0.4,0.1,0.7,0.2c0.3,0.1,0.7,0.2,0.9,0.3c0.3,0.1,0.5,0.2,0.7,0.4
		c0.2,0.1,0.3,0.3,0.5,0.5c0.1,0.2,0.2,0.4,0.2,0.6c0,0.3-0.1,0.5-0.2,0.7c-0.1,0.2-0.3,0.4-0.5,0.6c-0.2,0.2-0.5,0.3-0.9,0.4
		c-0.3,0.1-0.7,0.1-1.2,0.1c-0.6,0-1.1-0.1-1.6-0.3c-0.5-0.2-0.9-0.4-1.3-0.6L213.7,147.4z"/>
	<path class="st1" d="M220.9,147.4c0.3,0.2,0.7,0.4,1,0.5c0.4,0.1,0.8,0.2,1.2,0.2c0.5,0,0.8-0.1,1-0.2c0.2-0.1,0.3-0.3,0.3-0.5
		c0-0.2-0.1-0.4-0.4-0.5c-0.3-0.1-0.7-0.3-1.3-0.5c-0.3-0.1-0.6-0.2-0.8-0.3s-0.5-0.2-0.7-0.4c-0.2-0.1-0.4-0.3-0.5-0.5
		c-0.1-0.2-0.2-0.4-0.2-0.6c0-0.5,0.2-0.9,0.7-1.3s1.1-0.5,1.9-0.5c0.5,0,0.9,0.1,1.4,0.2c0.4,0.2,0.8,0.3,1.1,0.5l-0.6,0.9
		c-0.3-0.2-0.5-0.3-0.8-0.4c-0.3-0.1-0.6-0.2-1-0.2c-0.5,0-0.8,0.1-1,0.2c-0.2,0.1-0.3,0.3-0.3,0.5c0,0.1,0,0.2,0.1,0.3
		s0.2,0.2,0.3,0.2s0.3,0.1,0.5,0.2c0.2,0.1,0.4,0.1,0.7,0.2c0.3,0.1,0.7,0.2,0.9,0.3c0.3,0.1,0.5,0.2,0.7,0.4
		c0.2,0.1,0.3,0.3,0.5,0.5c0.1,0.2,0.2,0.4,0.2,0.6c0,0.3-0.1,0.5-0.2,0.7c-0.1,0.2-0.3,0.4-0.5,0.6c-0.2,0.2-0.5,0.3-0.9,0.4
		c-0.3,0.1-0.7,0.1-1.2,0.1c-0.6,0-1.1-0.1-1.6-0.3c-0.5-0.2-0.9-0.4-1.3-0.6L220.9,147.4z"/>
	<path class="st1" d="M227.7,143.2h3.9v5.9h-1.4v-4.8h-2.6V143.2z M230.9,142.1c-0.3,0-0.5-0.1-0.7-0.3c-0.2-0.2-0.3-0.4-0.3-0.7
		c0-0.3,0.1-0.5,0.3-0.7c0.2-0.2,0.4-0.3,0.7-0.3c0.3,0,0.5,0.1,0.7,0.3s0.3,0.4,0.3,0.7c0,0.3-0.1,0.5-0.3,0.7
		S231.2,142.1,230.9,142.1z"/>
	<path class="st1" d="M234.7,150.1c0-0.2,0.1-0.5,0.2-0.7c0.2-0.2,0.4-0.4,0.7-0.6v0c-0.2-0.1-0.3-0.2-0.4-0.4
		c-0.1-0.2-0.2-0.4-0.2-0.6c0-0.2,0.1-0.4,0.2-0.6c0.1-0.2,0.3-0.4,0.5-0.5v0c-0.2-0.1-0.4-0.3-0.5-0.6s-0.2-0.6-0.2-0.9
		c0-0.3,0.1-0.6,0.2-0.9c0.1-0.3,0.3-0.5,0.5-0.7c0.2-0.2,0.5-0.3,0.8-0.4c0.3-0.1,0.6-0.1,0.9-0.1c0.4,0,0.7,0,0.9,0.1h2.4v1h-1.4
		c0.1,0.1,0.2,0.3,0.3,0.4s0.1,0.4,0.1,0.6c0,0.3-0.1,0.6-0.2,0.9s-0.3,0.5-0.5,0.6s-0.5,0.3-0.8,0.4s-0.6,0.1-0.9,0.1
		c-0.3,0-0.6-0.1-0.9-0.2c-0.2,0.2-0.4,0.3-0.4,0.5c0,0.4,0.4,0.6,1.1,0.6h1.2c0.8,0,1.3,0.1,1.7,0.3c0.4,0.2,0.6,0.6,0.6,1.1
		c0,0.3-0.1,0.6-0.2,0.8s-0.4,0.5-0.7,0.7c-0.3,0.2-0.6,0.3-1.1,0.4c-0.4,0.1-0.9,0.2-1.4,0.2c-0.4,0-0.8,0-1.1-0.1
		c-0.3-0.1-0.6-0.2-0.8-0.3s-0.4-0.3-0.5-0.5C234.7,150.6,234.7,150.4,234.7,150.1z M235.8,149.9c0,0.3,0.1,0.5,0.4,0.6
		c0.3,0.2,0.7,0.2,1.3,0.2c0.3,0,0.5,0,0.8-0.1s0.4-0.1,0.6-0.2s0.3-0.2,0.4-0.3c0.1-0.1,0.1-0.2,0.1-0.4c0-0.2-0.1-0.4-0.3-0.5
		c-0.2-0.1-0.5-0.1-0.9-0.1h-0.9c-0.2,0-0.4,0-0.5,0s-0.3,0-0.4-0.1c-0.2,0.1-0.4,0.3-0.4,0.4S235.8,149.8,235.8,149.9z
		 M237.4,146.3c0.3,0,0.6-0.1,0.8-0.3c0.2-0.2,0.3-0.5,0.3-0.9c0-0.4-0.1-0.6-0.3-0.9c-0.2-0.2-0.5-0.3-0.8-0.3
		c-0.3,0-0.6,0.1-0.8,0.3c-0.2,0.2-0.3,0.5-0.3,0.9c0,0.4,0.1,0.7,0.3,0.9S237.1,146.3,237.4,146.3z"/>
	<path class="st1" d="M242.1,143.2h1.1l0.1,0.9h0c0.3-0.3,0.6-0.5,0.9-0.7c0.3-0.2,0.7-0.3,1.2-0.3c0.7,0,1.2,0.2,1.5,0.6
		s0.5,1,0.5,1.8v3.6h-1.4v-3.5c0-0.5-0.1-0.8-0.2-1c-0.2-0.2-0.5-0.3-0.9-0.3c-0.3,0-0.5,0.1-0.8,0.2c-0.2,0.1-0.5,0.3-0.7,0.6v4
		h-1.4V143.2z"/>
	<path class="st1" d="M251.3,148.8c-0.5-0.9-0.7-1.9-0.7-3.1s0.2-2.2,0.7-3.1c0.5-0.9,1.1-1.7,1.9-2.4l0.8,0.6
		c-0.8,0.7-1.3,1.4-1.7,2.2s-0.5,1.7-0.5,2.6s0.2,1.9,0.5,2.6s0.9,1.5,1.7,2.2l-0.8,0.6C252.5,150.5,251.8,149.7,251.3,148.8z"/>
	<path class="st1" d="M258.4,149.2c0-0.2,0-0.4,0-0.6c0-0.2,0-0.4,0-0.5c0-0.2,0-0.3,0-0.5c0-0.2,0-0.4,0-0.6c0-0.1,0-0.2-0.1-0.3
		s-0.1-0.2-0.3-0.3s-0.3-0.2-0.5-0.2c-0.2-0.1-0.5-0.1-0.8-0.1v-0.8c0.3,0,0.6,0,0.8-0.1c0.2-0.1,0.4-0.1,0.5-0.2s0.2-0.2,0.3-0.3
		s0.1-0.2,0.1-0.3c0-0.4,0-0.7-0.1-1.1s-0.1-0.7-0.1-1.1c0-0.3,0-0.6,0.1-0.8c0.1-0.2,0.2-0.4,0.4-0.5c0.2-0.1,0.4-0.2,0.7-0.3
		c0.3-0.1,0.6-0.1,1-0.1h0.8v0.8H261c-0.3,0-0.5,0-0.7,0c-0.2,0-0.3,0.1-0.4,0.2c-0.1,0.1-0.2,0.2-0.2,0.3c0,0.1-0.1,0.3-0.1,0.5
		c0,0.3,0,0.7,0,1s0,0.7,0,1.1c0,0.4-0.1,0.7-0.3,0.9c-0.2,0.2-0.5,0.3-0.9,0.4v0c0.4,0.1,0.7,0.2,0.9,0.4c0.2,0.2,0.3,0.5,0.3,0.9
		c0,0.4,0,0.7,0,1.1c0,0.3,0,0.7,0,1c0,0.2,0,0.3,0.1,0.5c0,0.1,0.1,0.2,0.2,0.3s0.2,0.1,0.4,0.2c0.2,0,0.4,0,0.7,0h0.6v0.8h-0.8
		c-0.4,0-0.7,0-1-0.1c-0.3-0.1-0.5-0.1-0.7-0.3c-0.2-0.1-0.3-0.3-0.4-0.5C258.5,149.8,258.4,149.5,258.4,149.2z"/>
	<path class="st1" d="M264.5,150.1c0.3,0,0.5,0,0.7,0c0.2,0,0.3-0.1,0.4-0.2c0.1-0.1,0.2-0.2,0.2-0.3c0-0.1,0.1-0.3,0.1-0.5
		c0-0.4,0-0.7,0-1c0-0.3,0-0.7,0-1.1c0-0.4,0.1-0.7,0.2-0.9c0.2-0.2,0.5-0.3,0.9-0.4v0c-0.4-0.1-0.7-0.2-0.9-0.4
		c-0.2-0.2-0.2-0.5-0.2-0.9c0-0.4,0-0.7,0-1.1s0-0.7,0-1c0-0.2,0-0.3-0.1-0.5c0-0.1-0.1-0.2-0.2-0.3c-0.1-0.1-0.2-0.1-0.4-0.2
		c-0.2,0-0.4,0-0.7,0h-0.6v-0.8h0.8c0.4,0,0.7,0,1,0.1c0.3,0.1,0.5,0.1,0.7,0.3c0.2,0.1,0.3,0.3,0.4,0.5c0.1,0.2,0.1,0.5,0.1,0.8
		c0,0.4,0,0.8-0.1,1.1s-0.1,0.7-0.1,1.1c0,0.1,0,0.2,0.1,0.3c0,0.1,0.1,0.2,0.3,0.3s0.3,0.2,0.5,0.2c0.2,0.1,0.5,0.1,0.8,0.1v0.8
		c-0.3,0-0.6,0-0.8,0.1c-0.2,0.1-0.4,0.1-0.5,0.2s-0.2,0.2-0.3,0.3c0,0.1-0.1,0.2-0.1,0.3c0,0.2,0,0.4,0,0.6c0,0.2,0,0.3,0,0.5
		c0,0.2,0,0.3,0,0.5c0,0.2,0,0.4,0,0.6c0,0.3,0,0.6-0.1,0.8c-0.1,0.2-0.2,0.4-0.4,0.5c-0.2,0.1-0.4,0.2-0.7,0.3
		c-0.3,0.1-0.6,0.1-1,0.1h-0.8v-0.8H264.5z"/>
	<path class="st1" d="M272.2,150.8c1-0.4,1.5-1,1.5-1.8c0,0-0.1,0-0.2,0c-0.3,0-0.6-0.1-0.8-0.3c-0.2-0.2-0.3-0.4-0.3-0.8
		c0-0.3,0.1-0.6,0.3-0.8c0.2-0.2,0.5-0.3,0.8-0.3c0.4,0,0.8,0.2,1,0.5c0.2,0.3,0.3,0.8,0.3,1.3c0,0.7-0.2,1.4-0.6,1.9
		c-0.4,0.5-1,0.9-1.7,1.1L272.2,150.8z"/>
	<path class="st1" d="M285.1,150.1c0-0.2,0.1-0.5,0.2-0.7c0.2-0.2,0.4-0.4,0.7-0.6v0c-0.2-0.1-0.3-0.2-0.4-0.4
		c-0.1-0.2-0.2-0.4-0.2-0.6c0-0.2,0.1-0.4,0.2-0.6c0.1-0.2,0.3-0.4,0.5-0.5v0c-0.2-0.1-0.4-0.3-0.5-0.6s-0.2-0.6-0.2-0.9
		c0-0.3,0.1-0.6,0.2-0.9c0.1-0.3,0.3-0.5,0.5-0.7c0.2-0.2,0.5-0.3,0.8-0.4c0.3-0.1,0.6-0.1,0.9-0.1c0.4,0,0.7,0,0.9,0.1h2.4v1h-1.4
		c0.1,0.1,0.2,0.3,0.3,0.4s0.1,0.4,0.1,0.6c0,0.3-0.1,0.6-0.2,0.9s-0.3,0.5-0.5,0.6s-0.5,0.3-0.8,0.4s-0.6,0.1-0.9,0.1
		c-0.3,0-0.6-0.1-0.9-0.2c-0.2,0.2-0.4,0.3-0.4,0.5c0,0.4,0.4,0.6,1.1,0.6h1.2c0.8,0,1.3,0.1,1.7,0.3c0.4,0.2,0.6,0.6,0.6,1.1
		c0,0.3-0.1,0.6-0.2,0.8s-0.4,0.5-0.7,0.7c-0.3,0.2-0.6,0.3-1.1,0.4c-0.4,0.1-0.9,0.2-1.4,0.2c-0.4,0-0.8,0-1.1-0.1
		c-0.3-0.1-0.6-0.2-0.8-0.3s-0.4-0.3-0.5-0.5C285.1,150.6,285.1,150.4,285.1,150.1z M286.2,149.9c0,0.3,0.1,0.5,0.4,0.6
		c0.3,0.2,0.7,0.2,1.3,0.2c0.3,0,0.5,0,0.8-0.1s0.4-0.1,0.6-0.2s0.3-0.2,0.4-0.3c0.1-0.1,0.1-0.2,0.1-0.4c0-0.2-0.1-0.4-0.3-0.5
		c-0.2-0.1-0.5-0.1-0.9-0.1h-0.9c-0.2,0-0.4,0-0.5,0s-0.3,0-0.4-0.1c-0.2,0.1-0.4,0.3-0.4,0.4S286.2,149.8,286.2,149.9z
		 M287.8,146.3c0.3,0,0.6-0.1,0.8-0.3c0.2-0.2,0.3-0.5,0.3-0.9c0-0.4-0.1-0.6-0.3-0.9c-0.2-0.2-0.5-0.3-0.8-0.3
		c-0.3,0-0.6,0.1-0.8,0.3c-0.2,0.2-0.3,0.5-0.3,0.9c0,0.4,0.1,0.7,0.3,0.9S287.5,146.3,287.8,146.3z"/>
	<path class="st1" d="M292.2,146.1c0-0.5,0.1-0.9,0.2-1.3c0.2-0.4,0.4-0.7,0.7-1c0.3-0.3,0.6-0.5,0.9-0.6c0.4-0.1,0.7-0.2,1.1-0.2
		c0.4,0,0.8,0.1,1.1,0.2c0.4,0.1,0.7,0.3,0.9,0.6c0.3,0.3,0.5,0.6,0.7,1c0.2,0.4,0.2,0.8,0.2,1.3c0,0.5-0.1,0.9-0.2,1.3
		s-0.4,0.7-0.7,1s-0.6,0.5-0.9,0.6c-0.4,0.1-0.7,0.2-1.1,0.2c-0.4,0-0.8-0.1-1.1-0.2c-0.4-0.1-0.7-0.3-0.9-0.6s-0.5-0.6-0.7-1
		S292.2,146.6,292.2,146.1z M293.6,146.1c0,0.6,0.1,1.1,0.4,1.4c0.3,0.4,0.6,0.5,1.1,0.5s0.9-0.2,1.1-0.5c0.3-0.4,0.4-0.8,0.4-1.4
		c0-0.6-0.1-1.1-0.4-1.4s-0.6-0.5-1.1-0.5s-0.9,0.2-1.1,0.5C293.7,145,293.6,145.5,293.6,146.1z"/>
	<path class="st1" d="M299.6,140.6h3.2v6.4c0,0.4,0.1,0.7,0.3,0.8c0.2,0.2,0.5,0.2,0.8,0.2c0.3,0,0.6-0.1,1-0.2l0.3,1
		c-0.3,0.1-0.5,0.2-0.8,0.2s-0.5,0.1-0.9,0.1c-0.7,0-1.2-0.2-1.6-0.6c-0.4-0.4-0.5-1-0.5-1.7v-5.2h-1.9V140.6z"/>
	<path class="st1" d="M306.6,146.1c0-0.5,0.1-0.9,0.2-1.3c0.1-0.4,0.3-0.7,0.6-1c0.2-0.3,0.5-0.5,0.8-0.6c0.3-0.1,0.6-0.2,1-0.2
		c0.4,0,0.7,0.1,0.9,0.2c0.3,0.1,0.5,0.3,0.7,0.5l-0.1-1v-2.1h1.4v8.5H311l-0.1-0.7h0c-0.2,0.2-0.5,0.4-0.8,0.6
		c-0.3,0.2-0.6,0.2-1,0.2c-0.4,0-0.7-0.1-1-0.2c-0.3-0.1-0.6-0.3-0.8-0.6c-0.2-0.3-0.4-0.6-0.5-1C306.6,147,306.6,146.6,306.6,146.1
		z M308,146.1c0,0.6,0.1,1.1,0.4,1.5s0.6,0.5,1.1,0.5c0.5,0,0.9-0.2,1.3-0.7v-2.7c-0.2-0.2-0.4-0.3-0.6-0.4
		c-0.2-0.1-0.4-0.1-0.6-0.1c-0.2,0-0.4,0-0.6,0.1s-0.3,0.2-0.5,0.4c-0.1,0.2-0.2,0.4-0.3,0.6C308,145.5,308,145.8,308,146.1z"/>
	<path class="st1" d="M314.6,150.5c0.8-0.7,1.3-1.4,1.7-2.2s0.5-1.7,0.5-2.6s-0.2-1.9-0.5-2.6s-0.9-1.5-1.7-2.2l0.8-0.6
		c0.8,0.7,1.4,1.5,1.9,2.4c0.5,0.9,0.7,1.9,0.7,3.1s-0.2,2.2-0.7,3.1c-0.5,0.9-1.1,1.7-1.9,2.4L314.6,150.5z"/>
	<path class="st1" d="M321.8,150.5c0.8-0.7,1.3-1.4,1.7-2.2s0.5-1.7,0.5-2.6s-0.2-1.9-0.5-2.6s-0.9-1.5-1.7-2.2l0.8-0.6
		c0.8,0.7,1.4,1.5,1.9,2.4c0.5,0.9,0.7,1.9,0.7,3.1s-0.2,2.2-0.7,3.1c-0.5,0.9-1.1,1.7-1.9,2.4L321.8,150.5z"/>
	<path class="st1" d="M11.6,159.1c0-0.5,0.1-0.9,0.3-1.3c0.2-0.4,0.4-0.7,0.7-1c0.3-0.3,0.7-0.5,1.1-0.6c0.4-0.1,0.8-0.2,1.3-0.2
		c0.5,0,0.9,0.1,1.3,0.2c0.4,0.2,0.7,0.4,0.9,0.6l-0.7,0.9c-0.2-0.2-0.5-0.3-0.7-0.4s-0.5-0.1-0.8-0.1c-0.6,0-1.1,0.2-1.4,0.5
		c-0.4,0.4-0.6,0.8-0.6,1.4c0,0.3,0,0.6,0.1,0.8c0.1,0.2,0.2,0.4,0.4,0.6c0.2,0.2,0.4,0.3,0.6,0.4c0.2,0.1,0.5,0.1,0.8,0.1
		c0.3,0,0.6-0.1,0.9-0.2c0.3-0.1,0.5-0.3,0.8-0.5l0.6,0.9c-0.3,0.3-0.7,0.5-1.1,0.7c-0.4,0.1-0.8,0.2-1.3,0.2
		c-0.5,0-0.9-0.1-1.3-0.2c-0.4-0.1-0.7-0.3-1-0.6c-0.3-0.3-0.5-0.6-0.7-1C11.7,160,11.6,159.6,11.6,159.1z"/>
	<path class="st1" d="M18.6,159.1c0-0.5,0.1-0.9,0.2-1.3c0.2-0.4,0.4-0.7,0.7-1c0.3-0.3,0.6-0.5,0.9-0.6c0.4-0.1,0.7-0.2,1.1-0.2
		c0.4,0,0.8,0.1,1.1,0.2c0.4,0.1,0.7,0.3,0.9,0.6c0.3,0.3,0.5,0.6,0.7,1c0.2,0.4,0.2,0.8,0.2,1.3c0,0.5-0.1,0.9-0.2,1.3
		s-0.4,0.7-0.7,1s-0.6,0.5-0.9,0.6c-0.4,0.1-0.7,0.2-1.1,0.2c-0.4,0-0.8-0.1-1.1-0.2c-0.4-0.1-0.7-0.3-0.9-0.6s-0.5-0.6-0.7-1
		S18.6,159.6,18.6,159.1z M20,159.1c0,0.6,0.1,1.1,0.4,1.4c0.3,0.4,0.6,0.5,1.1,0.5s0.9-0.2,1.1-0.5c0.3-0.4,0.4-0.8,0.4-1.4
		c0-0.6-0.1-1.1-0.4-1.4s-0.6-0.5-1.1-0.5s-0.9,0.2-1.1,0.5C20.1,158,20,158.5,20,159.1z"/>
	<path class="st1" d="M26.1,156.2h1.1l0.1,0.9h0c0.3-0.3,0.6-0.5,0.9-0.7c0.3-0.2,0.7-0.3,1.2-0.3c0.7,0,1.2,0.2,1.5,0.6
		s0.5,1,0.5,1.8v3.6h-1.4v-3.5c0-0.5-0.1-0.8-0.2-1c-0.2-0.2-0.5-0.3-0.9-0.3c-0.3,0-0.5,0.1-0.8,0.2c-0.2,0.1-0.5,0.3-0.7,0.6v4
		h-1.4V156.2z"/>
	<path class="st1" d="M33.7,160.4c0.3,0.2,0.7,0.4,1,0.5c0.4,0.1,0.8,0.2,1.2,0.2c0.5,0,0.8-0.1,1-0.2c0.2-0.1,0.3-0.3,0.3-0.5
		c0-0.2-0.1-0.4-0.4-0.5c-0.3-0.1-0.7-0.3-1.3-0.5c-0.3-0.1-0.6-0.2-0.8-0.3s-0.5-0.2-0.7-0.4c-0.2-0.1-0.4-0.3-0.5-0.5
		c-0.1-0.2-0.2-0.4-0.2-0.6c0-0.5,0.2-0.9,0.7-1.3s1.1-0.5,1.9-0.5c0.5,0,0.9,0.1,1.4,0.2c0.4,0.2,0.8,0.3,1.1,0.5l-0.6,0.9
		c-0.3-0.2-0.5-0.3-0.8-0.4c-0.3-0.1-0.6-0.2-1-0.2c-0.5,0-0.8,0.1-1,0.2c-0.2,0.1-0.3,0.3-0.3,0.5c0,0.1,0,0.2,0.1,0.3
		s0.2,0.2,0.3,0.2s0.3,0.1,0.5,0.2c0.2,0.1,0.4,0.1,0.7,0.2c0.3,0.1,0.7,0.2,0.9,0.3c0.3,0.1,0.5,0.2,0.7,0.4
		c0.2,0.1,0.3,0.3,0.5,0.5c0.1,0.2,0.2,0.4,0.2,0.6c0,0.3-0.1,0.5-0.2,0.7c-0.1,0.2-0.3,0.4-0.5,0.6c-0.2,0.2-0.5,0.3-0.9,0.4
		c-0.3,0.1-0.7,0.1-1.2,0.1c-0.6,0-1.1-0.1-1.6-0.3c-0.5-0.2-0.9-0.4-1.3-0.6L33.7,160.4z"/>
	<path class="st1" d="M40.2,159.1c0-0.5,0.1-0.9,0.2-1.3c0.2-0.4,0.4-0.7,0.7-1c0.3-0.3,0.6-0.5,0.9-0.6c0.4-0.1,0.7-0.2,1.1-0.2
		c0.4,0,0.8,0.1,1.1,0.2c0.4,0.1,0.7,0.3,0.9,0.6c0.3,0.3,0.5,0.6,0.7,1c0.2,0.4,0.2,0.8,0.2,1.3c0,0.5-0.1,0.9-0.2,1.3
		s-0.4,0.7-0.7,1s-0.6,0.5-0.9,0.6c-0.4,0.1-0.7,0.2-1.1,0.2c-0.4,0-0.8-0.1-1.1-0.2c-0.4-0.1-0.7-0.3-0.9-0.6s-0.5-0.6-0.7-1
		S40.2,159.6,40.2,159.1z M41.6,159.1c0,0.6,0.1,1.1,0.4,1.4c0.3,0.4,0.6,0.5,1.1,0.5s0.9-0.2,1.1-0.5c0.3-0.4,0.4-0.8,0.4-1.4
		c0-0.6-0.1-1.1-0.4-1.4s-0.6-0.5-1.1-0.5s-0.9,0.2-1.1,0.5C41.7,158,41.6,158.5,41.6,159.1z"/>
	<path class="st1" d="M47.6,153.6h3.2v6.4c0,0.4,0.1,0.7,0.3,0.8c0.2,0.2,0.5,0.2,0.8,0.2c0.3,0,0.6-0.1,1-0.2l0.3,1
		c-0.3,0.1-0.5,0.2-0.8,0.2s-0.5,0.1-0.9,0.1c-0.7,0-1.2-0.2-1.6-0.6c-0.4-0.4-0.5-1-0.5-1.7v-5.2h-1.9V153.6z"/>
	<path class="st1" d="M54.7,159.1c0-0.5,0.1-0.9,0.3-1.3c0.2-0.4,0.4-0.7,0.7-1c0.3-0.3,0.6-0.5,1-0.6c0.4-0.1,0.7-0.2,1.1-0.2
		c0.4,0,0.8,0.1,1.2,0.2c0.3,0.1,0.6,0.3,0.9,0.6s0.4,0.5,0.5,0.9c0.1,0.3,0.2,0.7,0.2,1.1c0,0.1,0,0.3,0,0.4c0,0.1,0,0.2,0,0.3
		h-4.3c0.1,0.5,0.3,0.9,0.6,1.2c0.4,0.3,0.8,0.4,1.3,0.4c0.3,0,0.6,0,0.9-0.1c0.3-0.1,0.5-0.2,0.8-0.4l0.5,0.9
		c-0.3,0.2-0.7,0.4-1.1,0.5s-0.8,0.2-1.2,0.2c-0.4,0-0.9-0.1-1.3-0.2c-0.4-0.1-0.7-0.3-1-0.6c-0.3-0.3-0.5-0.6-0.7-1
		C54.8,160,54.7,159.6,54.7,159.1z M59.2,158.6c0-0.5-0.1-0.8-0.4-1.1c-0.2-0.3-0.6-0.4-1.1-0.4c-0.2,0-0.4,0-0.6,0.1
		s-0.4,0.2-0.5,0.3s-0.3,0.3-0.4,0.5c-0.1,0.2-0.2,0.4-0.2,0.6H59.2z"/>
	<path class="st1" d="M63.5,161c0-0.4,0.1-0.6,0.3-0.9c0.2-0.2,0.5-0.3,0.9-0.3c0.3,0,0.6,0.1,0.9,0.3c0.2,0.2,0.3,0.5,0.3,0.9
		c0,0.4-0.1,0.6-0.3,0.9c-0.2,0.2-0.5,0.3-0.9,0.3c-0.3,0-0.6-0.1-0.9-0.3C63.7,161.6,63.5,161.3,63.5,161z"/>
	<path class="st1" d="M69.2,153.6h3.2v6.4c0,0.4,0.1,0.7,0.3,0.8c0.2,0.2,0.5,0.2,0.8,0.2c0.3,0,0.6-0.1,1-0.2l0.3,1
		c-0.3,0.1-0.5,0.2-0.8,0.2s-0.5,0.1-0.9,0.1c-0.7,0-1.2-0.2-1.6-0.6c-0.4-0.4-0.5-1-0.5-1.7v-5.2h-1.9V153.6z"/>
	<path class="st1" d="M76.2,159.1c0-0.5,0.1-0.9,0.2-1.3c0.2-0.4,0.4-0.7,0.7-1c0.3-0.3,0.6-0.5,0.9-0.6c0.4-0.1,0.7-0.2,1.1-0.2
		c0.4,0,0.8,0.1,1.1,0.2c0.4,0.1,0.7,0.3,0.9,0.6c0.3,0.3,0.5,0.6,0.7,1c0.2,0.4,0.2,0.8,0.2,1.3c0,0.5-0.1,0.9-0.2,1.3
		s-0.4,0.7-0.7,1s-0.6,0.5-0.9,0.6c-0.4,0.1-0.7,0.2-1.1,0.2c-0.4,0-0.8-0.1-1.1-0.2c-0.4-0.1-0.7-0.3-0.9-0.6s-0.5-0.6-0.7-1
		S76.2,159.6,76.2,159.1z M77.6,159.1c0,0.6,0.1,1.1,0.4,1.4c0.3,0.4,0.6,0.5,1.1,0.5s0.9-0.2,1.1-0.5c0.3-0.4,0.4-0.8,0.4-1.4
		c0-0.6-0.1-1.1-0.4-1.4s-0.6-0.5-1.1-0.5s-0.9,0.2-1.1,0.5C77.7,158,77.6,158.5,77.6,159.1z"/>
	<path class="st1" d="M83.5,163.1c0-0.2,0.1-0.5,0.2-0.7c0.2-0.2,0.4-0.4,0.7-0.6v0c-0.2-0.1-0.3-0.2-0.4-0.4
		c-0.1-0.2-0.2-0.4-0.2-0.6c0-0.2,0.1-0.4,0.2-0.6c0.1-0.2,0.3-0.4,0.5-0.5v0c-0.2-0.1-0.4-0.3-0.5-0.6s-0.2-0.6-0.2-0.9
		c0-0.3,0.1-0.6,0.2-0.9c0.1-0.3,0.3-0.5,0.5-0.7c0.2-0.2,0.5-0.3,0.8-0.4c0.3-0.1,0.6-0.1,0.9-0.1c0.4,0,0.7,0,0.9,0.1h2.4v1h-1.4
		c0.1,0.1,0.2,0.3,0.3,0.4s0.1,0.4,0.1,0.6c0,0.3-0.1,0.6-0.2,0.9s-0.3,0.5-0.5,0.6s-0.5,0.3-0.8,0.4s-0.6,0.1-0.9,0.1
		c-0.3,0-0.6-0.1-0.9-0.2c-0.2,0.2-0.4,0.3-0.4,0.5c0,0.4,0.4,0.6,1.1,0.6h1.2c0.8,0,1.3,0.1,1.7,0.3c0.4,0.2,0.6,0.6,0.6,1.1
		c0,0.3-0.1,0.6-0.2,0.8s-0.4,0.5-0.7,0.7c-0.3,0.2-0.6,0.3-1.1,0.4c-0.4,0.1-0.9,0.2-1.4,0.2c-0.4,0-0.8,0-1.1-0.1
		c-0.3-0.1-0.6-0.2-0.8-0.3s-0.4-0.3-0.5-0.5C83.5,163.6,83.5,163.4,83.5,163.1z M84.6,162.9c0,0.3,0.1,0.5,0.4,0.6
		c0.3,0.2,0.7,0.2,1.3,0.2c0.3,0,0.5,0,0.8-0.1s0.4-0.1,0.6-0.2s0.3-0.2,0.4-0.3c0.1-0.1,0.1-0.2,0.1-0.4c0-0.2-0.1-0.4-0.3-0.5
		c-0.2-0.1-0.5-0.1-0.9-0.1h-0.9c-0.2,0-0.4,0-0.5,0s-0.3,0-0.4-0.1c-0.2,0.1-0.4,0.3-0.4,0.4S84.6,162.8,84.6,162.9z M86.2,159.3
		c0.3,0,0.6-0.1,0.8-0.3c0.2-0.2,0.3-0.5,0.3-0.9c0-0.4-0.1-0.6-0.3-0.9c-0.2-0.2-0.5-0.3-0.8-0.3c-0.3,0-0.6,0.1-0.8,0.3
		c-0.2,0.2-0.3,0.5-0.3,0.9c0,0.4,0.1,0.7,0.3,0.9S85.9,159.3,86.2,159.3z"/>
	<path class="st1" d="M93,161.8c-0.5-0.9-0.7-1.9-0.7-3.1s0.2-2.2,0.7-3.1c0.5-0.9,1.1-1.7,1.9-2.4l0.8,0.6
		c-0.8,0.7-1.3,1.4-1.7,2.2s-0.5,1.7-0.5,2.6s0.2,1.9,0.5,2.6s0.9,1.5,1.7,2.2l-0.8,0.6C94.1,163.5,93.4,162.7,93,161.8z"/>
	<path class="st1" d="M98.2,154.2h2.3c0.4,0,0.8,0,1.1,0.1c0.3,0.1,0.6,0.2,0.9,0.3s0.4,0.3,0.6,0.6s0.2,0.6,0.2,0.9
		c0,0.4-0.1,0.7-0.3,1c-0.2,0.3-0.6,0.5-1,0.7v0c0.6,0.1,1,0.3,1.3,0.6c0.3,0.3,0.4,0.7,0.4,1.3c0,0.4-0.1,0.7-0.2,1
		c-0.1,0.3-0.4,0.5-0.6,0.7c-0.3,0.2-0.6,0.3-0.9,0.4c-0.4,0.1-0.8,0.1-1.2,0.1h-2.5V154.2z M100.4,157.5c0.6,0,0.9-0.1,1.2-0.3
		c0.2-0.2,0.4-0.5,0.4-0.9c0-0.4-0.1-0.6-0.4-0.8c-0.3-0.2-0.6-0.2-1.1-0.2h-0.8v2.2H100.4z M100.6,161c0.6,0,1-0.1,1.3-0.3
		c0.3-0.2,0.5-0.5,0.5-1c0-0.8-0.6-1.2-1.8-1.2h-1v2.5H100.6z"/>
	<path class="st1" d="M105.8,163.5c0.8-0.7,1.3-1.4,1.7-2.2s0.5-1.7,0.5-2.6s-0.2-1.9-0.5-2.6s-0.9-1.5-1.7-2.2l0.8-0.6
		c0.8,0.7,1.4,1.5,1.9,2.4c0.5,0.9,0.7,1.9,0.7,3.1s-0.2,2.2-0.7,3.1c-0.5,0.9-1.1,1.7-1.9,2.4L105.8,163.5z"/>
</g>
</svg>
