<?xml version="1.0" encoding="utf-8"?>
<!-- Generator: Adobe Illustrator 24.0.1, SVG Export Plug-In . SVG Version: 6.00 Build 0)  -->
<svg version="1.1" id="レイヤー_1" xmlns="http://www.w3.org/2000/svg" xmlns:xlink="http://www.w3.org/1999/xlink" x="0px"
	 y="0px" viewBox="0 0 512 58.7" style="enable-background:new 0 0 512 58.7;" xml:space="preserve">
<style type="text/css">
	.st0{fill:#3FA9AC;}
	.st1{fill:#24252A;}
</style>
<g id="layer101">
	<path class="st0" d="M263.1,56.9c-9-3.2-14.1-11.9-13.4-22.7c0.5-8.3,4-13.7,11.1-17.3c19.6-9.7,39.8,9.8,30.2,29.2
		C285.9,56.3,274.2,60.9,263.1,56.9z"/>
	<path class="st0" d="M480.7,57.1c-12.7-4.6-18-19.3-11.4-31.8c2.3-4.3,3.8-5.9,8.2-8.2c4.8-2.5,6.4-2.8,12.2-2.5
		c5.5,0.3,7.5,0.9,11,3.3c5.5,3.8,9.8,12,9.8,18.4C510.4,51.3,494.8,62.2,480.7,57.1z"/>
	<path class="st1" d="M14,55.5C-0.1,48.9-2.9,30,8.8,19.7c3.9-3.4,9.4-5.6,12.9-5.1l2.3,0.3v21v21l-3,0.3
		C19.4,57.3,16.2,56.6,14,55.5z"/>
	<path class="st1" d="M34.5,35.9V14.4h2.9c3.8,0,9.2,3.8,11.3,8c1.5,2.9,1.8,6.3,1.8,19.3v15.7h-8h-8V35.9z"/>
	<path class="st1" d="M69.7,31.2L70,5.1l6-2.3c10.4-4,9.5-6.4,9.5,26.1v28.5h-8h-8L69.7,31.2z"/>
	<path class="st1" d="M95.5,36.4v-21h9c9.8,0,9.7-0.1,8,6c-1.3,4.8-5.3,10-9.5,12.6l-3.5,2l4.6,3.2c4.6,3.3,9.4,11.3,9.4,16
		c0,2.1-0.3,2.2-9,2.2h-9V36.4z"/>
	<path class="st1" d="M145.5,56.3c-14.4-5.8-18.2-26-6.8-36.6c3-2.9,8.9-5.3,12.8-5.3h3v21.5v21.5l-3.2-0.1
		C149.5,57.3,146.9,56.8,145.5,56.3z"/>
	<path class="st1" d="M164.5,35.9V14.4h2.8c3.7,0,8.8,3.3,11.2,7.2c1.8,2.9,2,5.1,2,19.6v16.2h-8h-8V35.9z"/>
	<path class="st1" d="M200.5,42.4v-15h15.2H231l-15,15c-8.2,8.3-15.1,15-15.2,15C200.6,57.4,200.5,50.7,200.5,42.4z"/>
	<path class="st1" d="M312.7,40.3l0.3-17.1l6.5-2.4c3.6-1.3,6.8-2.4,7.3-2.4c0.4,0,0.7,8.8,0.7,19.5v19.5H320h-7.5L312.7,40.3z"/>
	<path class="st1" d="M338.5,35.9V14.4h2.6c3.7,0,8.5,3.2,10.9,7.2c1.8,2.9,2,5.1,2,19.3v16l-7.7,0.3l-7.8,0.3V35.9z"/>
	<path class="st1" d="M364.5,35.9V14.4h2.9c3.8,0,9.2,3.8,11.3,8c1.5,2.9,1.8,6.3,1.8,19.3v15.7h-8h-8V35.9z"/>
	<path class="st1" d="M398.7,31.3L399,5.2l6.4-2.4c3.5-1.3,7-2.4,7.7-2.4c1.2,0,1.4,5,1.4,28.5v28.5h-8h-8L398.7,31.3z"/>
	<path class="st1" d="M425.5,35.9V14.4h2.7c1.5,0,4.6,0.9,7,2.1C452,24.6,451,48.7,433.6,56c-1.8,0.8-4.4,1.4-5.7,1.4h-2.4V35.9z"/>
	<path class="st1" d="M200.5,10.6V4.9l6.4-2.3c3.6-1.2,7-2.2,7.5-2.2c0.7,0,1.1,3,1.1,8v8H208h-7.5V10.6z"/>
</g>
</svg>
