<?xml version="1.0" encoding="utf-8"?>
<!-- Generator: Adobe Illustrator 24.0.1, SVG Export Plug-In . SVG Version: 6.00 Build 0)  -->
<svg version="1.1" id="レイヤー_1" xmlns="http://www.w3.org/2000/svg" xmlns:xlink="http://www.w3.org/1999/xlink" x="0px"
	 y="0px" viewBox="0 0 480 480" style="enable-background:new 0 0 480 480;" xml:space="preserve">
<style type="text/css">
	.st0{clip-path:url(#SVGID_2_);}
	.st1{fill:#F0F3F4;}
</style>
<g>
	<defs>
		<rect id="SVGID_1_" width="480" height="480"/>
	</defs>
	<clipPath id="SVGID_2_">
		<use xlink:href="#SVGID_1_"  style="overflow:visible;"/>
	</clipPath>
	<g class="st0">
		<g>
			
				<rect x="-555.3" y="-94.8" transform="matrix(0.7071 -0.7071 0.7071 0.7071 38.2486 -92.3402)" class="st1" width="926" height="5"/>
		</g>
		<g>
			
				<rect x="-541.2" y="-80.7" transform="matrix(0.7071 -0.7071 0.7071 0.7071 32.3907 -78.1981)" class="st1" width="926" height="5"/>
		</g>
		<g>
			
				<rect x="-527.1" y="-66.6" transform="matrix(0.7071 -0.7071 0.7071 0.7071 26.5328 -64.0559)" class="st1" width="926" height="5"/>
		</g>
		<g>
			
				<rect x="-512.9" y="-52.4" transform="matrix(0.7071 -0.7071 0.7071 0.7071 20.675 -49.9138)" class="st1" width="926" height="5"/>
		</g>
		<g>
			
				<rect x="-498.8" y="-38.3" transform="matrix(0.7071 -0.7071 0.7071 0.7071 14.8171 -35.7716)" class="st1" width="926" height="5"/>
		</g>
		<g>
			
				<rect x="-484.6" y="-24.1" transform="matrix(0.7071 -0.7071 0.7071 0.7071 8.9592 -21.6295)" class="st1" width="926" height="5"/>
		</g>
		<g>
			<rect x="-470.5" y="-10" transform="matrix(0.7071 -0.7071 0.7071 0.7071 3.1014 -7.4874)" class="st1" width="926" height="5"/>
		</g>
		<g>
			<rect x="-456.3" y="4.2" transform="matrix(0.7071 -0.7071 0.7071 0.7071 -2.7565 6.6548)" class="st1" width="926" height="5"/>
		</g>
		<g>
			<rect x="-456.3" y="4.2" transform="matrix(0.7071 -0.7071 0.7071 0.7071 -2.7565 6.6548)" class="st1" width="926" height="5"/>
		</g>
		<g>
			
				<rect x="-442.2" y="18.3" transform="matrix(0.7071 -0.7071 0.7071 0.7071 -8.6144 20.7969)" class="st1" width="926" height="5"/>
		</g>
		<g>
			
				<rect x="-428.1" y="32.4" transform="matrix(0.7071 -0.7071 0.7071 0.7071 -14.4722 34.939)" class="st1" width="926" height="5"/>
		</g>
		<g>
			
				<rect x="-413.9" y="46.6" transform="matrix(0.7071 -0.7071 0.7071 0.7071 -20.3301 49.0812)" class="st1" width="926" height="5"/>
		</g>
		<g>
			
				<rect x="-399.8" y="60.7" transform="matrix(0.7071 -0.7071 0.7071 0.7071 -26.188 63.2233)" class="st1" width="926" height="5"/>
		</g>
		<g>
			
				<rect x="-385.6" y="74.9" transform="matrix(0.7071 -0.7071 0.7071 0.7071 -32.0458 77.3654)" class="st1" width="926" height="5"/>
		</g>
		<g>
			
				<rect x="-371.5" y="89" transform="matrix(0.7071 -0.7071 0.7071 0.7071 -37.9037 91.5076)" class="st1" width="926" height="5"/>
		</g>
		<g>
			
				<rect x="-357.4" y="103.1" transform="matrix(0.7071 -0.7071 0.7071 0.7071 -43.7615 105.6497)" class="st1" width="926" height="5"/>
		</g>
		<g>
			
				<rect x="-343.2" y="117.3" transform="matrix(0.7071 -0.7071 0.7071 0.7071 -49.6194 119.7918)" class="st1" width="926" height="5"/>
		</g>
		<g>
			
				<rect x="-329.1" y="131.4" transform="matrix(0.7071 -0.7071 0.7071 0.7071 -55.4773 133.934)" class="st1" width="926" height="5"/>
		</g>
		<g>
			
				<rect x="-314.9" y="145.6" transform="matrix(0.7071 -0.7071 0.7071 0.7071 -61.3351 148.0761)" class="st1" width="926" height="5"/>
		</g>
		<g>
			
				<rect x="-300.8" y="159.7" transform="matrix(0.7071 -0.7071 0.7071 0.7071 -67.193 162.2182)" class="st1" width="926" height="5"/>
		</g>
		<g>
			
				<rect x="-286.6" y="173.9" transform="matrix(0.7071 -0.7071 0.7071 0.7071 -73.0509 176.3604)" class="st1" width="926" height="5"/>
		</g>
		<g>
			
				<rect x="-272.5" y="188" transform="matrix(0.7071 -0.7071 0.7071 0.7071 -78.9087 190.5025)" class="st1" width="926" height="5"/>
		</g>
		<g>
			
				<rect x="-258.4" y="202.1" transform="matrix(0.7071 -0.7071 0.7071 0.7071 -84.7666 204.6447)" class="st1" width="926" height="5"/>
		</g>
		<g>
			
				<rect x="-244.2" y="216.3" transform="matrix(0.7071 -0.7071 0.7071 0.7071 -90.6245 218.7868)" class="st1" width="926" height="5"/>
		</g>
		<g>
			
				<rect x="-244.2" y="216.3" transform="matrix(0.7071 -0.7071 0.7071 0.7071 -90.6245 218.7868)" class="st1" width="926" height="5"/>
		</g>
		<g>
			
				<rect x="-230.1" y="230.4" transform="matrix(0.7071 -0.7071 0.7071 0.7071 -96.4823 232.9289)" class="st1" width="926" height="5"/>
		</g>
		<g>
			
				<rect x="-215.9" y="244.6" transform="matrix(0.7071 -0.7071 0.7071 0.7071 -102.3402 247.0711)" class="st1" width="926" height="5"/>
		</g>
		<g>
			
				<rect x="-201.8" y="258.7" transform="matrix(0.7071 -0.7071 0.7071 0.7071 -108.1981 261.2132)" class="st1" width="926" height="5"/>
		</g>
		<g>
			
				<rect x="-187.6" y="272.9" transform="matrix(0.7071 -0.7071 0.7071 0.7071 -114.0559 275.3553)" class="st1" width="926" height="5"/>
		</g>
		<g>
			
				<rect x="-173.5" y="287" transform="matrix(0.7071 -0.7071 0.7071 0.7071 -119.9138 289.4975)" class="st1" width="926" height="5"/>
		</g>
		<g>
			
				<rect x="-159.4" y="301.1" transform="matrix(0.7071 -0.7071 0.7071 0.7071 -125.7716 303.6396)" class="st1" width="926" height="5"/>
		</g>
		<g>
			
				<rect x="-145.2" y="315.3" transform="matrix(0.7071 -0.7071 0.7071 0.7071 -131.6295 317.7817)" class="st1" width="926" height="5"/>
		</g>
		<g>
			
				<rect x="-131.1" y="329.4" transform="matrix(0.7071 -0.7071 0.7071 0.7071 -137.4874 331.9239)" class="st1" width="926" height="5"/>
		</g>
		<g>
			
				<rect x="-116.9" y="343.6" transform="matrix(0.7071 -0.7071 0.7071 0.7071 -143.3452 346.066)" class="st1" width="926" height="5"/>
		</g>
		<g>
			
				<rect x="-116.9" y="343.6" transform="matrix(0.7071 -0.7071 0.7071 0.7071 -143.3452 346.066)" class="st1" width="926" height="5"/>
		</g>
		<g>
			
				<rect x="-102.8" y="357.7" transform="matrix(0.7071 -0.7071 0.7071 0.7071 -149.2031 360.2082)" class="st1" width="926" height="5"/>
		</g>
		<g>
			
				<rect x="-88.6" y="371.9" transform="matrix(0.7071 -0.7071 0.7071 0.7071 -155.061 374.3503)" class="st1" width="926" height="5"/>
		</g>
		<g>
			
				<rect x="-74.5" y="386" transform="matrix(0.7071 -0.7071 0.7071 0.7071 -160.9188 388.4924)" class="st1" width="926" height="5"/>
		</g>
		<g>
			
				<rect x="-60.4" y="400.1" transform="matrix(0.7071 -0.7071 0.7071 0.7071 -166.7767 402.6346)" class="st1" width="926" height="5"/>
		</g>
		<g>
			
				<rect x="-46.2" y="414.3" transform="matrix(0.7071 -0.7071 0.7071 0.7071 -172.6346 416.7767)" class="st1" width="926" height="5"/>
		</g>
		<g>
			
				<rect x="-32.1" y="428.4" transform="matrix(0.7071 -0.7071 0.7071 0.7071 -178.4924 430.9188)" class="st1" width="926" height="5"/>
		</g>
		<g>
			
				<rect x="-17.9" y="442.6" transform="matrix(0.7071 -0.7071 0.7071 0.7071 -184.3503 445.061)" class="st1" width="926" height="5"/>
		</g>
		<g>
			
				<rect x="-3.8" y="456.7" transform="matrix(0.7071 -0.7071 0.7071 0.7071 -190.2082 459.2031)" class="st1" width="926" height="5"/>
		</g>
		<g>
			
				<rect x="10.3" y="470.8" transform="matrix(0.7071 -0.7071 0.7071 0.7071 -196.066 473.3452)" class="st1" width="926" height="5"/>
		</g>
		<g>
			
				<rect x="24.5" y="485" transform="matrix(0.7071 -0.7071 0.7071 0.7071 -201.9239 487.4874)" class="st1" width="926" height="5"/>
		</g>
		<g>
			
				<rect x="38.6" y="499.1" transform="matrix(0.7071 -0.7071 0.7071 0.7071 -207.7818 501.6295)" class="st1" width="926" height="5"/>
		</g>
		<g>
			
				<rect x="52.8" y="513.3" transform="matrix(0.7071 -0.7071 0.7071 0.7071 -213.6396 515.7717)" class="st1" width="926" height="5"/>
		</g>
		<g>
			
				<rect x="66.9" y="527.4" transform="matrix(0.7071 -0.7071 0.7071 0.7071 -219.4975 529.9138)" class="st1" width="926" height="5"/>
		</g>
		<g>
			
				<rect x="81.1" y="541.6" transform="matrix(0.7071 -0.7071 0.7071 0.7071 -225.3553 544.0559)" class="st1" width="926" height="5"/>
		</g>
		<g>
			
				<rect x="95.2" y="555.7" transform="matrix(0.7071 -0.7071 0.7071 0.7071 -231.2132 558.1981)" class="st1" width="926" height="5"/>
		</g>
		<g>
			
				<rect x="95.2" y="555.7" transform="matrix(0.7071 -0.7071 0.7071 0.7071 -231.2132 558.1981)" class="st1" width="926" height="5"/>
		</g>
		<g>
			
				<rect x="109.3" y="569.8" transform="matrix(0.7071 -0.7071 0.7071 0.7071 -237.0711 572.3402)" class="st1" width="926" height="5"/>
		</g>
	</g>
</g>
</svg>
