<?xml version="1.0" encoding="utf-8"?>
<!-- Generator: Adobe Illustrator 24.0.1, SVG Export Plug-In . SVG Version: 6.00 Build 0)  -->
<svg version="1.1" xmlns="http://www.w3.org/2000/svg" xmlns:xlink="http://www.w3.org/1999/xlink" x="0px" y="0px"
	 viewBox="0 0 246.2 262.1" style="enable-background:new 0 0 246.2 262.1;" xml:space="preserve">
<style type="text/css">
	.st0{fill:#695BDF;}
	.st1{fill:#FFFFFF;}
	.st2{fill:#EBB768;}
</style>
<g id="BACKGROUND">
</g>
<g id="OBJECTS">
	<g>
		<g>
			<path d="M135,186.4c-27.1,14.1-54.2,28.1-81.4,42.1c-7.5,3.9-15.1,7.8-22.6,11.7c1-0.3,1.9-0.5,2.9-0.8c-2-2.9-3.7-6-5.5-9.1
				c-0.1-0.1-0.2-0.3-0.2-0.4c-0.4-0.3-0.3-0.5,0.2-0.7c0.2-0.3,0.9-0.6,1.2-0.9c0.8-0.6,1.6-1.2,2.4-1.8c1.6-1.2,3.2-2.4,4.7-3.5
				c6.3-4.7,12.6-9.5,18.9-14.2c12.6-9.5,25.1-19.1,37.6-28.7c7-5.4,14-10.9,21-16.3c-1,0.3-1.9,0.5-2.9,0.8
				c3.8,3.9,7.7,7.6,11.8,11.1c2,1.8,4,3.5,6.1,5.2C131.2,182.6,133,184.6,135,186.4c0.1,0.1,1.3-0.3,1.5-0.4c0.2,0,1.3-0.5,1.4-0.4
				c-2-1.7-3.8-3.6-5.7-5.3c-2.1-1.8-4.2-3.6-6.3-5.4c-4.1-3.6-8.1-7.2-11.8-11.1c-0.1-0.1-2.7,0.6-2.9,0.8
				c-24.8,19.4-49.9,38.6-75.1,57.5c-1.7,1.3-3.4,2.6-5.1,3.8c-0.9,0.7-1.8,1.4-2.8,2.1c-0.4,0.3-0.8,0.6-1.2,0.9
				c-0.4,0.3-1.3,0.7-1.6,1.2c-0.1,0.1-0.3,0.2-0.4,0.3c0.2,0.3,0.3,0.5,0.5,0.8c0.2,0.4,0.5,0.8,0.7,1.2c0.5,0.9,1,1.8,1.5,2.6
				c1,1.8,2.1,3.6,3.3,5.3c0.1,0.1,2.7-0.6,2.9-0.8c27.1-14.1,54.2-28.1,81.4-42.1c7.5-3.9,15.1-7.8,22.6-11.7
				C137.1,186,135.9,185.9,135,186.4z"/>
		</g>
	</g>
	<path d="M23.9,223c-2.9-3.2-6.3-6-10.1-7.9c-3.9-1.8-8.4-2.6-12.5-1.7c0.8,1.8,1.2,3.6,2.1,5.5c4.3,9.7,8.6,19.4,12.9,29.1
		c5.9-1.9,11.8-3.8,16.3-8.1C32,235.7,25.6,224.8,23.9,223z"/>
	<g>
		<g>
			<path class="st0" d="M111.4,156.3c1.6,2.1,3.3,4.3,5,6.3c0.9,1,1.7,2.1,2.6,3.1c0.7,0.8,1.4,1.8,2.4,2.1c0.5,0.1,0.7-0.6,0.2-0.7
				c-1-0.3-1.8-1.5-2.5-2.3c-0.8-1-1.7-1.9-2.5-2.9c-1.7-1.9-3.3-3.9-5-5.8C111.6,155.9,111.3,156.1,111.4,156.3L111.4,156.3z"/>
		</g>
	</g>
	<g>
		<g>
			<path class="st1" d="M16.8,216.3c-0.4,0-0.8,0.1-1.1,0.2c-0.4,0.1-0.8,0.2-1.1,0.4c-0.5,0.3-0.9,0.7-1.2,1.1
				c-0.8,0.8-1.4,1.8-1.9,2.8c0,0,0.2-0.1,0.2-0.1c0.2,0,0.4-0.1,0.5-0.1c0.2,0,0.4-0.1,0.5-0.1c0,0,0.2,0,0.2-0.1
				c0.4-0.8,0.9-1.6,1.4-2.3c0.3-0.3,0.6-0.7,0.9-1c0.3-0.3,0.6-0.7,1-0.8c-0.5,0.1-0.9,0.2-1.4,0.4c0.1,0,0.2,0,0.3,0
				c0.1,0,0.2,0,0.2-0.1c0.2,0,0.4-0.1,0.5-0.1c0.2,0,0.4-0.1,0.5-0.1C16.6,216.3,16.7,216.3,16.8,216.3L16.8,216.3z"/>
		</g>
	</g>
	<g>
		<g>
			<path class="st1" d="M19.6,219.7c-1.9,1.2-3.4,2.9-4.3,4.9c0,0,0.2-0.1,0.2-0.1c0.2,0,0.4-0.1,0.5-0.1c0.2,0,0.4-0.1,0.5-0.1
				c0,0,0.2,0,0.2-0.1c0.9-2,2.4-3.8,4.3-4.9c0,0-0.2,0-0.2,0.1c-0.2,0-0.4,0.1-0.5,0.1c-0.2,0-0.4,0.1-0.5,0.1
				C19.8,219.7,19.7,219.7,19.6,219.7L19.6,219.7z"/>
		</g>
	</g>
	<g>
		<g>
			<path class="st1" d="M25.8,224.3c-0.2-0.1-0.5,0-0.7,0c-0.5,0.1-1,0.2-1.5,0.4c-0.5,0.2-0.9,0.5-1.3,0.8
				c-0.8,0.8-1.5,1.6-2.2,2.6c0,0,0.2-0.1,0.2-0.1c0.2,0,0.4-0.1,0.5-0.1c0.2,0,0.4-0.1,0.5-0.1c0,0,0.2,0,0.2-0.1
				c0.5-0.8,1.1-1.5,1.7-2.1c0.3-0.3,0.6-0.6,1-0.9c0.2-0.1,0.4-0.2,0.6-0.3c0.2-0.1,0.1,0-0.6,0.1c-0.6,0.1-0.8,0.2-0.6,0.2
				c0.1,0,0.1,0,0.2,0c0.1,0,0.2,0,0.3,0c0,0,0.2,0,0.2-0.1c0.2,0,0.4-0.1,0.5-0.1c0.2,0,0.4-0.1,0.5-0.1
				C25.6,224.3,25.7,224.3,25.8,224.3L25.8,224.3z"/>
		</g>
	</g>
	<path d="M196.2,149.3C178.8,165,158,179.7,136.5,189c-11.3-7.8-22.3-21.4-29.6-33.1c13.9-8,27.8-15.9,41.7-23.9
		c2.1,2.6,5.4,4,8.4,5.4C169.6,143.3,182.5,147.4,196.2,149.3z"/>
	<g>
		<g>
			<path d="M174.9,182.6c-3.6,3.4-7.7,6.3-12.1,8.4c-4.7,2.2-9.7,3.8-14.6,5.6c-1.2,0.4-2.4,0.8-3.6,1.3c-0.3,0.1-0.5,0.2-0.8,0.3
				c-0.4,0.1-0.5,0.1-0.6,0.5c-0.2,0.5,0.1,1.6,0.2,2.2c0.2,2.8,0.4,5.6,0.4,8.3c0.2,5.7,0,11.3-0.2,17c-0.3,6.3-0.9,12.6-1.6,18.9
				c1-0.3,1.9-0.5,2.9-0.8c-2.5,0.1-4.9,0.1-7.4,0.1c-0.8,0-2.9,0.4-3.4-0.1c-0.3-0.3-0.5-1-0.7-1.4c-0.3-0.6-0.6-1.2-0.9-1.8
				c-2-4.3-3.7-8.8-5.2-13.3c-2.9-9.1-4.7-18.5-5.2-28.1c-0.5-8.7-0.7-18.2,5.1-25.3c2.4-2.9,5.5-5.3,8.9-6.8
				c0.4-0.2,0.8-0.3,1.2-0.5c-0.3,0.1,1-0.3,1-0.3c-0.1,0.3-1.7,0.4-0.7,0.2c0.6-0.1,1.1-0.2,1.7-0.3c0.7-0.1,0.9,0.1,1.4,0.5
				c1.9,1.4,3.9,2.8,6,4c4.7,2.7,9.6,4.7,14.8,6.1c2.5,0.7,5.1,1.2,7.4,2.5C170.8,180.6,172.7,181.9,174.9,182.6
				c0.3,0.1,1.1-0.3,1.5-0.4c0.3-0.1,1.1-0.5,1.4-0.4c-2.1-0.6-3.9-1.8-5.8-2.9c-2.1-1.2-4.2-1.7-6.5-2.3c-4.9-1.3-9.7-3-14.2-5.4
				c-2.2-1.2-4.3-2.5-6.4-3.9c-0.5-0.3-1-0.7-1.4-1c-0.6-0.4-0.7-0.5-1.4-0.5c-0.9,0.1-1.8,0.3-2.7,0.5c-3.6,0.9-7.1,2-10.2,4.1
				c-3.3,2.3-6,5.4-7.8,9c-2.1,4.3-2.5,9.2-2.5,13.9c0,10.1,1.3,20.1,3.9,29.9c1.4,5.4,3.3,10.7,5.5,15.9c0.6,1.3,1.2,2.6,1.8,3.9
				c0.3,0.6,0.5,1.3,0.9,1.8c0.4,0.6,0.1,0.3,0.7,0.4c0.4,0.1,1,0,1.4,0c2.9-0.1,5.8,0,8.8-0.1c0.3,0,2.9-0.6,2.9-0.8
				c1.2-11.1,2.1-22.2,1.9-33.4c0-2.8-0.1-5.6-0.3-8.3c-0.1-1.4-0.2-2.8-0.3-4.2c0-0.4-0.1-0.6,0.1-0.8c0.2-0.2,0.6-0.2,0.8-0.3
				c0.6-0.2,1.2-0.4,1.9-0.7c5-1.8,10-3.4,14.9-5.5c5.2-2.2,10-5.3,14.1-9.2c-0.2,0.2-1.1,0.3-1.5,0.4
				C176,182.3,175.2,182.3,174.9,182.6z"/>
		</g>
	</g>
	<g>
		<g>
			<path d="M144.9,197.8c-2.1-1.3-3.5-3.4-4-5.7c0,0-0.5,0.2-0.4,0.3c0.5,2.4,2,4.5,4,5.7C144.5,198.1,144.8,197.8,144.9,197.8
				L144.9,197.8z"/>
		</g>
	</g>
	<g>
		<g>
			<path d="M144.9,197.5c-0.6-1.4-1.2-2.7-1.8-4.1c0,0-0.5,0.2-0.4,0.3c0.6,1.4,1.2,2.7,1.8,4.1
				C144.4,197.8,144.9,197.5,144.9,197.5L144.9,197.5z"/>
		</g>
	</g>
	<path d="M143.5,243.3c2.4,1.6,2.9,4.2,3.8,7c0.8,2.8,1,5.7,1,8.6c0,0.4,0,0.8-0.2,1.1c-0.3,0.3-0.8,0.4-1.2,0.5
		c-11.3,1.3-25.6,2.1-36.9,1.7c3.9-7.7,22.6-18,22.7-18C136.3,243.7,140,243.6,143.5,243.3z"/>
	<path d="M218.4,144.2c0.6,10-3.8,19.7-9.7,27.8c-9.3,12.7-21.8,23-36.6,28.4c-17.2-8.3-34.7-17.7-48-31.5
		c13.4-8.9,26.4-18.5,38.8-28.8c5.8,1.4,11.4,3.5,17.3,4.9c4.1,1,8.3,2,12.5,2.4C201.4,148.1,210,146.9,218.4,144.2z"/>
	<g>
		<g>
			<path class="st1" d="M129.5,168.4c11.9,11.6,26.2,20.8,41.7,26.8c0.4,0.2,1.1-0.5,1.5-0.4c-15.6-6-29.8-15.2-41.7-26.8
				C130.8,167.8,129.7,168.6,129.5,168.4L129.5,168.4z"/>
		</g>
	</g>
	<g>
		<g>
			<path class="st1" d="M207.7,147.8c-1.2,1.1-1.2,3.1-1.3,4.6c-0.1,1.7-0.1,3.4,0.1,5.2c0.2,1.7,0.6,3.4,1.2,5
				c0.3,0.8,0.6,1.7,1,2.5c0.3,0.7,0.6,1.5,1.3,2c0.3,0.2,1.2-0.6,1.5-0.4c-0.7-0.4-1-1.2-1.3-2c-0.4-0.8-0.7-1.6-1-2.5
				c-0.6-1.6-0.9-3.3-1.2-5c-0.2-1.7-0.3-3.4-0.1-5.2c0.1-1.5,0.1-3.5,1.3-4.6C208.8,147.7,208,147.5,207.7,147.8L207.7,147.8z"/>
		</g>
	</g>
	<g>
		<path class="st1" d="M123.1,249.2c2,0.3,3.7,1.7,4.6,3.5"/>
		<g>
			<path class="st1" d="M122.4,249.4c2,0.3,3.7,1.7,4.6,3.5c0,0,0.7-0.2,0.7-0.2c0.1,0,0.7-0.2,0.7-0.2c-0.8-1.8-2.6-3.2-4.6-3.5
				c0,0-0.2,0-0.2,0.1c-0.2,0-0.4,0.1-0.5,0.1c-0.2,0-0.4,0.1-0.5,0.1C122.5,249.3,122.4,249.4,122.4,249.4L122.4,249.4z"/>
		</g>
	</g>
	<g>
		<path class="st1" d="M128.6,246.2c2,0.8,3.7,2.4,4.5,4.3"/>
		<g>
			<path class="st1" d="M127.9,246.4c2,0.8,3.7,2.4,4.5,4.3c0,0,0.7-0.2,0.7-0.2c0.1,0,0.7-0.2,0.7-0.2c-0.9-2-2.5-3.5-4.5-4.3
				c0,0-0.2,0.1-0.2,0.1c-0.2,0-0.4,0.1-0.5,0.1c-0.2,0-0.4,0.1-0.5,0.1C128,246.4,127.9,246.4,127.9,246.4L127.9,246.4z"/>
		</g>
	</g>
	<g>
		<path class="st1" d="M119.5,252.1c1.3,0.4,2.5,1.3,3.1,2.6"/>
		<g>
			<path class="st1" d="M118.8,252.3c1.3,0.4,2.5,1.3,3.1,2.6c0,0,0.7-0.2,0.7-0.2c0.1,0,0.7-0.2,0.7-0.2c-0.6-1.2-1.8-2.2-3.1-2.6
				c0,0-0.2,0.1-0.2,0.1c-0.2,0-0.4,0.1-0.5,0.1c-0.2,0-0.4,0.1-0.5,0.1C118.9,252.2,118.8,252.3,118.8,252.3L118.8,252.3z"/>
		</g>
	</g>
	<g>
		<g>
			<path d="M188.6,50.7c-3-2-7.1-0.4-9.8,1.5c-2.2,1.5-4.2,3.2-6.3,4.9c-6.1,5.1-11.8,10.5-17.6,15.9
				c-12.9,12.2-25.4,24.8-37.5,37.8c-2.3,2.5-4.6,5-6.8,7.6c-0.5,0.5-0.9,1.1-1.4,1.6c-0.8,1-2.8,3.1-2,4.6c0.6,1.3,2.1,0.6,3.1,0.4
				c1.5-0.4,2.6-1,3.8-1.9c-1,0.3-1.9,0.5-2.9,0.8c-1.3,1.5-2.5,3.1-3.5,4.9c-0.6,1.1-2.4,3.4-0.8,4.4c0.9,0.6,2.7-0.3,3.7-0.6
				c1.6-0.5,3-1.9,4-3.1c-0.2,0.2-1.2,0.3-1.5,0.4c-0.3,0.1-1.2,0.1-1.4,0.4c-1.2,1.3-2.1,2.8-2.7,4.4c-0.5,1.5,0.4,2.3,1.9,1.9
				c3-0.8,5.6-1.9,7.1-4.9c-0.1,0.2-1.3,0.3-1.5,0.4c-0.2,0.1-1.3,0.2-1.4,0.4c-0.5,1.1-2.6,4.1-1.2,5c0.9,0.6,2.6-0.2,3.5-0.5
				c0.5-0.1,0.7-0.3,1.1-0.6c1.5-1.2,2.9-2.4,4.3-3.6c5.9-5,11.7-10.1,17.4-15.2c7.5-6.6,14.8-13.3,22.1-20.1
				c6.4-6,12.8-12,18.9-18.4c1.9-2,3.9-4.1,5.6-6.3c3.8-4.9,8.6-12.3,5-18.6C191,52.7,189.9,51.6,188.6,50.7
				c-0.2-0.1-1.3,0.3-1.5,0.4c-0.2,0.1-1.3,0.5-1.4,0.4c9.7,7.2,0.8,19.2-5.1,25.8c-5.1,5.7-10.7,10.9-16.2,16.2
				c-6.9,6.5-13.9,12.9-21,19.3c-6.2,5.6-12.5,11.1-18.8,16.6c-2.1,1.8-4.2,3.7-6.4,5.5c-1.1,0.9-2.2,1.7-3.2,2.6
				c-0.1,0.1-0.1,0.1-0.2,0.1c0.4-0.1,0.7-0.2,1.1-0.3c0,0,0,0,0,0c0.6-0.2,1.2-0.3,1.8-0.5c-3,0.2-0.3-4.1,0.3-5.2
				c-1,0.3-1.9,0.5-2.9,0.8c-0.9,2-2.5,3.4-4.6,4.2c0.9-0.3,1.9-0.5,2.8-0.8c-0.7,0.1-1.3-0.2-1.5-0.9c-0.2-0.6,0.2-1.3,0.4-1.9
				c0.6-1.4,1.4-2.6,2.4-3.7c-1,0.3-1.9,0.5-2.9,0.8c-1,1.2-2.3,2.5-3.8,3.1c1-0.3,1.9-0.5,2.9-0.8c-0.8,0.1-1.6-0.4-1.6-1.2
				c-0.1-0.9,0.7-2,1.1-2.7c1.1-2,2.4-3.7,3.9-5.5c-0.2,0.2-1.2,0.3-1.5,0.4c-0.4,0.1-1.1,0.1-1.4,0.4c-0.8,0.6-1.5,1.2-2.4,1.5
				c0.9-0.3,1.9-0.5,2.8-0.8c-1.2,0.2-2-0.9-1.7-1.9c0.4-1.4,1.5-2.7,2.5-3.8c0.7-0.8,1.4-1.6,2.1-2.5c1.9-2.1,3.8-4.2,5.7-6.3
				c5.1-5.5,10.3-10.9,15.6-16.2c11.3-11.5,22.8-22.8,34.8-33.4c2.5-2.2,5-4.3,7.6-6.4c1.7-1.4,3.7-3.2,5.8-4
				c-0.1,0-0.3,0.1-0.4,0.1c0.1,0,0.2-0.1,0.3-0.1c-0.8,0.2-1.7,0.4-2.5,0.7c1.4-0.3,3,0,4.2,0.8c0.2,0.1,1.2-0.3,1.5-0.4
				C187.4,51,188.5,50.5,188.6,50.7z"/>
		</g>
	</g>
	<g>
		<g>
			<path d="M112.7,130.4c1-1,2.1-2,3.2-2.8c0.3-0.2,0-0.7-0.3-0.4c-0.5,0.5-1.1,0.9-1.6,1.4c-0.5,0.5-1,1-1.5,1.6
				C112.4,130.3,112.6,130.6,112.7,130.4L112.7,130.4z"/>
		</g>
	</g>
	<g>
		<g>
			<path d="M116.5,132.3c0.7-0.9,1.3-1.8,1.8-2.8c0.1-0.3-0.3-0.5-0.4-0.2c-0.4,1-0.9,2-1.6,2.8
				C116.1,132.3,116.4,132.5,116.5,132.3L116.5,132.3z"/>
		</g>
	</g>
	<g>
		<g>
			<path d="M112.9,123.5c0.6-0.6,1.3-1.1,2-1.5c0.4-0.2,0.8-0.4,1.1-0.6c0.4-0.2,0.8-0.4,1.2-0.6c0.3-0.2,0-0.7-0.3-0.5
				c-0.4,0.2-0.8,0.5-1.1,0.7c-0.4,0.2-0.8,0.4-1.2,0.6c-0.7,0.4-1.5,0.9-1.9,1.7C112.5,123.5,112.7,123.6,112.9,123.5L112.9,123.5z
				"/>
		</g>
	</g>
	<g>
		<g>
			<path d="M114.6,121.8c0.4-0.8,1.1-1.5,1.8-2c0.2-0.1,0-0.5-0.2-0.3c-0.8,0.6-1.4,1.3-1.9,2.2
				C114.3,121.8,114.5,121.9,114.6,121.8L114.6,121.8z"/>
		</g>
	</g>
	<g>
		<g>
			<path class="st2" d="M194.5,54.8c-1.9,2.3-2.6,5.5-2.4,8.4c0.3,3.1,1.7,6,4,8.1c5,4.4,12.5,4.2,18.2,1.3c3.5-1.8,6.5-4.5,8.9-7.5
				c0.6-0.7-0.4-1.8-1-1c-4,4.7-9.4,8.9-15.8,9.2c-2.9,0.1-5.8-0.5-8.2-2.1c-2.4-1.6-4-4-4.7-6.8c-0.8-3.2-0.1-6.3,1.5-9.2
				C195.2,54.9,194.7,54.5,194.5,54.8L194.5,54.8z"/>
		</g>
	</g>
	<g>
		<g>
			<path d="M127.1,131.8c0,0-0.1,0-0.1,0c0,0.1,0,0.2,0,0.4c0.1,0,0.1,0,0.2,0c0.1,0,0.2,0,0.3,0c0.2,0,0.4,0,0.6-0.1
				c0.3,0,0.7-0.1,1-0.2c0.3-0.1,0.7-0.2,1-0.3c0.3-0.1,0.7-0.3,1-0.5c0.3-0.2,0.1-0.7-0.3-0.5c-0.3,0.1-0.6,0.3-0.9,0.5
				c-0.3,0.1-0.6,0.2-0.9,0.3c-0.3,0.1-0.7,0.2-1,0.2c-0.2,0-0.3,0-0.5,0.1c-0.2,0-0.3,0-0.5,0.1C126.9,131.8,127,131.8,127.1,131.8
				c-0.1,0-0.1,0-0.2,0c-0.2,0-0.3,0.3,0,0.4c0,0,0.1,0,0.1,0C127.2,132.2,127.3,131.9,127.1,131.8L127.1,131.8z"/>
		</g>
	</g>
	<g>
		<g>
			<path d="M123,138.9c0.9-0.3,1.8-0.7,2.7-1.2c0.9-0.5,1.7-1,2.5-1.6c0.3-0.2-0.1-0.7-0.4-0.4c-0.4,0.3-0.7,0.6-1.1,0.9
				c-0.4,0.3-0.8,0.5-1.2,0.8c-0.8,0.5-1.7,0.9-2.5,1.3C122.7,138.7,122.8,138.9,123,138.9L123,138.9z"/>
		</g>
	</g>
	<g>
		<g>
			<path d="M124.7,142.8c0.8-0.2,1.6-0.5,2.4-0.9c0.8-0.4,1.5-0.9,2.2-1.4c0.3-0.2-0.1-0.6-0.4-0.4c-0.6,0.5-1.3,1-2,1.4
				c-0.7,0.4-1.5,0.7-2.2,1.1C124.5,142.7,124.6,142.9,124.7,142.8L124.7,142.8z"/>
		</g>
	</g>
	<g>
		<g>
			<path d="M109.1,51.3c0.1,8.4,5.7,15.9,13.8,18.1c4.1,1.1,8,0.6,11.9-0.5c3.8-1,7.3-2.8,10-5.8c5.6-6.3,6.4-15.8,1.8-22.9
				c-4.6-7-13.1-9.9-21.1-7.8c-4.4,1.1-8.3,2.7-11.5,6.1C110.9,42,109.1,46.6,109.1,51.3c0-0.2,2.9-0.5,2.9-0.8
				c0.1-7.5,4.6-14.5,11.6-17.4c0.5-0.2,1.1-0.3,1.5-0.6c-0.8,0.6-1.6,0.4-0.9,0.2c0.3-0.1,0.6-0.1,0.9-0.2c1-0.1,2.1-0.2,3.1-0.2
				c1.9,0,3.8,0.4,5.7,1c3.4,1.1,6.5,3.3,8.7,6.1c4.8,6,5.4,14.6,1.6,21.2c-1.8,3.1-4.6,5.7-7.8,7.4c-0.3,0.2-2.5,1.3-2.7,1.1
				c-0.1-0.1,2-0.4,0.9-0.2c-0.3,0.1-0.6,0.1-0.9,0.2c-0.5,0.1-1,0.1-1.5,0.2c-1.9,0.1-3.9,0-5.8-0.5c-8.3-2.1-14.2-9.7-14.2-18.3
				C112,50.7,109.1,51,109.1,51.3z"/>
		</g>
	</g>
	<g>
		<g>
			<path d="M111.9,56.2c10.9-4.3,20-12.3,25.7-22.5c-0.2,0.3-1.3,0.1-1.5,0.4c-5.7,10.2-14.8,18.2-25.7,22.5
				C110.9,56.4,111.4,56.4,111.9,56.2L111.9,56.2z"/>
		</g>
	</g>
	<g>
		<g>
			<path d="M115.1,61.9c6.1-2.1,11.1-6.6,15.7-11c4.4-4.3,8.4-9.2,10.1-15.2c-0.1,0.2-1.4,0.1-1.5,0.4c-1.6,6-5.6,11-10.1,15.2
				c-4.6,4.4-9.6,8.9-15.7,11C114.1,62.1,114.6,62.1,115.1,61.9L115.1,61.9z"/>
		</g>
	</g>
	<g>
		<g>
			<path d="M120.9,67.1c11.5-5.4,20.6-15.3,25-27.3c-0.1,0.3-1.4,0.1-1.5,0.4c-4.4,11.9-13.5,21.9-25,27.3
				C119.8,67.3,120.4,67.3,120.9,67.1L120.9,67.1z"/>
		</g>
	</g>
	<g>
		<g>
			<path d="M117.2,35.9c-0.7,5.3,0.9,10.7,4.4,14.7c0.2,0.2,1.3-0.6,1.5-0.4c-3.5-4-5.1-9.4-4.4-14.7
				C118.6,35.6,117.2,35.7,117.2,35.9L117.2,35.9z"/>
		</g>
	</g>
	<g>
		<g>
			<path d="M121.6,34.1c-0.5,4.7,1,9.5,4,13c0.1,0.2,1.4-0.6,1.5-0.4c-3.1-3.6-4.5-8.4-4-13C123.1,33.9,121.6,33.9,121.6,34.1
				L121.6,34.1z"/>
		</g>
	</g>
	<g>
		<g>
			<path d="M126.9,32.9c0.3,2.7,1.4,5.3,3.2,7.4c0,0,0.7-0.2,0.7-0.2c0.1,0,0.7-0.3,0.7-0.2c-1.8-2.1-2.9-4.6-3.2-7.4
				C128.4,32.6,126.9,32.9,126.9,32.9L126.9,32.9z"/>
		</g>
	</g>
	<g>
		<g>
			<path d="M130.4,40.7c0.1,0.1,0.2,0.2,0.3,0.3c0,0,0,0,0.1,0c0.1,0,0.1,0,0.2,0c0.2,0,0.4-0.1,0.5-0.1c0.2,0,0.4-0.1,0.5-0.1
				c0,0,0.1,0,0.1,0c0,0,0.1,0,0.1,0c-0.1-0.1-0.2-0.2-0.3-0.3c0,0,0,0-0.1,0c-0.1,0-0.1,0-0.2,0c-0.2,0-0.4,0.1-0.5,0.1
				c-0.2,0-0.4,0.1-0.5,0.1c0,0-0.1,0-0.1,0C130.5,40.7,130.4,40.7,130.4,40.7L130.4,40.7z"/>
		</g>
	</g>
	<g>
		<g>
			<path d="M113.4,40.1c-1.4,2-1.8,4.4-1.5,6.8c0.2,1.3,0.5,2.6,0.9,3.9c0.2,0.7,0.5,1.3,0.7,2c0.2,0.5,0.3,1.1,0.8,1.4
				c0.1,0.1,0.7-0.2,0.7-0.2c0.1,0,0.7-0.3,0.7-0.2c-0.4-0.4-0.6-0.9-0.8-1.4c-0.2-0.7-0.5-1.3-0.7-2c-0.4-1.3-0.7-2.6-0.9-3.9
				c-0.3-2.4,0.1-4.9,1.5-6.8c-0.1,0.1-0.6,0.2-0.7,0.2C114,40,113.5,40,113.4,40.1L113.4,40.1z"/>
		</g>
	</g>
	<g>
		<g>
			<path d="M138.2,52.2c0.4,1.5,1.9,2.3,3.1,3.1c1.5,1,3,2,4.6,2.9c0.1,0.1,0.6-0.2,0.7-0.2c0.2,0,0.4-0.1,0.5-0.1
				c0,0,0.2-0.1,0.2-0.1c-1.5-0.9-3.1-1.9-4.6-2.9c-1.2-0.8-2.6-1.7-3.1-3.1C139.7,51.7,138.2,52.2,138.2,52.2L138.2,52.2z"/>
		</g>
	</g>
	<g>
		<g>
			<path d="M133.2,58.2c2.2,2.7,5.3,4.5,8.7,5.3c0.2,0,0.6-0.1,0.7-0.2c0.2,0,0.4-0.1,0.5-0.1c0,0,0.2-0.1,0.2-0.1
				c-3.4-0.8-6.5-2.6-8.7-5.3c0,0-0.7,0.2-0.7,0.2C133.9,58.1,133.2,58.3,133.2,58.2L133.2,58.2z"/>
		</g>
	</g>
	<g>
		<g>
			<path d="M127.3,63.1c-0.1,1,1.2,1.5,1.9,1.9c1,0.6,2,1,3,1.5c1,0.4,2.1,0.8,3.1,1c1,0.2,2-0.1,3-0.4c0.3-0.1-0.2,0.1-0.3,0.1
				c-0.3,0.1-0.7,0.2-1,0.3c0,0,1.3-0.2,0.7-0.2c-0.1,0-0.2,0-0.3,0c-0.2,0-0.5,0-0.7-0.1c-0.5-0.1-0.9-0.2-1.3-0.4
				c-0.9-0.3-1.8-0.6-2.7-1c-0.8-0.4-1.7-0.8-2.5-1.3c-0.6-0.4-1.6-0.8-1.5-1.7c0,0-0.7,0.2-0.7,0.2C127.9,62.9,127.3,63,127.3,63.1
				L127.3,63.1z"/>
		</g>
	</g>
	<g>
		<g>
			<path d="M226.8,40.7c-6.3,7.6-5.3,20-14.1,25.7c-0.5,0.3-1,0.6-1.6,0.9c-0.3,0.2-1.9,0.7-2,0.8c0-0.1,2.6-0.6,0.7-0.2
				c-0.3,0.1-0.6,0.1-0.9,0.1c-0.7,0.1-1.3,0.1-2,0.1c-2.5-0.1-5.1-0.9-6.6-2.9c-3.1-3.9-1.6-9.9,1.3-13.4c0.9-1.1,2-1.9,2.9-3
				c1.1-1.1,2-2.3,2.9-3.6c0.9-1.3,1.6-2.6,2.3-4c0.7-1.4,1.3-2.8,0.7-4.3c-1,0.3-1.9,0.5-2.9,0.8c3.2,2.5,7.8,3.7,11.8,4.1
				c3.4,0.3,7.2-0.5,10.4-1.8C228.8,40.3,227.7,40.3,226.8,40.7c-0.3,0.1-0.6,0.2-0.9,0.3c0.6-0.2,1.2-0.3,1.7-0.5
				c-0.4,0-1,0.2-1.5,0.3c-0.8,0.1-1.5,0.2-2.3,0.2c-1.5,0-3-0.2-4.5-0.5c-3.1-0.6-6.3-1.6-8.9-3.6c-0.2-0.2-2.8,0.9-2.9,0.8
				c0.5,1.4,0,2.7-0.6,4c-0.6,1.4-1.4,2.7-2.2,4c-0.8,1.2-1.6,2.3-2.6,3.3c-1,1.1-2.2,2.1-3.2,3.2c-3.2,3.7-5,10.5-1.1,14.4
				c3.7,3.7,9.6,2.3,14,0.8c2.4-0.8,4.6-2.1,6.3-3.9c1.9-1.9,3-4.2,4-6.7c2.2-5.7,3.5-12,7.4-16.8c-0.2,0.2-1.2,0.3-1.5,0.4
				C227.9,40.4,227,40.4,226.8,40.7z"/>
		</g>
	</g>
	<g>
		<g>
			<path d="M240,24c-0.1-8.2-7.1-15.7-15.2-16.9c-3.4-0.5-6.7,0.4-9.9,1.4c-3.5,1.1-6.6,3.2-8.8,6.2c-4.3,5.7-4.5,13.9-0.8,20
				c3.9,6.5,11.7,9.3,18.9,7.5c1.8-0.5,3.7-0.9,5.4-1.7c1.9-0.9,3.7-2.3,5.1-3.9C237.8,33.1,239.9,28.6,240,24
				c0,0.3-2.9,0.5-2.9,0.8c-0.1,6.9-4.7,14-11.1,16.7c-0.1,0-1,0.4-1,0.4c0,0,2.2-0.5,0.9-0.3c-0.5,0.1-1,0.2-1.5,0.2
				c-0.9,0.1-1.8,0.1-2.7,0.1c-1.8-0.1-3.5-0.5-5.1-1.1c-3-1.1-5.6-3.1-7.5-5.7c-3.7-5-4.5-11.9-2.1-17.6c1.3-3.1,3.5-5.7,6.3-7.6
				c0.7-0.4,1.4-0.8,2.1-1.2c0.4-0.2,0.8-0.4,1.2-0.5c0.2-0.1,0.3-0.1,0.5-0.2c0.2-0.1,0.4-0.1,0.6-0.2c-0.4,0.1-0.7,0.2-1.1,0.3
				c0.6-0.4,2.1-0.3,2.8-0.3c0.9,0,1.8,0,2.6,0.2c8,1.2,15.1,8.6,15.2,16.9C237.1,24.5,240,24.2,240,24z"/>
		</g>
	</g>
	<path d="M232.6,36.1c1.6,0.2,3.6-1.5,4.7-2.4c1.7-1.4,3.2-3,4.1-4.9c1-2,1.5-4.3,0.6-6.2c2.3-1.3,2.9-4.1,2.6-6.5
		c-0.5-3.2-2.9-6.3-6.4-6.9c-0.6-3-2.8-5.7-5.7-7.1c-2.9-1.4-6.6-1.6-9.8-0.4c-1.9-1.8-5.1-2.2-7.7-1.3c-2.6,0.9-4.7,2.9-5.9,5.2
		c-0.7,1.4-1.1,2.9-0.8,4.4c0.4,2.6,2.8,4.8,5.7,5.1c0.1,1.3,1.5,2.5,2.7,3.1c3.3,1.7,7.9,1.1,10.7-1.3c-0.2,1.5-0.1,3,0.8,4.2
		c0.9,1.2,2.7,1.9,4.2,1.4c-0.9,0.3-1.7,3.4-2,4.2c-0.5,1.7-0.9,3.5-0.6,5.3C230.1,33.5,230.8,36,232.6,36.1z"/>
	<g>
		<g>
			<path d="M214.9,20.4c-0.4,0.3-0.8,0.8-1.1,1.2c-0.3,0.4-0.6,0.9-0.9,1.4c-0.4,0.8-1.1,2.2,0.1,2.7c0.4,0.2,0.6-0.4,0.3-0.6
				c-0.3-0.2-0.1-0.7,0-1c0.2-0.4,0.3-0.8,0.5-1.2c0.2-0.4,0.4-0.8,0.6-1.2c0.2-0.4,0.5-0.7,0.8-1.1
				C215.4,20.4,215.1,20.3,214.9,20.4L214.9,20.4z"/>
		</g>
	</g>
	<g>
		<g>
			<path d="M208.7,27c-0.5,1.9,0.6,3.8,2.2,4.8c1.7,1,4.1,0.9,5.7-0.2c0.3-0.2,0-0.7-0.3-0.5c-1.6,0.8-3.4,1.1-5,0.2
				c-0.7-0.4-1.3-0.9-1.7-1.6c-0.5-0.8-0.6-1.7-0.6-2.6C209,26.8,208.8,26.8,208.7,27L208.7,27z"/>
		</g>
	</g>
	<path d="M220.6,23.2c-0.3,0.5-0.7,0.8-1,0.6s-0.3-0.7-0.1-1.2c0.3-0.5,0.7-0.8,1-0.6C220.8,22.1,220.8,22.7,220.6,23.2z"/>
	<path d="M212.5,19.5c-0.3,0.5-0.7,0.8-1,0.6c-0.3-0.2-0.3-0.7-0.1-1.2c0.3-0.5,0.7-0.8,1-0.6C212.7,18.5,212.8,19,212.5,19.5z"/>
	<g>
		<g>
			<path class="st1" d="M216.5,1.8c-0.8,0.1-1.8,0.5-2.3,1.1c-0.4,0.4-0.7,1-0.8,1.6c-0.1,0.7,0.3,1.4,1,1.5
				c0.1-0.1,0.3-0.2,0.4-0.3c-0.7,0-1.4,0.6-1.8,1.1c-0.6,0.8-0.7,2-0.3,2.9c0.4,0.9,1.4,1.5,2.4,1.6c0.8,0,1.4-0.3,2.1-0.7
				c-0.1,0.1-0.3,0.2-0.4,0.2c-0.2,0.1-0.6,0.2-0.9,0.2c-0.4,0-0.7,0-1.1-0.2c-0.7-0.2-1.3-0.7-1.6-1.4c-0.3-0.6-0.4-1.4-0.2-2.1
				c0.1-0.4,0.3-0.7,0.5-1c0.2-0.3,0.4-0.5,0.9-0.5c0.1,0,0.3-0.3,0.4-0.3c-1.1-0.1-1.2-1.5-0.8-2.3c0.4-0.9,1.1-1.4,2-1.4
				C216.2,2.1,216.3,1.8,216.5,1.8L216.5,1.8z"/>
		</g>
	</g>
	<g>
		<g>
			<path class="st1" d="M223,3.7c-0.9,0.7-1.5,2-1.3,3.1c0.1,0.6,0.5,1,1.1,1.1c0.3,0,0.6,0,0.8,0c0.1,0,0.3-0.1,0.4-0.1
				c0.2-0.1,0.2,0,0.1,0.2c-0.3,1.1,0.2,2.3,1.2,2.9c1,0.7,2.4,0.7,3.5,0.2c0.9-0.4,1.7-1,2.3-1.8c-0.1,0.1-0.3,0.1-0.4,0.3
				c-0.2,0.3-0.5,0.6-0.8,0.8c-0.4,0.3-0.5,0.4-0.9,0.5c-0.6,0.3-1.3,0.3-2,0.2c-1.3-0.2-2.4-1.2-2.5-2.5c0-0.3,0-0.6,0.1-0.9
				c0-0.1,0.1-0.2,0.1-0.2c-0.1,0-0.2,0-0.3,0.1c-0.2,0-0.3,0.1-0.5,0.1c-0.6,0.1-1.2,0-1.6-0.6c-0.7-1.2,0.2-2.8,1.1-3.6
				C223.3,3.5,223.1,3.6,223,3.7L223,3.7z"/>
		</g>
	</g>
	<g>
		<g>
			<path class="st1" d="M230.3,5.2c-0.4,0.5-0.2,1.2,0.2,1.7c0.2,0.2,0.5,0.3,0.9,0.4c0.3,0,0.7-0.1,0.9-0.3
				c0.4-0.2,0.7-0.4,0.9-0.8c0,0-0.1,0-0.1,0c-0.1,0-0.1,0.1-0.2,0.1c-0.1,0-0.1,0.1-0.2,0.1c0,0-0.1,0-0.1,0
				c-0.1,0.1-0.2,0.2-0.3,0.3c-0.1,0-0.1,0.1-0.2,0.1c0,0,0,0-0.1,0c-0.1,0.1,0.4-0.2,0.3-0.2c0,0-0.1,0-0.1,0.1
				c-0.3,0.1-0.6,0.2-0.9,0.1c-0.6-0.1-1-0.6-1-1.1c0-0.3,0-0.6,0.2-0.9c0,0-0.1,0-0.1,0c-0.1,0-0.1,0.1-0.2,0.1
				C230.5,5.1,230.3,5.1,230.3,5.2L230.3,5.2z"/>
		</g>
	</g>
	<g>
		<g>
			<path class="st1" d="M220.1,13.2c-0.3,0.8,0.4,1.6,1.2,1.7c0.5,0.1,0.9,0,1.4-0.3c0.4-0.2,0.8-0.4,1.2-0.7
				c-0.1,0.1-0.3,0.1-0.4,0.3c-0.1,0.1-0.2,0.1-0.3,0.2c-0.1,0-0.1,0.1-0.2,0.1c-0.1,0.1,0,0,0.2-0.1c0,0-0.1,0-0.1,0
				c-0.2,0.1-0.4,0.2-0.6,0.2c-0.4,0.1-0.8,0.1-1.1-0.1c-0.6-0.3-1-1-0.8-1.6c0,0-0.2,0.1-0.2,0.1C220.3,13.1,220.1,13.2,220.1,13.2
				L220.1,13.2z"/>
		</g>
	</g>
	<g>
		<g>
			<path class="st1" d="M235.8,11.3c-0.3-0.1-0.7,0.1-0.9,0.3c-0.4,0.3-0.6,0.8-0.8,1.3c-0.1,0.5-0.2,1.1,0,1.6
				c0.2,0.5,0.9,0.5,1.3,0.5c0.3-0.1,0.6-0.3,0.8-0.4c0.1-0.1,0.3-0.4,0.1-0.3c-0.1,0-0.3,0.1-0.4,0.2c-0.3,0.2-0.4,0.9-0.4,1.2
				c0,0.5,0.1,1,0.4,1.4c0.9,1,2.3,0.5,3.3,0c0.1-0.1,0.3-0.2,0.4-0.2c-0.9,0.5-2.2,0.9-3.1,0.2c-0.4-0.3-0.6-0.8-0.6-1.3
				c0-0.2,0-0.5,0.1-0.7c0-0.2,0.1-0.5,0.3-0.7c-0.1,0.1-0.3,0.2-0.4,0.3c0.3-0.1-0.1,0.4-0.2,0.4c0.1-0.1,0.3-0.2,0.4-0.2
				c-0.3,0.2-0.9,0.2-1.3,0c-0.4-0.2-0.4-0.6-0.4-0.9c-0.1-0.8,0.2-1.8,0.9-2.3c-0.1,0.1-0.3,0.1-0.4,0.2c0,0,0.1,0,0.1,0
				c0,0,0,0-0.1,0c0.1-0.1,0.3-0.1,0.4,0C235.4,11.6,235.7,11.3,235.8,11.3L235.8,11.3z"/>
		</g>
	</g>
	<g>
		<g>
			<path class="st1" d="M231.3,16.9c-0.3,0.5-0.2,1.2,0.2,1.6c0.4,0.4,1,0.5,1.5,0.3c0.2-0.1,0.3-0.2,0.4-0.3
				c-0.5,0.2-1.2,0.1-1.5-0.3c-0.4-0.4-0.5-1.1-0.2-1.6c0,0-0.1,0-0.1,0c-0.1,0-0.1,0.1-0.2,0.1C231.4,16.8,231.4,16.9,231.3,16.9
				C231.3,16.9,231.3,16.9,231.3,16.9L231.3,16.9z"/>
		</g>
	</g>
	<g>
		<g>
			<path class="st1" d="M233.5,25.6c-0.3,0.5-0.4,1-0.2,1.6c0.2,0.6,0.6,1,1.1,1.3c0.6,0.3,1.2,0.3,1.8,0.2c0.6-0.1,1.1-0.4,1.6-0.7
				c0.1-0.1-0.1,0-0.1,0c-0.1,0.1-0.2,0.1-0.3,0.2c0.4-0.2,0.1,0,0,0c-0.1,0-0.2,0.1-0.2,0.1c-0.1,0-0.3,0.1-0.4,0.1
				c-0.3,0.1-0.6,0.1-0.9,0.1c-0.5,0-1-0.2-1.4-0.5c-0.8-0.6-1.1-1.8-0.5-2.6c0,0.1-0.2,0.1-0.2,0.1
				C233.6,25.5,233.5,25.6,233.5,25.6L233.5,25.6z"/>
		</g>
	</g>
	<g>
		<g>
			<path class="st1" d="M237.6,23c0.2,0.4,0.7,0.6,1.2,0.5c0.1,0,0.2-0.1,0.3-0.1c0.2-0.1,0.3-0.2,0.5-0.3c0.2-0.1,0.3-0.3,0.4-0.5
				c0,0-0.1,0-0.1,0c-0.1,0-0.1,0.1-0.2,0.1s-0.1,0.1-0.2,0.1c0,0-0.1,0-0.1,0c-0.1,0.2-0.2,0.3-0.3,0.4c0,0,0,0,0,0
				c-0.1,0.1-0.1,0,0.1-0.1c0.2-0.1,0.2-0.1,0.1-0.1c0,0,0,0,0,0c0,0-0.1,0-0.1,0c-0.1,0-0.2,0-0.3,0c-0.4,0-0.8-0.2-1-0.6
				C238,22.8,237.6,23,237.6,23L237.6,23z"/>
		</g>
	</g>
	<path d="M218.9,144.1c3.2-5.5,5.2-11.5,7.1-17.5c6-19.2,10.5-39.1,13.3-59c-7.9-6.1-17.3-10.1-26.9-12.7c-9.6-2.6-18.9-4.2-28.9-5
		c-7.4,18.1-15.6,36.9-23.1,54.9c-3.8,9.1-7.5,18.3-12.3,27c2.5,3.7,6.2,7.1,10.1,9.2C176.5,150.9,199.8,152,218.9,144.1z"/>
	<g>
		<g>
			<path d="M244.6,70.3c-1.3-2.7-3.4-4.9-6.1-6.2c-2.7-1.2-5.2-0.9-7.9-0.2c-3.9,1-7.2,3.5-10.6,5.5c-8.7,5.2-17.4,10.6-26,16
				c-9.7,6-19.3,12.1-28.9,18.1c-7.7,4.8-15.4,9.7-23.2,14.5c-3.3,2-6.5,4-9.9,5.9c-2.6,1.4-5.3,2.7-7.8,4.1
				c-0.9,0.5-4.2,2.2-2.9,3.6c1,1.1,3.1,1,4.3,0.9c1-0.3,1.9-0.5,2.9-0.8c-3.8,0.7-7.4,2.4-10.6,4.6c-0.6,0.4-1.2,0.8-1.5,1.4
				c-0.6,1-0.3,2.2,0.8,2.5c1.2,0.3,2.6-0.2,3.8-0.6c1.3-0.4,2.5-0.8,3.8-1.4c-1,0.3-1.9,0.5-2.9,0.8c-1.5,1.1-4.1,2-4.6,4
				c-0.4,1.4,0.8,1.7,1.9,1.6c2.7-0.3,5.5-1.4,8-2.5c-1,0.3-1.9,0.5-2.9,0.8c-0.9,0.6-3.1,2.2-2.1,3.6c0.6,0.8,2.2,0.6,3,0.5
				c3-0.3,6-1.3,8.8-2.1c10-3,19.6-6.7,29-11.2c11.2-5.3,22.5-10.4,33.4-16.4c10.5-5.7,20.4-12.3,29.7-19.7c5-4,9.7-8.2,14-12.9
				C243.8,80.6,247,75.8,244.6,70.3c-0.1-0.2-2.9,0.9-2.9,0.8c1.9,4.5,0.2,8.8-2.7,12.4c-3.2,4-7.1,7.6-10.9,10.9
				c-8.5,7.3-17.6,13.8-27.2,19.5c-10,6-20.5,11.1-31.1,16.1c-10.4,4.9-20.8,9.9-31.8,13.6c-2,0.7-4,1.2-6,1.9
				c-0.3,0.1-0.6,0.2-0.9,0.3c-0.5,0.2-1.8,0.3,0.1,0c-0.9,0.1-1.7,0.4-2.6,0.5c-0.9,0.1-2.6,0.4-3.4-0.4c-1.3-1.3,1.1-3.1,2-3.7
				c-0.8,0.5-2,0.4-2.9,0.8c-0.8,0.4-1.6,0.7-2.4,1c-0.9,0.3-1.9,0.2,0.8-0.2c-0.3,0-0.7,0.1-1,0.2c-0.4,0-0.9,0-1.2-0.2
				c-1-0.6-0.3-1.9,0.2-2.6c1.1-1.3,2.7-1.9,4-2.9c-0.3,0.2-1.1,0.3-1.5,0.4c-0.5,0.1-1,0.2-1.4,0.4c-0.3,0.1-1.5,0.4-1.6,0.7
				c1.1-0.2,1.3-0.3,0.6-0.2c-0.3,0-0.5,0-0.8-0.1c-0.7-0.2-1.2-0.7-1.2-1.5c0.1-1.1,1-1.8,1.9-2.4c1.2-0.8,2.4-1.5,3.6-2.1
				c0.7-0.3,1.3-0.7,2-1c0.3-0.1,0.6-0.2,0.9-0.4c1-0.4,2.2-0.3-1.7,0.4c1-0.2,1.9-0.7,2.9-0.8c-1.4,0.2-6.2-0.3-4.1-2.6
				c1.2-1.3,3-2.1,4.6-2.9c4.5-2.3,8.9-4.8,13.2-7.5c7-4.2,13.9-8.6,20.8-12.9c9.2-5.8,18.5-11.6,27.7-17.4
				c8.8-5.5,17.7-11,26.6-16.4c3.5-2.1,7-4.2,10.5-6.3c0.7-0.4,1.4-0.8,2.2-1.3c0.5-0.3,2.3-0.9,0.6-0.5c-1.8,0.4-0.3,0.1,0.2,0
				c0.4,0,0.7,0,1.1,0c2.8,0.1,5.5,1.5,7.4,3.4c1.1,1.1,1.9,2.3,2.5,3.6C241.8,71.2,244.5,70.1,244.6,70.3z"/>
		</g>
	</g>
</g>
<g id="DESIGNED_BY_FREEPIK">
</g>
</svg>
