<?xml version="1.0" encoding="utf-8"?>
<!-- Generator: Adobe Illustrator 23.0.1, SVG Export Plug-In . SVG Version: 6.00 Build 0)  -->
<svg version="1.1" id="レイヤー_1" xmlns="http://www.w3.org/2000/svg" xmlns:xlink="http://www.w3.org/1999/xlink" x="0px"
	 y="0px" viewBox="0 0 1200 1216" style="enable-background:new 0 0 1200 1216;" xml:space="preserve">
<style type="text/css">
	.st0{fill:none;stroke:#000000;stroke-width:3.172;stroke-miterlimit:10;}
	.st1{fill:#2F3030;}
	.st2{enable-background:new    ;}
	.st3{fill:none;stroke:#000000;stroke-width:6.344;stroke-miterlimit:10;}
</style>
<g id="寄木細工">
	<path class="st0" d="M517.4,62.4L554.2,45l24.4,24.6l1.1,28.6l-18.4,10.3L517.4,62.4z M516.4,85.9l1-23.5l43.9,46.1l-11.2,6.1
		L516.4,85.9z"/>
	<path class="st0" d="M554.2,45l24.4-13.3v37.9L554.2,45z M581.8,21.5L611.3,46l-3.1,58.4L592,91.1l-12.2,7.1L581.8,21.5z"/>
	<path class="st0" d="M617.4,3.1l-35.7,18.4L611.3,46L645,29.7L617.4,3.1z"/>
	<path class="st0" d="M639.9,71.6l33.6-19.4L645,29.7L611.3,46L639.9,71.6z"/>
	<path class="st0" d="M635.8,147.3l-14.3-12.2v-14.4l-13.3-16.3l3.1-58.4l28.6,25.6L635.8,147.3z"/>
	<path class="st0" d="M671.5,130l2-77.8L640,71.6l-4.1,75.7L671.5,130z M555.2,153.5l66.3-32.8v14.4l-65.3,33.7L555.2,153.5z
		 M515.4,135.1l-28.6-25.6l33.7-16.4l29.6,21.5L515.4,135.1z M513.4,211.8l2-76.7l34.7-20.5l-2.1,75.7L513.4,211.8z"/>
	<path class="st0" d="M458.3,82.9L497,65.5l19.4,20.4l4.1,7.2l-33.7,16.4L458.3,82.9z"/>
	<path class="st0" d="M454.2,158.6l4.1-75.7l28.5,26.6l-1,59.3l-15.3-15.3L454.2,158.6z M485.8,168.8l14.3,13.3v15.4l10.2,7.2
		 M673.5,52.2l32.7-16.4l28.5,23.5L673.5,90v15.4l7.2,6.1l36.7-19.4l27.5,21.5L708.2,134l-5.1,53.3L686.8,175l-15.3,12.3l9.2-75.8
		 M733.3,59.5l-1.4,42.8 M674.9,158.4L656,138.9"/>
	<path class="st0" d="M715.8,223.5l16.6,13.9l8.8-79.9L708.2,134l-5.1,53.3l13.5,14.8L715.8,223.5z M774,142.2l-32.9,15.3L708.2,134
		l36.7-20.4L774,142.2z"/>
	<path class="st0" d="M769.4,216.5l-37.1,20.9l8.8-79.9l32.9-15.3L769.4,216.5z"/>
	<path class="st0" d="M829.5,143.1l-57.4,33.5l1.9-34.4l-5.6-7l33.4-19.5L829.5,143.1z M643,200.7l27.3-16.2 M656.4,240.2l59.7-33
		 M583.3,199.3l-26.4-26.5l32.9-17.1l29.6,23.6L583.3,199.3z"/>
	<path class="st0" d="M613.8,230.4l-30.5-31.1l36.1-20l33.8,32.1L613.8,230.4z"/>
	<path class="st0" d="M611.1,303.3l2.7-72.9l39.4-19l-2.3,67.8L611.1,303.3z"/>
	<path class="st0" d="M594.9,289.9v-16.8l-15.8-15.7l4.2-58.1l30.5,31.1l-2.7,72.9L594.9,289.9z M550.4,248.5l6.5-75.7l26.4,26.5
		l-4.2,58.1l-15.3-13.5L550.4,248.5z M604.6,145.4l50.4,46 M453.7,124.5l-18.1-19l19-11.1 M425.9,222.1l74.2-40 M443,168.7
		l-45.3-45.1l37.9-18.1 M395.3,154.3l2.4-30.7"/>
	<path class="st0" d="M394.9,151.5l27.3,28.3l48.3-26.3 M353.7,174.7l-22.2-26.5l36.1-18.1l23.1,25.1L353.7,174.7z"/>
	<path class="st0" d="M383.3,203l-29.6-28.3l37-19.5l28.7,28.8L383.3,203z M331.5,225.8v-77.6l22.2,26.5l-0.9,51.5l-7.5-7.8
		L331.5,225.8z"/>
	<path class="st0" d="M371.7,266.6v-18.1l-18.9-22.3l0.9-51.5l29.6,28.3l3.2,76.6L371.7,266.6z"/>
	<path class="st0" d="M406,269l-19.5,10.6l-3.2-76.6l36.1-19l0.9,99.8L406,269z M331.9,191.9l-20.3-24.6l17.1-9.3"/>
	<path class="st0" d="M315.3,234.6l-42.2-46l38.5-21.3 M296.7,243l-23.1-25.6l-0.5-28.8 M258.3,269.9l73.2-44.1l13.8-7.4l26.4,30.1
		l-87.5,48.3L258.3,269.9z M259.7,304.3l-1.4-34.4l25.9,26.9l0.5,27.9L259.7,304.3z"/>
	<path class="st0" d="M353.7,295l-69,29.7l-0.5-27.9l84.8-45l2.7,14.8l-18,9.3L353.7,295z M262.5,332.6l-2.8-28.3l25,20.4l6.9,38.1
		L262.5,332.6z"/>
	<path class="st0" d="M360.2,327.5l-68.6,35.3l-6.9-38.1l69-29.7v-19.1l18-9.3l14.8,13L406,269l15.3,19l15.2,16.7l1,11.2l-49.1,26.4
		l-23.6-22.7L360.2,327.5z M461.5,222.1l28.7,30.1L450,274.1L421.7,243L461.5,222.1z"/>
	<path class="st0" d="M518,285.7l-27.8-33.5L450,274.1l28.7,30.6L518,285.7z"/>
	<path class="st0" d="M444.9,323.8l5.1-49.7L421.7,243l-1.4,40.8l16.2,20.9l1,11.2L444.9,323.8z M479.1,380.4l-15.7-16.2l3.2-13
		l-21.7-27.4l5.1-49.7l28.7,30.6L479.1,380.4z"/>
	<path class="st0" d="M518.5,355.8l-39.4,24.6l-0.4-75.7l39.3-19l1.9,54.8l-2.8,3.2L518.5,355.8z M530.5,201.2l20.4,19 M468.9,228.6
		l10.2-4.7l1.4-15.8l19.6-10.6 M480.5,208.1l52.3,53 M507.4,274.1l56.4-30.2 M518.9,317.3l76-44.2 M784.2,198.4l29.6,28.3l33.3-20.4
		l-28.7-25.1L784.2,198.4z"/>
	<path class="st0" d="M848.1,252.7l-34.3-26l33.3-20.4l35.2,27.4L848.1,252.7z"/>
	<path class="st0" d="M835.6,328.4l12.5-75.7l34.2-19l-9.7,72L835.6,328.4z M768.4,281l15.8-82.6l29.6,28.3l-12.5,55.7l-11.6-11.1
		L768.4,281z"/>
	<path class="st0" d="M816.6,315.4l3.7-16.7l-19-16.3l12.5-55.7l34.3,26l-12.5,75.7L816.6,315.4z M872.1,224.9l31-18.2l30.6,26.5
		l-56,36.7"/>
	<path class="st0" d="M881.9,293.1l43.5-24.1l8.3-35.8"/>
	<path class="st0" d="M851.3,319.6l57.4,53.8l32.9-24.6l-64.8-61.3"/>
	<path class="st0" d="M905.9,399.5l2.8-26.1l32.9-24.6l-5.6,33.5L905.9,399.5z M899,308l22.7-13.5l3.7-25.5 M822.6,186.3l6.9-43.2
		 M771.2,191.9l10.2,10.2 M750.4,227.2l23.6,22.7 M684.8,299.1l-31.5-26.4L694,249l31,27.4L684.8,299.1z"/>
	<path class="st0" d="M718.4,326.1l-33.7-27l40.2-22.7l31.5,29.3L718.4,326.1z"/>
	<path class="st0" d="M712.4,404.6l6-78.5l38-20.4l-6,77.5L712.4,404.6z"/>
	<path class="st0" d="M679.1,356.3l5.6-57.2l33.7,27l-6,78.5L693,392l2.3-20.4L679.1,356.3z M648.1,350.2l5.1-77.5l31.5,26.4
		l-5.6,57.2l-15.3-14.9L648.1,350.2z M697.2,251.3l0.4-18.6l18.1-9.2 M744.4,294l45.3-22.7 M754.6,339.5l65.7-40.8 M756.4,288.5
		l-58.8-55.8 M549.9,375.8l-32.8-32.1l41.2-22.7l32.8,31.6L549.9,375.8z M583.8,409.2L550,375.8l41.2-23.2l30.6,32.9L583.8,409.2z"
		/>
	<path class="st0" d="M579.6,482.6l4.1-73.4l38-23.7V457L579.6,482.6z M546.8,433.8l3.2-58l33.8,33.4l-4.1,73.4l-17.2-14.9l1-17.2
		L546.8,433.8z"/>
	<path class="st0" d="M517.1,426.8v-83.1l32.8,32.1l-3.2,58l-13.4-17.2L517.1,426.8z M607.3,372.5l56.5-31.1 M621.8,416.6l73.6-45
		 M561.5,324.2l12.1-6.5l0.9-16.2l20.4-11.6 M632.3,359.5l-57.8-58 M626.3,293.6l22.2,21.8 M870.3,394.8l-0.5,29.7l36.1-25l2.8-26.1
		L870.3,394.8z M346.3,370.7l25.9,26.4l0.5,27.9l-27.8-25.1L346.3,370.7z M443.9,392l-71.2,33l-0.5-27.9l92.1-50.6l-0.9,17.7
		l-19,7.9L443.9,392z M360.2,327.5l17.5,20.9 M270.2,370.4l2.2,32.6l22.7,22.3l-0.5-30.4L270.2,370.4z M286.5,360.1l-16.3,10.3"/>
	<path class="st0" d="M275.1,430.8l-2.7-27.8l22.7,22.3l4.9,29.4L275.1,430.8z M376.4,459l-28.2-27.7l-3.3-31.4l27.8,25.1L376.4,459
		z M450.1,423.1L376.4,459l-3.7-34l71.2-33l0.5-19.9l19-7.9l15.7,16.2l21.4-13.8l16.2,19l0.4,41.2l-32.9,19.7l-27.6-28.2
		L450.1,423.1z M300,454.7l48.2-23.4 M295.1,425.3l49.8-25.4 M294.6,394.9l51.7-24.2l42.1-28.4 M444.7,481.3l23.3,22.8l-1.1,27.2
		l-25.5-26.6L444.7,481.3z"/>
	<path class="st0" d="M472.3,566.6l-5.4-35.3l-25.5-26.6l0.6,26.6L472.3,566.6z M541.1,496l-74.2,35.3l1.1-27.2l95.4-53.6l-1,17.2
		l-20.2,11.4L541.1,496z M444.7,481.3l88.6-64.7"/>
	<path class="st0" d="M472.3,566.6l74.2-38.6l0.6-6.5l5.9-0.5l57.5,63l4.8-30.4l-73.1-74.5"/>
	<path class="st0" d="M652.2,530.2l-36.9,23.4l-4.8,30.4l40.6-22.3L652.2,530.2z"/>
	<path class="st0" d="M692.8,502.5l-40.6,27.7l-1.1,31.5l40.1-27.1L692.8,502.5z M599.1,470.4l53.1,59.8 M816.6,315.4l-18.7,11
		l72.4,68.4l-0.5,29.7l-65.4-56.8L781.8,384l-22.2-18.5l36.3-21.7l2.1-17.4 M820.8,422.6l-2.2,33.7l-35.7,22.8l-0.6-31"/>
	<path class="st0" d="M743.2,502.5L676,440l-1.6-37.5l72.1,70.1L743.2,502.5l39.6-23.4l-0.6-31l-35.7,24.5l-72.1-70.1L693,392
		l19.4,12.6l16.7-8.1l53.1,51.6l38.5-25.5l-39-38.6 M692.8,502.5l-69.9-71.7 M633.8,441.1l39.5-25 M651.6,462.3l26.6-17.4
		 M284.8,517.8v-23.5l22.1,21.5l1.3,24.8L284.8,517.8z"/>
	<path class="st0" d="M280.2,462.3l24.7,22.8l2,30.7l-22.1-21.5L280.2,462.3l11.7-9.8 M352.4,489.1l-45.5,26.7l1.3,24.8l47.5-26.1
		L352.4,489.1z M304.9,485.1l61.2-32.6 M370.6,457.1l-14.9,9.1v33.9l24,23.5l61.8-33.2 M384.3,493l94.3-49"/>
	<path class="st0" d="M442,531.3l-50.6,26.2l-14.9-10.4L357,524.3l-1.3-24.2 M361.5,558.2l2.6,28.7l21.5,25.4l-1.3-30L361.5,558.2z
		 M388.2,635.2l-20.8-22.9l-3.3-25.4l21.5,25.4L388.2,635.2z M445.4,601.3l2.6,29.3l26,26.8l-0.6-26.1L445.4,601.3z"/>
	<path class="st0" d="M444.8,570.6l0.6,30.7l28,30l-0.7-29.4L444.8,570.6z M444.8,570.6l17.5-12.4 M385.6,612.3l55.9-31.3
		 M384.3,582.3l68.3-37.8 M388.2,635.2l57.2-33.9 M361.5,558.2l15-11.1l3.2-23.5l4.6-30.6l-28.6-26.8 M886.3,414l31.9,31.3
		l-1.3,29.4l-31.3,20.2l2.6-22.8l-54.6-50.9l16.9-13l19.3,16.3L886.3,414z"/>
	<path class="st0" d="M885.6,494.9l-40.3,24.2l3.9-24.8l39-22.2l30-26.8 M818.5,456.3l30.7,38 M770.5,483.2l33.9,36.5l-2,31.3
		L766,573.9l2.6-30.1l-50.7-48.9l7.1-5.8 M717.9,494.9l-26,18.9 M677.6,543.8l54.6,50.3 M733.5,573.2l35.1-29.4 M651.1,561.7
		l32.3,37.6v28L647,649.5l-0.7-24.1L610.5,584 M546.5,528l15.3,19.8l-1.9,17.6l16.2,18.2l19.5-13 M576.1,583.6l1.3-34.5"/>
	<path class="st0" d="M559.9,565.4l-16.3,13l66.3,73.7l36.4-26.7l37.1-26.1 M473.4,631.3l68.9-41.8 M474,657.4l67-37.2l1.3-17.6
		 M448,660l25.4,30.6v23.5l-26-25.4L448,660l15.6-11.8 M472.7,601.9l89.1-54.1"/>
	<path class="st0" d="M673,684.8v24.7l-31.9,21.6l-0.6-22.2L607.3,675l-65-72.4l1.3-24.2"/>
	<path class="st0" d="M640.5,708.9l-36.7,25.7l-1,22.6l38.3-26.1L640.5,708.9z"/>
	<path class="st0" d="M540.8,665.2l63.1,69.4l-1,22.6l-62.1-65.6V665.2l17.4-11.4l16,16.5l14.1-12.2 M640.5,708.9l33.5-21.2
		l-27-38.2L607.3,675l2.6-22.9 M540.2,676l-66.8,38.1l0.6,24.8l-26.6-27.4v-22.8 M538.8,707.2l1.9-15.6l34.8,38.7l-6.6,8
		L538.8,707.2z M474,738.9l64.3-39.3 M541,620.2l16.6,17.6l0.5,16 M473.4,690.6l84.2-52.8 M790.2,609l-33.5,23.1l-0.4,22.7
		l32.4-21.8L790.2,609z M790.2,609l-27.8-31.2"/>
	<path class="st0" d="M714.4,579.7l-5.2,5.2l47.5,47.2l-0.4,22.7l-37.2,24v-20.7 M709.2,584.9l-24.5,17.4 M719.1,660.4l37.6-28.3
		 M676.2,633l42.9,45.8 M719.1,658.1l-35.7-30.8 M662.1,642l20.7,25l13.2-10.3 M682.8,667l1.4-24.5 M869.2,507l29.2,29.2l-2.3,26.5
		l-31.6,19.8l2.9-22.7l-49.9-48.6l9.8-8.5l18,16.4l-46.8-48.3"/>
	<path class="st0" d="M864.5,582.5l-35.3,23.2l-43.7-43l16.9-11.7l35.3,30.1l29.7-21.3l31-23.6 M829.2,605.7l8.5-24.6 M817.5,511.2
		l-13.1,8.5l-35.8,24.1l-2.6,30.1l-33.8,20.2l1.3-20.9l-42.3-38.6"/>
	<path class="st0" d="M766,573.9l22.3,21.8l17.4-12.2 M788.3,595.7l3.7-26.9"/>
</g>
<g>
	<path class="st1" d="M157.4,894.4c-9.2-5.3-13.2-13.7-12.6-23.8c2-34.4,17.8-62.6,40.4-87.5c2.8-3,7.1-7.8,11.4-5
		c4.2,2.8,0.6,8.3-0.2,12.4c-1.6,7.9-3.9,15.6-3.4,23.8c-5.6,6.1-9,13.3-12,20.9C173.3,855.1,165.3,874.7,157.4,894.4L157.4,894.4z"
		/>
	<g class="st2">
		<path class="st3" d="M228.3,830.8l-122.4-0.5l0.1-16l263.1,1.1l-0.1,16l-122.4-0.5l-1.5,361.4l-18.3-0.1L228.3,830.8z"/>
	</g>
	<g id="Glass">
		<path d="M151,1078.7c-4.9,7.3-12.6,10.4-20.1,13.9c-5.3,0.4-10.7,0.7-16,1.1c-3.6-0.3-7.2-0.3-10.7-0.9c-5.9-1-8.3,0.2-6.7,7
			c4.6,18.9-3.6,33.4-16.8,45.8c-11.4,5.8-17.4,2.4-18.1-10.6c-0.7-13.4-1.9-26.7-2.8-40.1c1.3-3.3,1.8-6.6-2.9-6.8
			c-2.7-0.1-6.9-1.5-7.7,3.1c-0.6,3.5-2.9,5.4-4.8,7.8c-23.1-1.8-28.2-8.9-21.8-30.8c13.2-44.9,35.4-84.1,64.8-121
			c23.4-29.3,39.8-64.4,49.1-102c10.5-42.3,35.9-76.8,62.4-110.3c7.3-9.2,15.6-2.6,23.3,0.4c4.2,5.3,11,10,3.6,17.8
			c-3.1,3.3,0.5,5.7,2,8c2.1,3,4.6,1.2,6.8-0.4c2.8-2,5.6-4.1,8.4-6.2c9.6-5.4,19-11.1,28.8-16.2c4.1-2.2,8.7-5.1,13.5-1.2
			c5.1,18.8-1.6,37.2-17,47c-14.1,9-14.1,9-2,23.1c20.4,34.8,0.1,62.2-16.9,89.8c-3.9,6.3-10.5,11-15.8,16.4c-1.1,0-2.2,0.1-3.4,0.1
			c3.2-3.1,2.8-6.9,2.2-10.8c20-17.1,31-39.6,35.4-64.8c4.1-23.4-19.8-46-39.1-38.9c-13.5,1.3-25,7.6-35.8,15.2
			c-0.5-8.2,1.7-15.9,3.4-23.8c0.8-4.1,4.5-9.6,0.2-12.4c-4.3-2.8-8.6,1.9-11.4,5c-22.6,24.9-38.3,53.1-40.4,87.5
			c-0.6,10.1,3.4,18.5,12.6,23.8c2.3,6.9,8.5,7.5,14.2,9.1c15.5,5,31.3,6.4,47.4,4c0.8,2.2,1.7,4.4,2.5,6.7
			c-8,7.3-17.9,3.7-26.9,4.4c-9.1,0.7-18.4-0.4-27.6-0.8c-7.1-2.3-14.1-5.9-18.5,4.6c-3.8,9-11.2,16.1,0.2,26.3
			c14.4,12.9,23.7,30.3,32.8,47.5c-1.3,2.4-2.6,4.7-4,7.1c-2.4-1.7-5.5-2.1-6.8-5.7c-6.1-16.3-17.8-28.2-31.3-38.5
			c-7.4-7.1-13.2-7.1-17.9,3.2c-2.2,4.7-6.3,8.4-9.5,12.5c-1.3-0.7-2.7-1.4-4-2.2c1-3.9,1.9-7.9,2.9-11.8c0.6-2.1,2.4-4.2,0.6-6.3
			c-2.3-2.5-5.2-1-7.5,0.2c-7.5,3.6-13.8,9-18.9,15.3c-15.3,18.8-26.4,39.9-33.4,63.1c-3.6,12.1,0.2,29.6,9.3,33
			c9.6,3.6,18.1,10.6,28.9,10.9c4.4,7.3,11.6,7.1,18.7,6.8c14.1,4.7,26.5,1.8,37.5-8C147.6,1076.9,149.3,1077.8,151,1078.7z"/>
		<path d="M146,1075.9c13.3-19,26.7-37.9,29.8-61.9c0.2-1.2,2.6-2.1,3.9-3.1c6.5,2.2,4.3,7.1,3.1,11.1
			c-6.5,21.2-15.2,41.2-31.8,56.7C149.3,1077.8,147.6,1076.9,146,1075.9L146,1075.9z"/>
		<path class="st1" d="M89.7,1077.1c-10.8-0.3-19.3-7.3-28.9-10.9c-9-3.4-12.9-21-9.3-33c7-23.2,18.2-44.3,33.4-63.1
			c5.1-6.3,11.4-11.7,18.9-15.3c2.3-1.1,5.1-2.7,7.5-0.2c1.9,2,0,4.2-0.6,6.3c-1.1,3.9-2,7.9-2.9,11.8c-0.5,2.5,1.1,3.6,2.9,4.6
			c-3.1,4.6-6.1,9.2-9.2,13.9c-22.4,25.6-26.7,53.8-11.8,84.6C89.9,1076.1,89.8,1076.7,89.7,1077.1z"/>
	</g>
	<path d="M349.8,974.4c0-15.1,7.1-26.6,21.4-34.4c14.3-7.8,36.7-13.4,67.1-16.8c0.2-5.5-0.1-11-1-16.6c-0.8-5.6-2.5-10.6-4.9-15
		s-5.9-8-10.3-10.8c-4.4-2.7-10.1-4.1-17.1-4.1c-4.9,0-9.5,0.5-13.8,1.6c-4.3,1-8.4,2.4-12.1,4.1c-3.8,1.7-7.2,3.5-10.3,5.4
		c-3.1,1.9-5.7,3.7-7.8,5.4l-4.5-6.8c2.1-1.5,4.7-3.3,8-5.4c3.3-2.1,7.1-4,11.3-5.8c4.2-1.8,8.9-3.3,14-4.5s10.3-1.8,15.8-1.8
		c7.9,0,14.5,1.4,19.7,4.1c5.3,2.7,9.5,6.5,12.7,11.2s5.5,10.1,6.8,16.3c1.3,6.1,2,12.6,2,19.4v87.7h-7.3l-1.1-18.1h-0.6
		c-7.2,5.7-14.9,10.7-23.1,15c-8.3,4.3-16.9,6.5-26,6.5c-5.3,0-10.3-0.7-15-2.1c-4.7-1.4-8.8-3.6-12.4-6.5s-6.4-6.7-8.5-11.3
		C350.8,986.3,349.8,980.8,349.8,974.4L349.8,974.4z M358.8,974.1c0,5.3,0.8,9.8,2.4,13.4c1.6,3.7,3.8,6.7,6.6,8.9
		c2.8,2.3,6.1,3.9,9.7,5c3.7,1,7.6,1.6,11.7,1.6c8.3,0,16.3-1.9,24-5.8c7.7-3.9,16.1-9.7,25.1-17.4v-49.2
		c-14.9,1.7-27.4,3.8-37.5,6.4c-10.2,2.5-18.3,5.6-24.5,9.2c-6.2,3.6-10.7,7.7-13.4,12.3C360.2,963,358.8,968.3,358.8,974.1
		L358.8,974.1z M515.4,880.2H494v-6.8l21.4-1.1l1.1-39.6h7.3v39.6h40.1v7.9h-40.1V973c0,4.3,0.3,8.3,1,12s1.8,6.8,3.5,9.5
		c1.7,2.6,4.1,4.7,7.2,6.2c3.1,1.5,7.1,2.3,12,2.3c2.6,0,5.5-0.5,8.7-1.4s6.1-2,8.7-3.1l2.8,7.4c-4,1.5-7.9,2.7-11.7,3.7
		c-3.9,0.9-6.9,1.4-9.2,1.4c-6.2,0-11.3-0.9-15.4-2.8c-4-1.9-7.3-4.5-9.7-7.9s-4.1-7.5-5.1-12.3c-0.9-4.8-1.4-10.1-1.4-16v-91.8
		L515.4,880.2z M614.1,985.4c5.6,4.9,11.9,9.1,18.6,12.5c6.8,3.4,15.2,5.1,25.4,5.1c5.6,0,10.6-0.8,14.9-2.4
		c4.3-1.6,7.9-3.7,10.7-6.4c2.8-2.6,5-5.7,6.5-9.2s2.3-7.1,2.3-10.9c0-4.5-1-8.4-3.1-11.7s-4.7-6.2-7.9-8.8
		c-3.2-2.5-6.8-4.7-10.9-6.4c-4-1.7-8-3.3-12-4.8c-5.3-1.9-10.5-3.9-15.7-5.9c-5.2-2.1-9.9-4.5-14.1-7.4c-4.2-2.8-7.7-6.3-10.3-10.3
		c-2.6-4.1-3.9-9-3.9-14.9c0-4.7,0.9-9.2,2.7-13.4s4.5-8,8-11.2c3.6-3.2,8-5.8,13.3-7.6c5.3-1.9,11.4-2.8,18.3-2.8
		c6.8,0,13.4,1.3,20,3.8s12.3,5.8,17.2,9.8l-5.1,6.8c-4.5-3.4-9.3-6.3-14.4-8.8c-5.1-2.4-11.2-3.7-18.3-3.7
		c-5.6,0-10.5,0.8-14.7,2.3c-4.1,1.5-7.5,3.5-10.2,6.1c-2.6,2.5-4.6,5.4-5.9,8.5c-1.3,3.1-2,6.4-2,9.8c0,4.2,0.9,7.7,2.8,10.6
		c1.9,2.9,4.4,5.5,7.5,7.6s6.6,4.1,10.4,5.8c3.9,1.7,7.9,3.3,12,4.8c5.3,2.1,10.6,4.2,16.1,6.2c5.5,2.1,10.3,4.6,14.5,7.5
		s7.7,6.6,10.4,11s4.1,10,4.1,16.6c0,4.9-1,9.6-3,14.1s-4.8,8.5-8.5,11.9s-8.3,6.1-13.8,8.2c-5.5,2.1-11.8,3.1-18.8,3.1
		c-10.2,0-19.4-1.8-27.6-5.5c-8.3-3.7-15.4-8.1-21.4-13.2L614.1,985.4L614.1,985.4z M764.8,872.2h8.5v86c0,15.1,2.5,26.3,7.6,33.7
		s13.4,11,25.1,11c8.5,0,16.2-2.4,23.1-7.1c7-4.7,14.7-12.2,23.1-22.4V872.2h8.5v135.3h-7.3l-1.1-23.2h-0.6
		c-6.8,7.9-13.8,14.3-21.2,19.2c-7.3,4.9-15.7,7.4-25.1,7.4c-13.9,0-24.2-4.1-30.7-12.5c-6.6-8.3-9.9-21.3-9.9-39.1L764.8,872.2
		L764.8,872.2z M929.1,1061.1c2,0.5,4,0.7,6.1,0.7c8.5,0,15.7-3.6,21.6-10.9s10.8-16.5,14.5-27.6l3.9-12.5l-55.9-138.7h9.6
		l34.4,88.9c2.3,5.7,4.7,11.9,7.3,18.7s5.3,13.2,7.9,19.2h1.1c2.3-6,4.5-12.5,6.6-19.2c2.2-6.8,4.3-13,6.3-18.7l30.5-88.9h9
		l-54.2,154.5c-1.7,5.3-3.8,10.5-6.3,15.7s-5.6,9.9-9.2,14c-3.6,4.1-7.7,7.5-12.3,10s-9.8,3.8-15.7,3.8c-4.9,0-9.2-0.9-13-2.8
		l2.3-7.9C925.4,1060.1,927.1,1060.7,929.1,1061.1L929.1,1061.1z M1083,974.4c0-15.1,7.1-26.6,21.4-34.4
		c14.3-7.8,36.7-13.4,67.1-16.8c0.2-5.5-0.1-11-1-16.6c-0.8-5.6-2.5-10.6-4.9-15s-5.9-8-10.3-10.8c-4.4-2.7-10.1-4.1-17.1-4.1
		c-4.9,0-9.5,0.5-13.8,1.6c-4.3,1-8.4,2.4-12.1,4.1c-3.8,1.7-7.2,3.5-10.3,5.4c-3.1,1.9-5.7,3.7-7.8,5.4l-4.5-6.8
		c2.1-1.5,4.8-3.3,8-5.4c3.3-2.1,7.1-4,11.3-5.8c4.2-1.8,8.9-3.3,14-4.5s10.3-1.8,15.8-1.8c7.9,0,14.5,1.4,19.7,4.1
		c5.3,2.7,9.5,6.5,12.7,11.2s5.5,10.1,6.8,16.3c1.3,6.1,2,12.6,2,19.4v87.7h-7.3l-1.1-18.1h-0.6c-7.1,5.7-14.9,10.7-23.1,15
		c-8.3,4.3-16.9,6.5-26,6.5c-5.3,0-10.3-0.7-15-2.1c-4.7-1.4-8.8-3.6-12.4-6.5s-6.4-6.7-8.5-11.3C1084,986.3,1083,980.8,1083,974.4
		L1083,974.4z M1092,974.1c0,5.3,0.8,9.8,2.4,13.4c1.6,3.7,3.8,6.7,6.6,8.9c2.8,2.3,6.1,3.9,9.7,5c3.7,1,7.6,1.6,11.7,1.6
		c8.3,0,16.3-1.9,24-5.8c7.7-3.9,16.1-9.7,25.1-17.4v-49.2c-14.9,1.7-27.4,3.8-37.5,6.4c-10.2,2.5-18.3,5.6-24.5,9.2
		c-6.2,3.6-10.7,7.7-13.4,12.3C1093.4,963,1092,968.3,1092,974.1L1092,974.1z M370.1,1152.8l-15.1,43.1h-5.2l38.4-107.6h4.6
		l38.4,107.6h-5.5l-34.8-102.1L370.1,1152.8z M403.1,1131.3c-2.3-6.5-4.4-12.7-6.4-18.6s-4-12.2-5.9-18.9L403.1,1131.3z
		 M465.9,1078.1h4.9v89.4h0.3l40.3-49.6h5.9l-25,30.7l29.6,47.3h-5.7l-27-43.4l-18.5,21.9v21.5h-4.9v-117.8H465.9z M558.2,1098
		c-1.5,0-2.8-0.5-3.9-1.5s-1.6-2.4-1.6-4c0-1.8,0.5-3.2,1.6-4.2c1.1-0.9,2.4-1.4,3.9-1.4s2.8,0.5,3.9,1.4c1.1,0.9,1.6,2.3,1.6,4.2
		c0,1.6-0.5,3-1.6,4S559.7,1098,558.2,1098z M555.6,1117.9h4.9v78h-4.9V1117.9z M609.6,1122.5h-12.4v-3.9l12.4-0.7l0.7-22.8h4.2
		v22.8h23.1v4.6h-23.1v53.5c0,2.5,0.2,4.8,0.6,6.9c0.4,2.1,1.1,3.9,2,5.5c1,1.5,2.4,2.7,4.1,3.6c1.8,0.9,4.1,1.3,6.9,1.3
		c1.5,0,3.2-0.3,5-0.8s3.5-1.1,5-1.8l1.6,4.2c-2.3,0.9-4.5,1.6-6.7,2.1s-4,0.8-5.3,0.8c-3.6,0-6.5-0.5-8.9-1.6
		c-2.3-1.1-4.2-2.6-5.6-4.6c-1.4-2-2.4-4.3-2.9-7.1s-0.8-5.8-0.8-9.2v-52.8H609.6z M666.5,1183.1c3.3,2.8,6.8,5.2,10.7,7.2
		s8.8,2.9,14.6,2.9c3.3,0,6.1-0.5,8.6-1.4s4.6-2.1,6.2-3.7c1.6-1.5,2.9-3.3,3.7-5.3c0.9-2,1.3-4.1,1.3-6.3c0-2.6-0.6-4.9-1.8-6.8
		s-2.7-3.6-4.6-5.1c-1.8-1.5-3.9-2.7-6.3-3.7c-2.3-1-4.6-1.9-6.9-2.8c-3-1.1-6-2.2-9-3.4c-3-1.2-5.7-2.6-8.1-4.2
		c-2.4-1.6-4.4-3.6-5.9-6c-1.5-2.3-2.3-5.2-2.3-8.6c0-2.7,0.5-5.3,1.5-7.7c1-2.4,2.6-4.6,4.6-6.4c2.1-1.8,4.6-3.3,7.6-4.4
		s6.6-1.6,10.6-1.6c3.9,0,7.7,0.7,11.5,2.2s7.1,3.3,9.9,5.6l-2.9,3.9c-2.6-2-5.4-3.6-8.3-5.1c-2.9-1.4-6.4-2.1-10.6-2.1
		c-3.3,0-6.1,0.4-8.5,1.3s-4.3,2-5.9,3.5c-1.5,1.5-2.7,3.1-3.4,4.9s-1.1,3.7-1.1,5.6c0,2.4,0.5,4.4,1.6,6.1s2.5,3.2,4.3,4.4
		c1.8,1.2,3.8,2.4,6,3.3c2.2,1,4.5,1.9,6.9,2.8c3,1.2,6.1,2.4,9.3,3.6c3.1,1.2,5.9,2.6,8.4,4.3c2.4,1.7,4.4,3.8,6,6.4
		s2.4,5.7,2.4,9.5c0,2.8-0.6,5.5-1.7,8.2s-2.8,4.9-4.9,6.9c-2.1,2-4.8,3.5-8,4.7s-6.8,1.8-10.8,1.8c-5.9,0-11.2-1.1-15.9-3.2
		c-4.8-2.1-8.9-4.6-12.4-7.6L666.5,1183.1L666.5,1183.1z M753.3,1117.9h4.9v49.6c0,8.7,1.5,15.2,4.4,19.4c2.9,4.2,7.7,6.4,14.5,6.4
		c4.9,0,9.3-1.4,13.3-4.1s8.5-7,13.3-12.9v-58.4h4.9v78h-4.2l-0.6-13.4h-0.3c-3.9,4.6-8,8.3-12.2,11.1c-4.2,2.8-9,4.2-14.5,4.2
		c-8,0-13.9-2.4-17.7-7.2c-3.8-4.8-5.7-12.3-5.7-22.5v-50.2H753.3z"/>
</g>
</svg>
