<?xml version="1.0" encoding="utf-8"?>
<!-- Generator: Adobe Illustrator 24.0.3, SVG Export Plug-In . SVG Version: 6.00 Build 0)  -->
<svg version="1.1" id="レイヤー_1" xmlns="http://www.w3.org/2000/svg" xmlns:xlink="http://www.w3.org/1999/xlink" x="0px"
	 y="0px" viewBox="0 0 145 145" style="enable-background:new 0 0 145 145;" xml:space="preserve">
<style type="text/css">
	.st0{fill:#F5F5F5;}
	.st1{fill:#FFFFFF;}
	.st2{fill:none;stroke:#FFFFFF;stroke-width:0.2;stroke-miterlimit:10;}
</style>
<g>
	<g>
		<path class="st0" d="M144.6,72.5L144.6,72.5L144.6,72.5v63.1c0,5-4,9-9,9s-9-4-9-9v-15.4c-13.2,15-32.5,24.4-54.1,24.4h0
			c-5,0-9-4-9-9s4-9,9-9h0c29.9,0,54.1-24.2,54.1-54.1v0v0c0-29.9-24.2-54.1-54.1-54.1h0c-21.3,0-39.8,12.4-48.6,30.3
			c0,0,0-0.1-0.1-0.1c-1.3,3.4-4.6,5.9-8.4,5.9c-5,0-9-4-9-9c0-1.8,0.5-3.4,1.4-4.8C19.6,16.8,44.1,0.4,72.5,0.4h0
			C112.3,0.4,144.6,32.7,144.6,72.5z"/>
		<path class="st0" d="M63.5,72.5H9.4c-5,0-9,4-9,9v54.1c0,5,4,9,9,9s9-4,9-9v-18c0-14.9,12.1-27,27-27h18c5,0,9-4,9-9
			S68.5,72.5,63.5,72.5z"/>
	</g>
	<g>
		<path class="st1" d="M72.5,0.7c39.6,0,71.8,32.2,71.8,71.8c0,39.6-32.2,71.8-71.8,71.8c-39.6,0-71.8-32.2-71.8-71.8
			C0.7,32.9,32.9,0.7,72.5,0.7 M72.5,0.5L72.5,0.5c-39.8,0-72,32.2-72,72v0c0,39.8,32.2,72,72,72h0c39.8,0,72-32.2,72-72v0
			C144.5,32.7,112.3,0.5,72.5,0.5L72.5,0.5z"/>
	</g>
	<g>
		<path class="st1" d="M72.5,18.7c29.7,0,53.8,24.1,53.8,53.8c0,29.7-24.1,53.8-53.8,53.8c-29.7,0-53.8-24.1-53.8-53.8
			C18.7,42.8,42.8,18.7,72.5,18.7 M72.5,18.5L72.5,18.5c-29.8,0-54,24.2-54,54v0c0,29.8,24.2,54,54,54h0c29.8,0,54-24.2,54-54v0
			C126.5,42.7,102.3,18.5,72.5,18.5L72.5,18.5z"/>
	</g>
	<g>
		<path class="st1" d="M15.6,36.6c4.9,0,8.8,3.9,8.8,8.8s-3.9,8.8-8.8,8.8s-8.8-3.9-8.8-8.8S10.7,36.6,15.6,36.6 M15.6,36.4
			c-5,0-9,4-9,9c0,5,4,9,9,9s9-4,9-9C24.6,40.4,20.5,36.4,15.6,36.4L15.6,36.4z"/>
	</g>
	<g>
		<path class="st1" d="M63.6,72.6c4.9,0,8.8,3.9,8.8,8.8s-3.9,8.8-8.8,8.8s-8.8-3.9-8.8-8.8S58.7,72.6,63.6,72.6 M63.6,72.4
			c-5,0-9,4-9,9c0,5,4,9,9,9s9-4,9-9C72.6,76.4,68.5,72.4,63.6,72.4L63.6,72.4z"/>
	</g>
	<g>
		<path class="st1" d="M9.6,72.6c4.9,0,8.8,3.9,8.8,8.8s-3.9,8.8-8.8,8.8s-8.8-3.9-8.8-8.8S4.7,72.6,9.6,72.6 M9.6,72.4
			c-5,0-9,4-9,9c0,5,4,9,9,9s9-4,9-9C18.6,76.4,14.5,72.4,9.6,72.4L9.6,72.4z"/>
	</g>
	<g>
		<path class="st1" d="M9.6,126.6c4.9,0,8.8,3.9,8.8,8.8s-3.9,8.8-8.8,8.8s-8.8-3.9-8.8-8.8S4.7,126.6,9.6,126.6 M9.6,126.4
			c-5,0-9,4-9,9s4,9,9,9s9-4,9-9S14.5,126.4,9.6,126.4L9.6,126.4z"/>
	</g>
	<g>
		<path class="st1" d="M72.6,126.6c4.9,0,8.8,3.9,8.8,8.8s-3.9,8.8-8.8,8.8s-8.8-3.9-8.8-8.8S67.7,126.6,72.6,126.6 M72.6,126.4
			c-5,0-9,4-9,9s4,9,9,9s9-4,9-9S77.5,126.4,72.6,126.4L72.6,126.4z"/>
	</g>
	<g>
		<path class="st1" d="M135.6,126.6c4.9,0,8.8,3.9,8.8,8.8s-3.9,8.8-8.8,8.8s-8.8-3.9-8.8-8.8S130.7,126.6,135.6,126.6 M135.6,126.4
			c-5,0-9,4-9,9s4,9,9,9s9-4,9-9S140.5,126.4,135.6,126.4L135.6,126.4z"/>
	</g>
	<g>
		<line class="st2" x1="0.6" y1="54.4" x2="144.6" y2="54.4"/>
	</g>
	<g>
		<line class="st2" x1="0.6" y1="36.4" x2="144.6" y2="36.4"/>
	</g>
	<g>
		<line class="st2" x1="0.6" y1="72.4" x2="144.6" y2="72.4"/>
	</g>
	<g>
		<line class="st2" x1="0.6" y1="90.4" x2="144.6" y2="90.4"/>
	</g>
	<g>
		<line class="st2" x1="0.6" y1="126.4" x2="144.6" y2="126.4"/>
	</g>
	<line class="st2" x1="18.6" y1="0.4" x2="18.6" y2="144.4"/>
	<line class="st2" x1="126.6" y1="0.4" x2="126.6" y2="144.4"/>
	<g>
		<path class="st1" d="M45.6,90.6c14.8,0,26.8,12,26.8,26.8c0,14.8-12,26.8-26.8,26.8s-26.8-12-26.8-26.8
			C18.8,102.6,30.8,90.6,45.6,90.6 M45.6,90.4c-14.9,0-27,12.1-27,27v0c0,14.9,12.1,27,27,27s27-12.1,27-27v0
			C72.6,102.5,60.5,90.4,45.6,90.4L45.6,90.4z"/>
	</g>
	<g>
		<path class="st1" d="M144.3,0.7v143.6H0.7V0.7H144.3 M144.5,0.5H0.5v144h144V0.5L144.5,0.5z"/>
	</g>
</g>
</svg>
