<?xml version="1.0" encoding="utf-8"?>
<!-- Generator: Adobe Illustrator 24.1.0, SVG Export Plug-In . SVG Version: 6.00 Build 0)  -->
<svg version="1.1" id="Capa_1" xmlns="http://www.w3.org/2000/svg" xmlns:xlink="http://www.w3.org/1999/xlink" x="0px" y="0px"
	 viewBox="0 0 192.4 192.4" style="enable-background:new 0 0 192.4 192.4;" xml:space="preserve">
<style type="text/css">
	.st0{fill:#CFD1D6;}
</style>
<g>
	<path class="st0" d="M191.8,127.7c-4.8-17.8-39.3-21.3-53.6-23.9C117.9,99.9,97,96.9,76,95.1c21.3-3.1,42.7-6,63.5-12.3
		c21.1-6.4,63.9-28.9,47.9-58.3c-14-25.7-58.2-17.8-81.2-13c-37.3,7.8-74.1,43-76.9,82.1c-0.2,0.1-0.4,0.2-0.5,0.3
		c-9.1-13.2-16.2-28-21.7-45c-1.3-4-6.5-2.9-6.9,0.9c-4.5,38.6,31.2,71.9,59.3,92.3c16.8,12.1,35.5,21.9,54.6,29.9
		c13.6,5.7,33,16.1,48,13.6c4.9-0.8,4.4-7.1,1.2-9.4c-10.1-7.2-26.6-9.1-38.3-13.6c-18.1-7-35.4-16.2-51.7-26.7
		c-13-8.4-23.9-17.5-33.2-27.7c34.2,10.8,66.8,26.4,101.8,34.7C151.6,145.1,198,150.6,191.8,127.7z M111.3,19.2
		c17.5-3.5,73.2-11.3,68.3,20.1c-4.3,27.8-47.2,35.5-69.1,40c-24.7,5.1-50.8,6-75.3,12.6C43.8,55.9,75.2,26.5,111.3,19.2z
		 M54.8,103.1c21.8,1,43.5,4.5,65.3,7.2c19.2,2.3,41,5.7,58.1,15.1c14.6,8.1-13.2,11.4-18.6,11.1c-13.8-0.8-27.6-5.6-40.7-9.9
		C97.4,119.5,76.3,110.6,54.8,103.1z"/>
</g>
</svg>
