<svg id="eeqs68mtv0d91" xmlns="http://www.w3.org/2000/svg" xmlns:xlink="http://www.w3.org/1999/xlink" viewBox="0 0 1076.063710 755.227900" shape-rendering="geometricPrecision" text-rendering="geometricPrecision"><style><![CDATA[#eeqs68mtv0d92_to {animation: eeqs68mtv0d92_to__to 3000ms linear 1 normal forwards}@keyframes eeqs68mtv0d92_to__to { 0% {transform: translate(-60.936782px,-72.401090px)} 6.666667% {transform: translate(-143px,25px)} 13.333333% {transform: translate(-213px,130.610000px)} 20% {transform: translate(-143px,25px)} 26.666667% {transform: translate(-60.936782px,-72.401090px)} 33.333333% {transform: translate(-143px,25px)} 40% {transform: translate(-213px,130.610000px)} 46.666667% {transform: translate(-143px,25px)} 53.333333% {transform: translate(-60.936782px,-72.401090px)} 60% {transform: translate(-143px,25px)} 66.666667% {transform: translate(-213px,130.610000px)} 73.333333% {transform: translate(-143px,25px)} 80% {transform: translate(-60.936782px,-72.401090px)} 86.666667% {transform: translate(-143px,25px)} 93.333333% {transform: translate(-213px,130.610000px)} 100% {transform: translate(-213px,130.610000px)} }#eeqs68mtv0d92_tr {animation: eeqs68mtv0d92_tr__tr 3000ms linear 1 normal forwards}@keyframes eeqs68mtv0d92_tr__tr { 0% {transform: rotate(0deg)} 13.333333% {transform: rotate(-12deg)} 26.666667% {transform: rotate(0deg)} 40% {transform: rotate(-12deg)} 53.333333% {transform: rotate(0deg)} 66.666667% {transform: rotate(-12deg)} 80% {transform: rotate(0deg)} 93.333333% {transform: rotate(-12deg)} 100% {transform: rotate(-12deg)} }#eeqs68mtv0d93_to {animation: eeqs68mtv0d93_to__to 3000ms linear 1 normal forwards}@keyframes eeqs68mtv0d93_to__to { 0% {transform: translate(-61.968100px,-72.386000px)} 6.666667% {transform: translate(-25px,-110px)} 13.333333% {transform: translate(-61.968100px,-72.386000px)} 20% {transform: translate(-25px,-110px)} 26.666667% {transform: translate(-61.968100px,-72.386000px)} 33.333333% {transform: translate(-25px,-110px)} 40% {transform: translate(-61.968100px,-72.386000px)} 46.666667% {transform: translate(-25px,-110px)} 53.333333% {transform: translate(-61.968100px,-72.386000px)} 60% {transform: translate(-25px,-110px)} 66.666667% {transform: translate(-61.968100px,-72.386000px)} 73.333333% {transform: translate(-25px,-110px)} 80% {transform: translate(-61.968100px,-72.386000px)} 86.666667% {transform: translate(-25px,-110px)} 93.333333% {transform: translate(-61.968100px,-72.386000px)} 100% {transform: translate(-25px,-110px)} }#eeqs68mtv0d93_tr {animation: eeqs68mtv0d93_tr__tr 3000ms linear 1 normal forwards}@keyframes eeqs68mtv0d93_tr__tr { 0% {transform: rotate(0deg)} 6.666667% {transform: rotate(2.411279deg)} 13.333333% {transform: rotate(0deg)} 20% {transform: rotate(2.411279deg)} 26.666667% {transform: rotate(0deg)} 33.333333% {transform: rotate(2.411279deg)} 40% {transform: rotate(0deg)} 46.666667% {transform: rotate(2.411279deg)} 53.333333% {transform: rotate(0deg)} 60% {transform: rotate(2.411279deg)} 66.666667% {transform: rotate(0deg)} 73.333333% {transform: rotate(2.411279deg)} 80% {transform: rotate(0deg)} 86.666667% {transform: rotate(2.411279deg)} 93.333333% {transform: rotate(0deg)} 100% {transform: rotate(2.411279deg)} }#eeqs68mtv0d96_to {animation: eeqs68mtv0d96_to__to 3000ms linear 1 normal forwards}@keyframes eeqs68mtv0d96_to__to { 0% {transform: translate(-61.968100px,-72.386000px)} 6.666667% {transform: translate(-106.010000px,-39.280000px)} 13.333333% {transform: translate(-61.970000px,-72.390000px)} 20% {transform: translate(-106.010000px,-39.280000px)} 26.666667% {transform: translate(-61.970000px,-72.390000px)} 33.333333% {transform: translate(-106.010000px,-39.280000px)} 40% {transform: translate(-61.970000px,-72.390000px)} 46.666667% {transform: translate(-106.010000px,-39.280000px)} 53.333333% {transform: translate(-61.970000px,-72.390000px)} 60% {transform: translate(-106.010000px,-39.280000px)} 66.666667% {transform: translate(-61.970000px,-72.390000px)} 73.333333% {transform: translate(-106.010000px,-39.280000px)} 80% {transform: translate(-61.970000px,-72.390000px)} 86.666667% {transform: translate(-106.010000px,-39.280000px)} 93.333333% {transform: translate(-61.970000px,-72.390000px)} 100% {transform: translate(-106.010000px,-39.280000px)} }#eeqs68mtv0d96_tr {animation: eeqs68mtv0d96_tr__tr 3000ms linear 1 normal forwards}@keyframes eeqs68mtv0d96_tr__tr { 0% {transform: rotate(0deg)} 6.666667% {transform: rotate(-5deg)} 13.333333% {transform: rotate(0deg)} 20% {transform: rotate(-5deg)} 26.666667% {transform: rotate(0deg)} 33.333333% {transform: rotate(-5deg)} 40% {transform: rotate(0deg)} 46.666667% {transform: rotate(-5deg)} 53.333333% {transform: rotate(0deg)} 60% {transform: rotate(-5deg)} 66.666667% {transform: rotate(0deg)} 73.333333% {transform: rotate(-5deg)} 80% {transform: rotate(0deg)} 86.666667% {transform: rotate(-5deg)} 93.333333% {transform: rotate(0deg)} 100% {transform: rotate(-5deg)} }#eeqs68mtv0d97_to {animation: eeqs68mtv0d97_to__to 3000ms linear 1 normal forwards}@keyframes eeqs68mtv0d97_to__to { 0% {transform: translate(-61.968100px,-72.386000px)} 6.666667% {transform: translate(-106.010000px,-39.280000px)} 13.333333% {transform: translate(-61.970000px,-72.390000px)} 20% {transform: translate(-106.010000px,-39.280000px)} 26.666667% {transform: translate(-61.970000px,-72.390000px)} 33.333333% {transform: translate(-106.010000px,-39.280000px)} 40% {transform: translate(-61.970000px,-72.390000px)} 46.666667% {transform: translate(-106.010000px,-39.280000px)} 53.333333% {transform: translate(-61.970000px,-72.390000px)} 60% {transform: translate(-106.010000px,-39.280000px)} 66.666667% {transform: translate(-61.970000px,-72.390000px)} 73.333333% {transform: translate(-106.010000px,-39.280000px)} 80% {transform: translate(-61.970000px,-72.390000px)} 86.666667% {transform: translate(-106.010000px,-39.280000px)} 93.333333% {transform: translate(-61.970000px,-72.390000px)} 100% {transform: translate(-106.010000px,-39.280000px)} }#eeqs68mtv0d97_tr {animation: eeqs68mtv0d97_tr__tr 3000ms linear 1 normal forwards}@keyframes eeqs68mtv0d97_tr__tr { 0% {transform: rotate(0deg)} 6.666667% {transform: rotate(-5deg)} 13.333333% {transform: rotate(0deg)} 20% {transform: rotate(-5deg)} 26.666667% {transform: rotate(0deg)} 33.333333% {transform: rotate(-5deg)} 40% {transform: rotate(0deg)} 46.666667% {transform: rotate(-5deg)} 53.333333% {transform: rotate(0deg)} 60% {transform: rotate(-5deg)} 66.666667% {transform: rotate(0deg)} 73.333333% {transform: rotate(-5deg)} 80% {transform: rotate(0deg)} 86.666667% {transform: rotate(-5deg)} 93.333333% {transform: rotate(0deg)} 100% {transform: rotate(-5deg)} }#eeqs68mtv0d918_to {animation: eeqs68mtv0d918_to__to 3000ms linear 1 normal forwards}@keyframes eeqs68mtv0d918_to__to { 0% {transform: translate(-61.968100px,-69.722410px)} 10% {transform: translate(-112.200000px,-50.490000px)} 20% {transform: translate(-61.970000px,-69.720000px)} 33.333333% {transform: translate(-112.200000px,-50.490000px)} 46.666667% {transform: translate(-61.970000px,-69.720000px)} 60% {transform: translate(-112.200000px,-50.490000px)} 73.333333% {transform: translate(-61.970000px,-69.720000px)} 86.666667% {transform: translate(-112.200000px,-50.490000px)} 100% {transform: translate(-61.970000px,-69.720000px)} }#eeqs68mtv0d918_tr {animation: eeqs68mtv0d918_tr__tr 3000ms linear 1 normal forwards}@keyframes eeqs68mtv0d918_tr__tr { 0% {transform: rotate(0deg)} 10% {transform: rotate(-5deg)} 20% {transform: rotate(0deg)} 33.333333% {transform: rotate(-5deg)} 46.666667% {transform: rotate(0deg)} 60% {transform: rotate(-5deg)} 73.333333% {transform: rotate(0deg)} 86.666667% {transform: rotate(-5deg)} 100% {transform: rotate(0deg)} }]]></style><g id="eeqs68mtv0d92_to" transform="translate(-60.936782,-72.401090)"><g id="eeqs68mtv0d92_tr" transform="rotate(0)"><path id="eeqs68mtv0d92" d="M926.113930,774.809370C919.129410,801.407260,894.654930,818.029030,894.654930,818.029030C894.654930,818.029030,881.504600,791.527100,888.489120,764.929210C895.473640,738.331320,919.948120,721.709550,919.948120,721.709550C919.948120,721.709550,933.098450,748.211480,926.113930,774.809370Z" transform="translate(0,0)" fill="rgb(63,61,86)" stroke="none" stroke-width="1"/></g></g><g id="eeqs68mtv0d93_to" transform="translate(-61.968100,-72.386000)"><g id="eeqs68mtv0d93_tr" transform="rotate(0)"><path id="eeqs68mtv0d93" d="M915.520000,769.182660C895.957490,788.509820,893.768830,818.013940,893.768830,818.013940C893.768830,818.013940,923.297280,816.182530,942.859830,796.855360C962.422380,777.528190,964.610990,748.024070,964.610990,748.024070C964.610990,748.024070,935.082480,749.855490,915.520000,769.182660Z" transform="translate(0,0)" fill="rgb(108,99,255)" stroke="none" stroke-width="1"/></g></g><path id="eeqs68mtv0d94" d="M206.702210,674.194380L243.543610,674.194380L334.331350,638.668740C334.331350,638.668740,398.803800,612.353460,393.540740,662.352500C388.277680,712.351540,379.067330,779.455500,379.067330,779.455500C379.067330,779.455500,350.120520,766.297860,334.331330,770.245150C318.542140,774.192440,329.068270,689.983530,329.068270,689.983530C329.068270,689.983530,200.123370,751.824450,188.281490,743.929870C176.439610,736.035290,173.808090,680.773180,173.808090,680.773180Z" transform="matrix(1 0 0 1 -61.96810000000000 -72.38600000000000)" fill="rgb(47,46,65)" stroke="none" stroke-width="1"/><path id="eeqs68mtv0d95" d="M206.702210,674.194380L243.543610,674.194380L334.331350,638.668740C334.331350,638.668740,398.803800,612.353460,393.540740,662.352500C388.277680,712.351540,379.067330,779.455500,379.067330,779.455500C379.067330,779.455500,350.120520,766.297860,334.331330,770.245150C318.542140,774.192440,329.068270,689.983530,329.068270,689.983530C329.068270,689.983530,200.123370,751.824450,188.281490,743.929870C176.439610,736.035290,173.808090,680.773180,173.808090,680.773180Z" transform="matrix(1 0 0 1 -61.96810000000000 -72.38600000000000)" opacity="0.1" fill="rgb(0,0,0)" stroke="none" stroke-width="1"/><g id="eeqs68mtv0d96_to" transform="translate(-61.968100,-72.386000)"><g id="eeqs68mtv0d96_tr" transform="rotate(0)"><path id="eeqs68mtv0d96" d="M264.746070,558.820360L309.331830,622.879570L413.277200,709.720000C413.277200,709.720000,509.328000,732.088000,496.170350,747.877170C483.012700,763.666340,402.751090,732.088000,402.751090,732.088000C402.751090,732.088000,283.016540,645.247560,279.069250,638.668730C275.121960,632.089900,231.701740,570.249000,231.701740,570.249000Z" transform="translate(0,0)" fill="rgb(160,97,106)" stroke="none" stroke-width="1"/></g></g><g id="eeqs68mtv0d97_to" transform="translate(-61.968100,-72.386000)"><g id="eeqs68mtv0d97_tr" transform="rotate(0)"><path id="eeqs68mtv0d97" d="M264.746070,558.820360L309.331830,622.879570L413.277200,709.720000C413.277200,709.720000,509.328000,732.088000,496.170350,747.877170C483.012700,763.666340,402.751090,732.088000,402.751090,732.088000C402.751090,732.088000,283.016540,645.247560,279.069250,638.668730C275.121960,632.089900,231.701740,570.249000,231.701740,570.249000Z" transform="translate(0,0)" opacity="0.1" fill="rgb(0,0,0)" stroke="none" stroke-width="1"/></g></g><path id="eeqs68mtv0d98" d="M238.280560,507.092320L267.227370,563.670180C267.227370,563.670180,260.648550,591.301230,250.122430,593.932760C239.596310,596.564290,194.860340,559.722890,194.860340,559.722890Z" transform="matrix(1 0 0 1 -61.96810000000000 -72.38600000000000)" fill="rgb(208,205,225)" stroke="none" stroke-width="1"/><path id="eeqs68mtv0d99" d="M238.280560,507.092320L267.227370,563.670180C267.227370,563.670180,260.648550,591.301230,250.122430,593.932760C239.596310,596.564290,194.860340,559.722890,194.860340,559.722890Z" transform="matrix(1 0 0 1 -61.96810000000000 -72.38600000000000)" opacity="0.1" fill="rgb(0,0,0)" stroke="none" stroke-width="1"/><path id="eeqs68mtv0d910" d="M591.419300,644.900440L599.970000,680.172000C600.065327,680.565227,600.050523,680.977112,599.927210,681.362480L561.139560,802.573740C560.823036,803.562881,559.858693,804.196632,558.825154,804.094732C557.791614,803.992833,556.969603,803.182959,556.852340,802.151050L551.486530,754.931890C551.450893,754.618292,551.483056,754.300697,551.580840,754.000610L587.183600,644.737000C587.488809,643.800316,588.378790,643.180120,589.363212,643.218105C590.347634,643.256091,591.187177,643.943022,591.419300,644.900440Z" transform="matrix(1 0 0 1 -61.96810000000000 -72.38600000000000)" fill="rgb(47,46,65)" stroke="none" stroke-width="1"/><polygon id="eeqs68mtv0d911" points="526.306000,575.493000 534.200000,605.756000 499.990000,716.280000 492.096000,682.070000 526.306000,575.493000" fill="rgb(242,242,242)" stroke="none" stroke-width="1"/><path id="eeqs68mtv0d912" d="M415.908730,812.349630C417.224500,816.296920,552.748220,811.033860,554.063980,809.718100C555.211160,808.070365,556.181398,806.306259,556.958600,804.455040C558.195500,801.823510,559.327040,799.191980,559.327040,799.191980L554.064000,756.587530L419.856000,751.824470C419.856000,751.824470,416.500730,787.929050,415.816510,804.455040C415.645640,808.626000,415.645640,811.560120,415.908730,812.349630Z" transform="matrix(1 0 0 1 -61.96810000000000 -72.38600000000000)" fill="rgb(47,46,65)" stroke="none" stroke-width="1"/><polygon id="eeqs68mtv0d913" points="474.991000,689.965000 477.622000,726.806000 418.413000,726.806000 418.413000,689.965000 474.991000,689.965000" opacity="0.1" fill="rgb(0,0,0)" stroke="none" stroke-width="1"/><polygon id="eeqs68mtv0d914" points="398.677000,701.806000 399.030000,701.736000 397.361000,717.596000 364.467000,717.596000 364.467000,701.806000 398.677000,701.806000" opacity="0.1" fill="rgb(0,0,0)" stroke="none" stroke-width="1"/><path id="eeqs68mtv0d915" d="M415.908730,812.349630C417.224500,816.296920,552.748220,811.033860,554.063980,809.718100C555.211160,808.070365,556.181398,806.306259,556.958600,804.455040L415.816540,804.455040C415.645640,808.626000,415.645640,811.560120,415.908730,812.349630Z" transform="matrix(1 0 0 1 -61.96810000000000 -72.38600000000000)" opacity="0.1" fill="rgb(0,0,0)" stroke="none" stroke-width="1"/><circle id="eeqs68mtv0d916" r="59.209400" transform="matrix(1 0 0 1 196.04900000000001 357.07600000000002)" fill="rgb(160,97,106)" stroke="none" stroke-width="1"/><path id="eeqs68mtv0d917" d="M254.069730,482.092800C254.069730,482.092800,234.333260,516.302670,230.385970,534.723370C226.438680,553.144070,171.176580,497.881970,171.176580,497.881970L163.939880,478.803390C163.939880,478.803390,215.912560,454.461750,211.965270,434.725280C208.017980,414.988810,254.069730,482.092800,254.069730,482.092800Z" transform="matrix(1 0 0 1 -61.96810000000000 -72.38600000000000)" fill="rgb(160,97,106)" stroke="none" stroke-width="1"/><g id="eeqs68mtv0d918_to" transform="translate(-61.968100,-69.722410)"><g id="eeqs68mtv0d918_tr" transform="rotate(0)"><path id="eeqs68mtv0d918" d="M264.595840,584.722410L318.542180,655.773680L447.487080,751.824470C447.487080,751.824470,540.906340,771.560940,519.854080,786.034340C498.801820,800.507740,438.276700,772.876700,438.276700,772.876700C438.276700,772.876700,308.016060,703.141190,280.385000,674.194380C252.753940,645.247570,201.439150,596.564290,201.439150,596.564290Z" transform="translate(0,0)" fill="rgb(160,97,106)" stroke="none" stroke-width="1"/></g></g><path id="eeqs68mtv0d919" d="M192.228810,695.246610L208.018000,720.246130L302.249300,690.600320C322.925110,684.095580,345.597130,686.489080,363.936060,698.042610C380.383120,708.404250,390.909230,724.851300,367.225470,749.192940C319.857960,797.876220,288.279620,771.560940,288.279620,771.560940C288.279620,771.560940,129.072120,846.559500,102.756840,809.718100C76.441560,772.876700,75.125840,754.456000,75.125840,754.456000C75.125840,754.456000,176.439640,691.299310,192.228810,695.246610Z" transform="matrix(1 0 0 1 -61.96810000000000 -72.38600000000000)" fill="rgb(47,46,65)" stroke="none" stroke-width="1"/><path id="eeqs68mtv0d920" d="M389.593450,782.087050C389.593450,782.087050,431.697900,809.718100,381.698860,822.875740C331.699820,836.033380,294.858420,817.612680,294.858420,817.612680C294.858420,817.612680,251.438200,817.612680,251.438200,795.244680C251.438200,772.876680,265.911610,770.245160,265.911610,770.245160L310.647610,776.823980C310.647610,776.823980,364.593930,762.350590,389.593450,782.087050Z" transform="matrix(1 0 0 1 -61.96810000000000 -72.38600000000000)" fill="rgb(208,205,225)" stroke="none" stroke-width="1"/><path id="eeqs68mtv0d921" d="M306.589250,414.567770C310.619250,416.364300,314.615460,418.490680,318.996800,419.012170C323.378140,419.533660,328.367350,418.003980,330.440560,414.109170C331.560380,412.005440,331.688340,409.530910,331.740560,407.148280C331.899050,399.923110,331.376500,392.112370,326.797920,386.520880C323.884020,382.962340,319.630450,380.719050,316.614180,377.246880C314.453180,374.759270,313.014940,371.744040,311.466320,368.835470C305.600320,357.818220,296.915040,347.229880,284.844370,344.053720C279.803960,342.727430,274.516370,342.792150,269.304920,342.865720L238.907670,343.294560C233.988610,343.363960,228.993670,343.444610,224.284670,344.868390C214.500670,347.826620,207.376880,356.054300,200.852510,363.922660C195.971320,369.809340,191.077210,375.756910,187.413890,382.469510C182.161666,392.265261,179.505872,403.242978,179.699660,414.356260C179.658951,417.206463,180.026946,420.047790,180.792420,422.793580C181.687912,425.311859,182.797388,427.748836,184.108690,430.077810C189.809180,441.274540,193.193920,455.260000,186.774120,466.060390C197.925990,461.504970,208.960030,455.532040,216.316440,445.992690C219.607370,441.725210,222.188250,436.729530,226.574020,433.597970C230.959790,430.466410,238.106020,430.194760,240.919940,434.790770C241.887149,436.649998,242.385204,438.717477,242.370740,440.813190C242.576250,444.263020,242.570640,447.845770,244.033320,450.976930C245.496000,454.108090,248.980180,456.634510,252.306690,455.697540C258.035380,454.083960,257.486780,445.291540,261.899200,441.297540C265.250140,438.264360,270.419940,438.844200,274.724940,437.467280C279.740760,435.863000,283.504310,431.517690,285.648730,426.707890C287.278730,423.051950,287.255180,413.484890,290.339570,411.505060C294.207550,409.022190,303.003860,412.969430,306.589250,414.567770Z" transform="matrix(1 0 0 1 -61.96810000000000 -72.38600000000000)" fill="rgb(47,46,65)" stroke="none" stroke-width="1"/><path id="eeqs68mtv0d922" d="M159.239700,472.562070C161.903361,471.851380,164.707692,471.858518,167.367700,472.582760C175.813880,474.850290,194.747910,480.853110,198.807590,489.987380C204.070650,501.829260,222.491350,520.249960,222.491350,520.249960C222.491350,520.249960,247.490870,545.249480,242.227810,562.354420C236.964750,579.459360,217.228290,599.195820,217.228290,599.195820C217.228290,599.195820,222.491350,680.773200,196.176060,701.825430C169.860770,722.877660,159.334660,708.404250,159.334660,728.140710C159.334660,747.877170,77.757320,809.718100,61.968140,771.560940C61.968140,771.560940,69.862730,700.509660,67.231200,675.510140C64.637620,650.871160,68.434480,497.145370,159.239700,472.562070Z" transform="matrix(1 0 0 1 -61.96810000000000 -72.38600000000000)" fill="rgb(208,205,225)" stroke="none" stroke-width="1"/><path id="eeqs68mtv0d923" d="M201.439160,505.776550C201.439160,505.776550,281.700780,564.985950,267.227370,589.985470C267.227370,589.985470,218.544090,613.669220,208.017980,612.353470C197.491870,611.037720,156.703170,564.985960,146.177060,561.038660C135.650950,557.091360,130.387890,486.040090,201.439160,505.776550Z" transform="matrix(1 0 0 1 -61.96810000000000 -72.38600000000000)" fill="rgb(208,205,225)" stroke="none" stroke-width="1"/><circle id="eeqs68mtv0d924" r="65" transform="matrix(1 0 0 1 498.06400000000002 237.45800000000000)" fill="rgb(242,242,242)" stroke="none" stroke-width="1"/><path id="eeqs68mtv0d925" d="M1096.897800,225.426660L732.649120,225.426660L732.649120,149.207220L1096.897800,149.207220ZM734.253740,223.822000L1095.293180,223.822000L1095.293180,150.811800L734.253740,150.811800Z" transform="matrix(1 0 0 1 -61.96810000000000 -72.38600000000000)" fill="rgb(63,61,86)" stroke="none" stroke-width="1"/><rect id="eeqs68mtv0d926" width="362.644000" height="74.614800" rx="0" ry="0" transform="matrix(1 0 0 1 645.80899999999997 92.06510000000000)" fill="rgb(108,99,255)" stroke="none" stroke-width="1"/><circle id="eeqs68mtv0d927" r="5.616240" transform="matrix(1 0 0 1 416.56500000000000 15.24390000000000)" fill="rgb(108,99,255)" stroke="none" stroke-width="1"/><circle id="eeqs68mtv0d928" r="5.616240" transform="matrix(1 0 0 1 435.81999999999999 15.24390000000000)" fill="rgb(108,99,255)" stroke="none" stroke-width="1"/><circle id="eeqs68mtv0d929" r="5.616240" transform="matrix(1 0 0 1 455.07600000000002 15.24390000000000)" fill="rgb(108,99,255)" stroke="none" stroke-width="1"/><path id="eeqs68mtv0d930" d="M1138.031860,512.051870L462.486930,512.051870L462.486930,72.386050L1138.031860,72.386050ZM464.091550,510.447250L1136.427240,510.447250L1136.427240,73.990670L464.091550,73.990670Z" transform="matrix(1 0 0 1 -61.96810000000000 -72.38600000000000)" fill="rgb(63,61,86)" stroke="none" stroke-width="1"/><rect id="eeqs68mtv0d931" width="673.940000" height="1.604620" rx="0" ry="0" transform="matrix(1 0 0 1 401.32100000000003 24.33800000000000)" fill="rgb(63,61,86)" stroke="none" stroke-width="1"/><path id="eeqs68mtv0d932" d="M480.137750,91.641490C477.541717,91.641490,475.201306,90.077678,474.207848,87.679256C473.214389,85.280834,473.763527,82.520132,475.599199,80.684459C477.434872,78.848787,480.195574,78.299649,482.593996,79.293108C484.992418,80.286566,486.556230,82.626977,486.556230,85.223010C486.552130,88.766139,483.680879,91.637390,480.137750,91.641490ZM480.137750,80.409150C478.190725,80.409150,476.435417,81.582009,475.690323,83.380826C474.945229,85.179642,475.357083,87.250169,476.733837,88.626923C478.110591,90.003677,480.181118,90.415531,481.979934,89.670437C483.778751,88.925343,484.951610,87.170035,484.951610,85.223010C484.948530,82.565666,482.795094,80.412230,480.137750,80.409150Z" transform="matrix(1 0 0 1 -61.96810000000000 -72.38600000000000)" fill="rgb(63,61,86)" stroke="none" stroke-width="1"/><path id="eeqs68mtv0d933" d="M499.393190,91.641490C496.797157,91.641490,494.456746,90.077678,493.463288,87.679256C492.469829,85.280834,493.018967,82.520132,494.854639,80.684459C496.690312,78.848787,499.451014,78.299649,501.849436,79.293108C504.247858,80.286566,505.811670,82.626977,505.811670,85.223010C505.807570,88.766139,502.936319,91.637390,499.393190,91.641490ZM499.393190,80.409150C497.446165,80.409150,495.690857,81.582009,494.945763,83.380826C494.200669,85.179642,494.612523,87.250169,495.989277,88.626923C497.366031,90.003677,499.436558,90.415531,501.235374,89.670437C503.034191,88.925343,504.207050,87.170035,504.207050,85.223010C504.203970,82.565666,502.050534,80.412230,499.393190,80.409150Z" transform="matrix(1 0 0 1 -61.96810000000000 -72.38600000000000)" fill="rgb(63,61,86)" stroke="none" stroke-width="1"/><path id="eeqs68mtv0d934" d="M518.648630,91.641490C515.103801,91.641496,512.230146,88.767849,512.230140,85.223020C512.230134,81.678191,515.103781,78.804536,518.648610,78.804530C522.193439,78.804524,525.067094,81.678171,525.067100,85.223000C525.063000,88.766127,522.191757,91.637379,518.648630,91.641490ZM518.648630,80.409150C516.701604,80.409146,514.946293,81.582003,514.201196,83.380819C513.456099,85.179634,513.867950,87.250163,515.244703,88.626920C516.621457,90.003676,518.691985,90.415531,520.490802,89.670438C522.289620,88.925344,523.462480,87.170036,523.462480,85.223010C523.459394,82.565672,521.305968,80.412241,518.648630,80.409150Z" transform="matrix(1 0 0 1 -61.96810000000000 -72.38600000000000)" fill="rgb(63,61,86)" stroke="none" stroke-width="1"/><rect id="eeqs68mtv0d935" width="1.604620" height="414.346000" rx="0" ry="0" transform="matrix(1 0 0 1 612.10900000000004 25.14040000000000)" fill="rgb(63,61,86)" stroke="none" stroke-width="1"/><rect id="eeqs68mtv0d936" width="117.940000" height="16.046200" rx="0" ry="0" transform="matrix(1 0 0 1 688.73299999999995 228.85900000000001)" fill="rgb(242,242,242)" stroke="none" stroke-width="1"/><rect id="eeqs68mtv0d937" width="117.940000" height="16.046200" rx="0" ry="0" transform="matrix(1 0 0 1 874.06700000000001 228.85900000000001)" fill="rgb(242,242,242)" stroke="none" stroke-width="1"/><path id="eeqs68mtv0d938" d="M875.861430,310.070350L756.317260,310.070350L756.317260,292.419530L875.861430,292.419530ZM757.921880,308.465730L874.256810,308.465730L874.256810,294.024150L757.921880,294.024150Z" transform="matrix(1 0 0 1 -61.96810000000000 -72.38600000000000)" fill="rgb(63,61,86)" stroke="none" stroke-width="1"/><rect id="eeqs68mtv0d939" width="117.940000" height="16.046200" rx="0" ry="0" transform="matrix(1 0 0 1 688.73299999999995 353.21699999999998)" fill="rgb(242,242,242)" stroke="none" stroke-width="1"/><path id="eeqs68mtv0d940" d="M875.861430,434.428380L756.317260,434.428380L756.317260,416.777570L875.861430,416.777570ZM757.921880,432.823760L874.256810,432.823760L874.256810,418.382190L757.921880,418.382190Z" transform="matrix(1 0 0 1 -61.96810000000000 -72.38600000000000)" fill="rgb(63,61,86)" stroke="none" stroke-width="1"/><rect id="eeqs68mtv0d941" width="303.273000" height="16.046200" rx="0" ry="0" transform="matrix(1 0 0 1 689.13400000000001 289.43299999999999)" fill="rgb(242,242,242)" stroke="none" stroke-width="1"/><path id="eeqs68mtv0d942" d="M1061.596170,372.249370L756.718410,372.249370L756.718410,354.598550L1061.596170,354.598550ZM758.323000,370.644750L1059.991520,370.644750L1059.991520,356.203170L758.323000,356.203170Z" transform="matrix(1 0 0 1 -61.96810000000000 -72.38600000000000)" fill="rgb(63,61,86)" stroke="none" stroke-width="1"/><path id="eeqs68mtv0d943" d="M1061.195000,310.070350L941.650840,310.070350L941.650840,292.419530L1061.195000,292.419530ZM943.255450,308.465730L1059.590380,308.465730L1059.590380,294.024150L943.255460,294.024150Z" transform="matrix(1 0 0 1 -61.96810000000000 -72.38600000000000)" fill="rgb(63,61,86)" stroke="none" stroke-width="1"/><path id="eeqs68mtv0d944" d="M571.031860,357.844000C534.581067,357.844000,505.031860,328.294793,505.031860,291.844000C505.031860,255.393207,534.581067,225.844000,571.031860,225.844000C607.482653,225.844000,637.031860,255.393207,637.031860,291.844000C636.990704,328.277733,607.465593,357.802844,571.031860,357.844000ZM571.031860,227.844000C535.685636,227.844000,507.031860,256.497776,507.031860,291.844000C507.031860,327.190224,535.685636,355.844000,571.031860,355.844000C606.378084,355.844000,635.031860,327.190224,635.031860,291.844000C634.991796,256.514384,606.361476,227.884064,571.031860,227.844000Z" transform="matrix(1 0 0 1 -61.96810000000000 -72.38600000000000)" fill="rgb(63,61,86)" stroke="none" stroke-width="1"/><rect id="eeqs68mtv0d945" width="283" height="2" rx="0" ry="0" transform="matrix(1 0 0 1 748.06399999999996 744.45799999999997)" fill="rgb(63,61,86)" stroke="none" stroke-width="1"/></svg>